<svg id="Layer_1" data-name="Layer 1" xmlns="http://www.w3.org/2000/svg" xmlns:xlink="http://www.w3.org/1999/xlink" viewBox="0 0 213.83 125.7"><defs><style>.cls-1{fill:none;}.cls-2{clip-path:url(#clip-path);}.cls-3{fill:#131718;}.cls-4{clip-path:url(#clip-path-3);}.cls-5{fill:#e81d26;}.cls-6{fill:#fff;}</style><clipPath id="clip-path" transform="translate(-147.45 -101.25)"><rect id="SVGID" class="cls-1" x="143.61" y="85.28" width="222.96" height="157.65"/></clipPath><clipPath id="clip-path-3" transform="translate(-147.45 -101.25)"><rect id="SVGID-3" data-name="SVGID" class="cls-1" x="147.45" y="101.25" width="29.3" height="32.06"/></clipPath></defs><title>cosude</title><g class="cls-2"><g class="cls-2"><path class="cls-3" d="M188.54,110a2.87,2.87,0,0,0,1.58.42,1.43,1.43,0,0,0,1.61-1.47c0-1.4-3.28-1.58-3.28-3.46,0-1.15,1-1.86,2.27-1.86a4.37,4.37,0,0,1,1.4.23l-.11.65a2.84,2.84,0,0,0-1.3-.27c-.74,0-1.55.31-1.55,1.23,0,1.44,3.28,1.45,3.28,3.54a2.1,2.1,0,0,1-2.35,2,4.17,4.17,0,0,1-1.62-.3Z" transform="translate(-147.45 -101.25)"/><path class="cls-3" d="M198,106.38a2.87,2.87,0,0,0-1.12-.27,2,2,0,0,0-2,2.18,2,2,0,0,0,1.9,2.19,3.23,3.23,0,0,0,1.18-.24l.06.61a4,4,0,0,1-1.34.18,2.49,2.49,0,0,1-2.51-2.74,2.54,2.54,0,0,1,2.59-2.74,3.85,3.85,0,0,1,1.26.21Z" transform="translate(-147.45 -101.25)"/><path class="cls-3" d="M200,103.21h.65v3.35h0a1.79,1.79,0,0,1,1.63-1c1.41,0,1.79.94,1.79,2.23v3.13h-.65v-3.12c0-.9-.18-1.68-1.24-1.68s-1.55,1.09-1.55,2v2.8H200Z" transform="translate(-147.45 -101.25)"/><polygon class="cls-3" points="64.39 9.66 63.61 9.66 62.18 5.13 62.16 5.13 60.73 9.66 59.96 9.66 58.27 4.42 58.98 4.42 60.36 8.95 60.38 8.95 61.83 4.42 62.61 4.42 64 8.95 64.02 8.95 65.47 4.42 66.11 4.42 64.39 9.66"/><path class="cls-3" d="M218.75,110.75a4.36,4.36,0,0,1-1.52.28c-1.73,0-2.38-1.16-2.38-2.74s.88-2.74,2.21-2.74,2.08,1.2,2.08,2.6v.33h-3.58a1.77,1.77,0,0,0,1.72,2,3.29,3.29,0,0,0,1.47-.39Zm-.32-2.83c0-.91-.37-1.81-1.33-1.81a1.71,1.71,0,0,0-1.54,1.81Z" transform="translate(-147.45 -101.25)"/><path class="cls-3" d="M221.82,104.28h-.65v-.86h.65Zm-.65,1.4h.65v5.23h-.65Z" transform="translate(-147.45 -101.25)"/><polygon class="cls-3" points="76.32 9.11 79.47 4.98 76.45 4.98 76.45 4.42 80.22 4.42 80.22 4.98 77.07 9.1 80.22 9.1 80.22 9.66 76.32 9.66 76.32 9.11"/><path class="cls-3" d="M233.12,110.75a4.4,4.4,0,0,1-1.52.28c-1.73,0-2.38-1.16-2.38-2.74s.88-2.74,2.21-2.74,2.08,1.2,2.08,2.6v.33h-3.58c0,1.11.59,2,1.72,2a3.33,3.33,0,0,0,1.47-.39Zm-.32-2.83c0-.91-.37-1.81-1.33-1.81a1.7,1.7,0,0,0-1.54,1.81Z" transform="translate(-147.45 -101.25)"/><path class="cls-3" d="M235.54,106.85a9.61,9.61,0,0,0,0-1.17h.65v1h0a1.54,1.54,0,0,1,1.34-1.13,1.85,1.85,0,0,1,.45.07v.67a1.73,1.73,0,0,0-.47-.06c-1,0-1.3,1.15-1.3,2.1v2.58h-.65Z" transform="translate(-147.45 -101.25)"/><path class="cls-3" d="M240.4,104.28h-.64v-.86h.64Zm-.64,1.4h.64v5.23h-.64Z" transform="translate(-147.45 -101.25)"/><path class="cls-3" d="M242.44,110.15a3,3,0,0,0,1.36.33c.62,0,1.16-.34,1.16-.93,0-1.25-2.51-1-2.51-2.57,0-1,.84-1.43,1.7-1.43a4.24,4.24,0,0,1,1.29.24l-.06.57a3,3,0,0,0-1.16-.25c-.66,0-1.13.2-1.13.87,0,1,2.58.85,2.58,2.57,0,1.1-1,1.48-1.83,1.48a4.09,4.09,0,0,1-1.47-.24Z" transform="translate(-147.45 -101.25)"/><path class="cls-3" d="M251,106.38a2.87,2.87,0,0,0-1.12-.27,2,2,0,0,0-2,2.18,2,2,0,0,0,1.9,2.19,3.23,3.23,0,0,0,1.18-.24l.06.61a4,4,0,0,1-1.35.18,2.48,2.48,0,0,1-2.5-2.74,2.54,2.54,0,0,1,2.58-2.74,4,4,0,0,1,1.27.21Z" transform="translate(-147.45 -101.25)"/><path class="cls-3" d="M253,103.21h.64v3.35h0a1.8,1.8,0,0,1,1.63-1c1.41,0,1.79.94,1.79,2.23v3.13h-.65v-3.12c0-.9-.17-1.68-1.24-1.68s-1.55,1.09-1.55,2v2.8H253Z" transform="translate(-147.45 -101.25)"/><path class="cls-3" d="M263,110.75a4.36,4.36,0,0,1-1.52.28c-1.73,0-2.38-1.16-2.38-2.74s.88-2.74,2.21-2.74c1.48,0,2.08,1.2,2.08,2.6v.33h-3.58a1.77,1.77,0,0,0,1.72,2,3.29,3.29,0,0,0,1.47-.39Zm-.32-2.83c0-.91-.37-1.81-1.33-1.81a1.71,1.71,0,0,0-1.54,1.81Z" transform="translate(-147.45 -101.25)"/><polygon class="cls-3" points="121.7 2.49 125.21 2.49 125.21 3.11 122.41 3.11 122.41 5.67 125.07 5.67 125.07 6.28 122.41 6.28 122.41 9.04 125.33 9.04 125.33 9.66 121.7 9.66 121.7 2.49"/><path class="cls-3" d="M275.66,104.28H275v-.86h.65Zm-.65,1.4h.65v5.23H275Z" transform="translate(-147.45 -101.25)"/><path class="cls-3" d="M282.23,110.91h-.64v-.83h0a1.68,1.68,0,0,1-1.64,1c-1.43,0-2.15-1.19-2.15-2.74s.62-2.74,2.15-2.74a1.78,1.78,0,0,1,1.64,1h0v-3.35h.64Zm-2.19-.43c1.15,0,1.55-1.23,1.55-2.19s-.4-2.18-1.55-2.18-1.55,1.17-1.55,2.18.32,2.19,1.55,2.19" transform="translate(-147.45 -101.25)"/><path class="cls-3" d="M288.74,110.48c0,1.46-.66,2.65-2.45,2.65a5.41,5.41,0,0,1-1.58-.28l.05-.65a3.46,3.46,0,0,0,1.54.37c1.66,0,1.8-1.21,1.8-2.68h0a1.63,1.63,0,0,1-1.59,1c-1.67,0-2.2-1.46-2.2-2.62,0-1.59.61-2.74,2.15-2.74a1.74,1.74,0,0,1,1.63.72h0v-.59h.65Zm-2.24-.12c1.17,0,1.59-1.11,1.59-2.07,0-1.26-.37-2.18-1.55-2.18s-1.55,1.17-1.55,2.18.41,2.07,1.51,2.07" transform="translate(-147.45 -101.25)"/><path class="cls-3" d="M294.61,110.75a4.4,4.4,0,0,1-1.52.28c-1.73,0-2.38-1.16-2.38-2.74s.88-2.74,2.21-2.74,2.08,1.2,2.08,2.6v.33h-3.58c0,1.11.59,2,1.72,2a3.33,3.33,0,0,0,1.47-.39Zm-.32-2.83c0-.91-.37-1.81-1.33-1.81a1.7,1.7,0,0,0-1.54,1.81Z" transform="translate(-147.45 -101.25)"/><path class="cls-3" d="M297,106.91c0-.4,0-.81,0-1.23h.63v.93h0a1.65,1.65,0,0,1,1.69-1.06c1.29,0,1.79.87,1.79,2v3.34h-.65v-3.18c0-1-.35-1.62-1.24-1.62-1.18,0-1.55,1-1.55,1.91v2.89H297Z" transform="translate(-147.45 -101.25)"/><path class="cls-3" d="M305.58,105.55a2.76,2.76,0,1,1-2.44,2.74,2.45,2.45,0,0,1,2.44-2.74m0,4.93c1.13,0,1.73-1,1.73-2.19s-.6-2.18-1.73-2.18-1.74,1-1.74,2.18.61,2.19,1.74,2.19" transform="translate(-147.45 -101.25)"/><path class="cls-3" d="M309.64,110.15a3,3,0,0,0,1.37.33c.61,0,1.16-.34,1.16-.93,0-1.25-2.52-1-2.52-2.57,0-1,.85-1.43,1.71-1.43a4.24,4.24,0,0,1,1.29.24l-.06.57a3,3,0,0,0-1.16-.25c-.67,0-1.13.2-1.13.87,0,1,2.58.85,2.58,2.57,0,1.1-1,1.48-1.83,1.48a4.05,4.05,0,0,1-1.47-.24Z" transform="translate(-147.45 -101.25)"/><path class="cls-3" d="M314.44,110.15a3,3,0,0,0,1.36.33c.62,0,1.16-.34,1.16-.93,0-1.25-2.51-1-2.51-2.57,0-1,.84-1.43,1.7-1.43a4.24,4.24,0,0,1,1.29.24l-.06.57a3,3,0,0,0-1.16-.25c-.66,0-1.13.2-1.13.87,0,1,2.58.85,2.58,2.57,0,1.1-1,1.48-1.83,1.48a4.09,4.09,0,0,1-1.47-.24Z" transform="translate(-147.45 -101.25)"/><path class="cls-3" d="M323.14,110.75a4.4,4.4,0,0,1-1.52.28c-1.74,0-2.38-1.16-2.38-2.74s.88-2.74,2.21-2.74,2.08,1.2,2.08,2.6v.33H320c0,1.11.59,2,1.72,2a3.33,3.33,0,0,0,1.47-.39Zm-.32-2.83c0-.91-.37-1.81-1.33-1.81a1.7,1.7,0,0,0-1.54,1.81Z" transform="translate(-147.45 -101.25)"/><path class="cls-3" d="M325.56,106.91c0-.4,0-.81,0-1.23h.63v.93h0a1.65,1.65,0,0,1,1.69-1.06c1.29,0,1.78.87,1.78,2v3.34H329v-3.18c0-1-.35-1.62-1.24-1.62-1.18,0-1.55,1-1.55,1.91v2.89h-.65Z" transform="translate(-147.45 -101.25)"/><path class="cls-3" d="M331.67,110.15a3,3,0,0,0,1.36.33c.62,0,1.16-.34,1.16-.93,0-1.25-2.51-1-2.51-2.57,0-1,.84-1.43,1.7-1.43a4.24,4.24,0,0,1,1.29.24l-.06.57a3,3,0,0,0-1.16-.25c-.66,0-1.13.2-1.13.87,0,1,2.58.85,2.58,2.57,0,1.1-1,1.48-1.83,1.48a4.09,4.09,0,0,1-1.47-.24Z" transform="translate(-147.45 -101.25)"/><path class="cls-3" d="M340.27,106.38a2.87,2.87,0,0,0-1.12-.27,1.94,1.94,0,0,0-2,2.18,2,2,0,0,0,1.9,2.19,3.23,3.23,0,0,0,1.18-.24l.06.61A4,4,0,0,1,339,111a2.48,2.48,0,0,1-2.5-2.74,2.53,2.53,0,0,1,2.58-2.74,4,4,0,0,1,1.27.21Z" transform="translate(-147.45 -101.25)"/><path class="cls-3" d="M342.22,103.21h.64v3.35h0a1.79,1.79,0,0,1,1.63-1c1.41,0,1.79.94,1.79,2.23v3.13h-.65v-3.12c0-.9-.17-1.68-1.24-1.68s-1.55,1.09-1.55,2v2.8h-.64Z" transform="translate(-147.45 -101.25)"/><path class="cls-3" d="M351.73,110.07h0a1.84,1.84,0,0,1-1.66,1c-1.49,0-1.73-1-1.73-1.47,0-1.76,1.87-1.84,3.22-1.84h.13v-.27c0-.89-.32-1.34-1.19-1.34a2.74,2.74,0,0,0-1.54.43v-.63a4.19,4.19,0,0,1,1.54-.36c1.29,0,1.83.59,1.83,2v2.31a7.67,7.67,0,0,0,.05,1.1h-.63Zm-.06-1.8h-.19c-1.12,0-2.45.12-2.45,1.27,0,.68.49.94,1.09.94,1.52,0,1.55-1.32,1.55-1.89Z" transform="translate(-147.45 -101.25)"/><path class="cls-3" d="M355.09,106.23h-1v-.55h1v-.38c0-1.1,0-2.21,1.39-2.21a1.59,1.59,0,0,1,.61.1l0,.57a1.13,1.13,0,0,0-.51-.11c-.88,0-.79.95-.79,1.58v.45h1.18v.55h-1.18v4.68h-.65Z" transform="translate(-147.45 -101.25)"/><path class="cls-3" d="M361.13,106.23h-1.19v3.39c0,.47.17.86.7.86a1.51,1.51,0,0,0,.59-.12l0,.53a2.38,2.38,0,0,1-.79.14c-1.15,0-1.19-.79-1.19-1.74v-3.06h-1v-.55h1v-1.26l.65-.23v1.49h1.19Z" transform="translate(-147.45 -101.25)"/><path class="cls-3" d="M193.65,118.71a3.66,3.66,0,0,0-1.6-.31,2.81,2.81,0,0,0-2.9,3.09,2.78,2.78,0,0,0,2.9,3.09,3.5,3.5,0,0,0,1.6-.31l0,.62a4,4,0,0,1-1.64.31,3.41,3.41,0,0,1-3.61-3.71,3.45,3.45,0,0,1,3.61-3.7,4.74,4.74,0,0,1,1.64.26Z" transform="translate(-147.45 -101.25)"/><path class="cls-3" d="M198.35,119.72a2.76,2.76,0,1,1-2.44,2.74,2.44,2.44,0,0,1,2.44-2.74m0,4.92c1.13,0,1.74-1,1.74-2.18s-.61-2.19-1.74-2.19-1.73,1-1.73,2.19.6,2.18,1.73,2.18" transform="translate(-147.45 -101.25)"/><path class="cls-3" d="M202.82,121.07a10.29,10.29,0,0,0,0-1.23h.63v.93h0a1.67,1.67,0,0,1,1.69-1c1.3,0,1.79.86,1.79,2v3.34h-.65v-3.18c0-1-.35-1.62-1.24-1.62-1.18,0-1.55,1-1.55,1.91v2.89h-.64Z" transform="translate(-147.45 -101.25)"/><path class="cls-3" d="M209.76,120.39h-1v-.55h1v-.38c0-1.1,0-2.21,1.39-2.21a1.34,1.34,0,0,1,.6.11l0,.56a1.16,1.16,0,0,0-.51-.11c-.88,0-.79,1-.79,1.58v.45h1.18v.55h-1.18v4.68h-.65Z" transform="translate(-147.45 -101.25)"/><path class="cls-3" d="M217.05,124.91a4.41,4.41,0,0,1-1.52.29c-1.73,0-2.38-1.17-2.38-2.74s.88-2.74,2.21-2.74,2.08,1.19,2.08,2.59v.33h-3.58c0,1.11.59,2,1.72,2a3.33,3.33,0,0,0,1.47-.39Zm-.32-2.82c0-.92-.37-1.82-1.33-1.82a1.71,1.71,0,0,0-1.54,1.82Zm-1.08-4.27h.81l-1.29,1.47h-.47Z" transform="translate(-147.45 -101.25)"/><path class="cls-3" d="M223.62,125.07H223v-.83h0a1.67,1.67,0,0,1-1.63,1c-1.44,0-2.16-1.19-2.16-2.74s.62-2.74,2.16-2.74a1.77,1.77,0,0,1,1.63,1h0v-3.34h.65Zm-2.2-.43c1.15,0,1.55-1.23,1.55-2.18s-.4-2.19-1.55-2.19-1.55,1.17-1.55,2.19.32,2.18,1.55,2.18" transform="translate(-147.45 -101.25)"/><path class="cls-3" d="M229.49,124.91a4.45,4.45,0,0,1-1.52.29c-1.74,0-2.38-1.17-2.38-2.74s.88-2.74,2.2-2.74c1.48,0,2.09,1.19,2.09,2.59v.33h-3.59a1.77,1.77,0,0,0,1.73,2,3.33,3.33,0,0,0,1.47-.39Zm-.32-2.82c0-.92-.37-1.82-1.34-1.82a1.71,1.71,0,0,0-1.54,1.82Zm-1.08-4.27h.81l-1.29,1.47h-.47Z" transform="translate(-147.45 -101.25)"/><path class="cls-3" d="M231.91,121a9.61,9.61,0,0,0,0-1.17h.64v1h0a1.56,1.56,0,0,1,1.35-1.12,2,2,0,0,1,.45.06v.67a1.73,1.73,0,0,0-.47-.06c-1,0-1.31,1.15-1.31,2.1v2.58h-.64Z" transform="translate(-147.45 -101.25)"/><path class="cls-3" d="M239.13,124.23h0a1.83,1.83,0,0,1-1.66,1c-1.49,0-1.72-1-1.72-1.48,0-1.76,1.86-1.84,3.22-1.84h.12v-.27c0-.89-.32-1.34-1.19-1.34a2.77,2.77,0,0,0-1.54.43v-.62a4,4,0,0,1,1.54-.36c1.29,0,1.84.58,1.84,2V124a7.6,7.6,0,0,0,.05,1.1h-.64Zm-.06-1.79h-.18c-1.12,0-2.46.11-2.46,1.26,0,.69.5.94,1.09.94,1.52,0,1.55-1.32,1.55-1.89Z" transform="translate(-147.45 -101.25)"/><path class="cls-3" d="M244.31,120.39h-1.19v3.39c0,.47.18.86.7.86a1.56,1.56,0,0,0,.6-.12l0,.53a2.34,2.34,0,0,1-.79.15c-1.15,0-1.19-.79-1.19-1.75v-3.06h-1v-.55h1v-1.26l.64-.23v1.49h1.19Z" transform="translate(-147.45 -101.25)"/><path class="cls-3" d="M246.92,118.44h-.64v-.86h.64Zm-.65,1.4h.65v5.23h-.65Z" transform="translate(-147.45 -101.25)"/><path class="cls-3" d="M251.4,119.72a2.76,2.76,0,1,1-2.45,2.74,2.44,2.44,0,0,1,2.45-2.74m0,4.92c1.12,0,1.73-1,1.73-2.18s-.61-2.19-1.73-2.19-1.74,1-1.74,2.19.61,2.18,1.74,2.18" transform="translate(-147.45 -101.25)"/><path class="cls-3" d="M255.86,121.07c0-.4,0-.81,0-1.23h.62v.93h0a1.67,1.67,0,0,1,1.7-1c1.29,0,1.78.86,1.78,2v3.34h-.64v-3.18c0-1-.35-1.62-1.24-1.62-1.18,0-1.55,1-1.55,1.91v2.89h-.65Z" transform="translate(-147.45 -101.25)"/><path class="cls-3" d="M265.62,124.31a3,3,0,0,0,1.36.33c.62,0,1.16-.34,1.16-.93,0-1.24-2.51-1-2.51-2.57,0-1,.84-1.42,1.7-1.42a4.29,4.29,0,0,1,1.3.23l-.07.57a2.91,2.91,0,0,0-1.16-.25c-.66,0-1.12.2-1.12.87,0,1,2.57.85,2.57,2.57,0,1.11-1,1.49-1.82,1.49a4,4,0,0,1-1.47-.25Z" transform="translate(-147.45 -101.25)"/><path class="cls-3" d="M274.9,123.84c0,.4,0,.81,0,1.23h-.63v-.93h0a1.67,1.67,0,0,1-1.69,1.06c-1.3,0-1.79-.87-1.79-2v-3.34h.65V123c0,1,.35,1.62,1.24,1.62,1.18,0,1.55-1,1.55-1.91v-2.89h.65Z" transform="translate(-147.45 -101.25)"/><path class="cls-3" d="M278,118.44h-.64v-.86H278Zm-.64,1.4H278v5.23h-.64Z" transform="translate(-147.45 -101.25)"/><path class="cls-3" d="M280,124.31a3,3,0,0,0,1.36.33c.62,0,1.16-.34,1.16-.93,0-1.24-2.51-1-2.51-2.57,0-1,.84-1.42,1.7-1.42A4.18,4.18,0,0,1,283,120l-.06.57a3,3,0,0,0-1.16-.25c-.66,0-1.13.2-1.13.87,0,1,2.58.85,2.58,2.57,0,1.11-1,1.49-1.83,1.49a4.1,4.1,0,0,1-1.47-.25Z" transform="translate(-147.45 -101.25)"/><path class="cls-3" d="M284.79,124.31a3,3,0,0,0,1.36.33c.62,0,1.16-.34,1.16-.93,0-1.24-2.51-1-2.51-2.57,0-1,.84-1.42,1.7-1.42a4.29,4.29,0,0,1,1.3.23l-.07.57a2.91,2.91,0,0,0-1.16-.25c-.66,0-1.13.2-1.13.87,0,1,2.58.85,2.58,2.57,0,1.11-1,1.49-1.83,1.49a4,4,0,0,1-1.46-.25Z" transform="translate(-147.45 -101.25)"/><path class="cls-3" d="M293.49,124.91a4.41,4.41,0,0,1-1.52.29c-1.73,0-2.38-1.17-2.38-2.74s.88-2.74,2.21-2.74,2.08,1.19,2.08,2.59v.33H290.3c0,1.11.59,2,1.72,2a3.33,3.33,0,0,0,1.47-.39Zm-.32-2.82c0-.92-.37-1.82-1.33-1.82a1.71,1.71,0,0,0-1.54,1.82Z" transform="translate(-147.45 -101.25)"/><path class="cls-3" d="M193.65,132.87a3.81,3.81,0,0,0-1.6-.31,2.81,2.81,0,0,0-2.9,3.09,2.78,2.78,0,0,0,2.9,3.09,3.62,3.62,0,0,0,1.6-.3l0,.61a3.81,3.81,0,0,1-1.64.31,3.41,3.41,0,0,1-3.61-3.71,3.45,3.45,0,0,1,3.61-3.7,4.52,4.52,0,0,1,1.64.27Z" transform="translate(-147.45 -101.25)"/><path class="cls-3" d="M198.35,133.88a2.76,2.76,0,1,1-2.44,2.74,2.44,2.44,0,0,1,2.44-2.74m0,4.92c1.13,0,1.74-1,1.74-2.18s-.61-2.19-1.74-2.19-1.73,1-1.73,2.19.6,2.18,1.73,2.18" transform="translate(-147.45 -101.25)"/><path class="cls-3" d="M202.82,135.23a10.29,10.29,0,0,0,0-1.23h.63v.94h0a1.66,1.66,0,0,1,1.69-1.06c1.3,0,1.79.86,1.79,2v3.35h-.65v-3.19c0-1-.35-1.62-1.24-1.62-1.18,0-1.55,1-1.55,1.91v2.9h-.64Z" transform="translate(-147.45 -101.25)"/><path class="cls-3" d="M209.76,134.56h-1V134h1v-.38c0-1.1,0-2.2,1.39-2.2a1.51,1.51,0,0,1,.6.1l0,.56a1.16,1.16,0,0,0-.51-.11c-.88,0-.79.95-.79,1.58V134h1.18v.56h-1.18v4.68h-.65Z" transform="translate(-147.45 -101.25)"/><path class="cls-3" d="M217.05,139.07a4.19,4.19,0,0,1-1.52.29c-1.73,0-2.38-1.17-2.38-2.74s.88-2.74,2.21-2.74,2.08,1.19,2.08,2.59v.33h-3.58c0,1.11.59,2,1.72,2a3.33,3.33,0,0,0,1.47-.39Zm-.32-2.82c0-.91-.37-1.82-1.33-1.82a1.71,1.71,0,0,0-1.54,1.82Z" transform="translate(-147.45 -101.25)"/><path class="cls-3" d="M223.62,139.24H223v-.84h0a1.67,1.67,0,0,1-1.63,1c-1.44,0-2.16-1.19-2.16-2.74s.62-2.74,2.16-2.74a1.77,1.77,0,0,1,1.63,1h0v-3.34h.65Zm-2.2-.44c1.15,0,1.55-1.23,1.55-2.18s-.4-2.19-1.55-2.19-1.55,1.17-1.55,2.19.32,2.18,1.55,2.18" transform="translate(-147.45 -101.25)"/><path class="cls-3" d="M229.49,139.07a4.23,4.23,0,0,1-1.52.29c-1.74,0-2.38-1.17-2.38-2.74s.88-2.74,2.2-2.74c1.48,0,2.09,1.19,2.09,2.59v.33h-3.59a1.77,1.77,0,0,0,1.73,2,3.33,3.33,0,0,0,1.47-.39Zm-.32-2.82c0-.91-.37-1.82-1.34-1.82a1.72,1.72,0,0,0-1.54,1.82Z" transform="translate(-147.45 -101.25)"/><path class="cls-3" d="M231.91,135.17a9.7,9.7,0,0,0,0-1.17h.64v1h0a1.55,1.55,0,0,1,1.35-1.13,2,2,0,0,1,.45.06v.68a1.73,1.73,0,0,0-.47-.06c-1,0-1.31,1.15-1.31,2.09v2.59h-.64Z" transform="translate(-147.45 -101.25)"/><path class="cls-3" d="M239.13,138.39h0a1.83,1.83,0,0,1-1.66,1c-1.49,0-1.72-1-1.72-1.48,0-1.75,1.86-1.84,3.22-1.84h.12v-.26c0-.9-.32-1.35-1.19-1.35a2.85,2.85,0,0,0-1.54.43v-.62a4,4,0,0,1,1.54-.36c1.29,0,1.84.58,1.84,2v2.31a7.67,7.67,0,0,0,.05,1.1h-.64Zm-.06-1.79h-.18c-1.12,0-2.46.11-2.46,1.26,0,.69.5.94,1.09.94,1.52,0,1.55-1.32,1.55-1.88Z" transform="translate(-147.45 -101.25)"/><polygon class="cls-3" points="94.13 37.44 97.28 33.3 94.25 33.3 94.25 32.75 98.03 32.75 98.03 33.3 94.88 37.43 98.03 37.43 98.03 37.98 94.13 37.98 94.13 37.44"/><path class="cls-3" d="M248.06,132.61h-.65v-.87h.65Zm-.65,1.39h.65v5.24h-.65Z" transform="translate(-147.45 -101.25)"/><path class="cls-3" d="M252.53,133.88a2.76,2.76,0,1,1-2.44,2.74,2.44,2.44,0,0,1,2.44-2.74m0,4.92c1.13,0,1.74-1,1.74-2.18s-.61-2.19-1.74-2.19-1.73,1-1.73,2.19.61,2.18,1.73,2.18" transform="translate(-147.45 -101.25)"/><path class="cls-3" d="M257,135.23c0-.4,0-.81,0-1.23h.62v.94h0a1.66,1.66,0,0,1,1.7-1.06c1.29,0,1.78.86,1.78,2v3.35h-.64v-3.19c0-1-.35-1.62-1.25-1.62-1.18,0-1.54,1-1.54,1.91v2.9H257Z" transform="translate(-147.45 -101.25)"/><path class="cls-3" d="M267,139.07a4.14,4.14,0,0,1-1.51.29c-1.74,0-2.38-1.17-2.38-2.74s.88-2.74,2.2-2.74c1.48,0,2.08,1.19,2.08,2.59v.33h-3.58a1.77,1.77,0,0,0,1.73,2,3.25,3.25,0,0,0,1.46-.39Zm-.31-2.82c0-.91-.37-1.82-1.34-1.82a1.72,1.72,0,0,0-1.54,1.82Z" transform="translate(-147.45 -101.25)"/><path class="cls-3" d="M273,138.32a2.78,2.78,0,0,0,1.58.42,1.43,1.43,0,0,0,1.61-1.46c0-1.41-3.29-1.58-3.29-3.46a2,2,0,0,1,2.27-1.87,4.16,4.16,0,0,1,1.41.24l-.11.64a3,3,0,0,0-1.31-.26c-.74,0-1.55.3-1.55,1.23,0,1.43,3.29,1.44,3.29,3.54a2.11,2.11,0,0,1-2.35,2,3.93,3.93,0,0,1-1.62-.31Z" transform="translate(-147.45 -101.25)"/><polygon class="cls-3" points="133.39 37.98 132.63 37.98 130.86 32.75 131.56 32.75 133.01 37.27 133.03 37.27 134.55 32.75 135.23 32.75 133.39 37.98"/><path class="cls-3" d="M285,132.61h-.65v-.87H285Zm-.65,1.39H285v5.24h-.65Z" transform="translate(-147.45 -101.25)"/><polygon class="cls-3" points="139.53 37.44 142.68 33.3 139.65 33.3 139.65 32.75 143.43 32.75 143.43 33.3 140.28 37.43 143.43 37.43 143.43 37.98 139.53 37.98 139.53 37.44"/><polygon class="cls-3" points="144.88 37.44 148.04 33.3 145.01 33.3 145.01 32.75 148.78 32.75 148.78 33.3 145.63 37.43 148.78 37.43 148.78 37.98 144.88 37.98 144.88 37.44"/><path class="cls-3" d="M301.68,139.07a4.19,4.19,0,0,1-1.52.29c-1.73,0-2.38-1.17-2.38-2.74s.88-2.74,2.21-2.74,2.08,1.19,2.08,2.59v.33h-3.58c0,1.11.59,2,1.72,2a3.33,3.33,0,0,0,1.47-.39Zm-.32-2.82c0-.91-.37-1.82-1.33-1.82a1.71,1.71,0,0,0-1.54,1.82Z" transform="translate(-147.45 -101.25)"/><path class="cls-3" d="M304.1,135.17a9.7,9.7,0,0,0,0-1.17h.65v1h0a1.54,1.54,0,0,1,1.34-1.13,1.89,1.89,0,0,1,.45.06v.68a1.68,1.68,0,0,0-.47-.06c-1,0-1.3,1.15-1.3,2.09v2.59h-.65Z" transform="translate(-147.45 -101.25)"/><path class="cls-3" d="M311.33,138.39h0a1.85,1.85,0,0,1-1.67,1c-1.48,0-1.72-1-1.72-1.48,0-1.75,1.87-1.84,3.22-1.84h.12v-.26c0-.9-.31-1.35-1.19-1.35a2.87,2.87,0,0,0-1.54.43v-.62a4.08,4.08,0,0,1,1.54-.36c1.3,0,1.84.58,1.84,2v2.31a7.67,7.67,0,0,0,0,1.1h-.63Zm-.07-1.79h-.18c-1.12,0-2.45.11-2.45,1.26,0,.69.49.94,1.08.94,1.52,0,1.55-1.32,1.55-1.88Z" transform="translate(-147.45 -101.25)"/><path class="cls-3" d="M193.65,147a3.8,3.8,0,0,0-1.6-.3,2.81,2.81,0,0,0-2.9,3.09,2.78,2.78,0,0,0,2.9,3.08,3.62,3.62,0,0,0,1.6-.3l0,.61a3.81,3.81,0,0,1-1.64.31,3.41,3.41,0,0,1-3.61-3.7,3.45,3.45,0,0,1,3.61-3.71,4.52,4.52,0,0,1,1.64.27Z" transform="translate(-147.45 -101.25)"/><path class="cls-3" d="M198.35,148a2.76,2.76,0,1,1-2.44,2.74,2.44,2.44,0,0,1,2.44-2.74m0,4.93c1.13,0,1.74-1,1.74-2.19s-.61-2.19-1.74-2.19-1.73,1-1.73,2.19.6,2.19,1.73,2.19" transform="translate(-147.45 -101.25)"/><path class="cls-3" d="M202.82,149.39a10.29,10.29,0,0,0,0-1.23h.63v.94h0a1.67,1.67,0,0,1,1.69-1.06c1.3,0,1.79.86,1.79,2v3.35h-.65v-3.18c0-1-.35-1.63-1.24-1.63-1.18,0-1.55,1-1.55,1.91v2.9h-.64Z" transform="translate(-147.45 -101.25)"/><path class="cls-3" d="M209.76,148.72h-1v-.56h1v-.38c0-1.1,0-2.2,1.39-2.2a1.51,1.51,0,0,1,.6.1l0,.56a1.16,1.16,0,0,0-.51-.11c-.88,0-.79,1-.79,1.58v.45h1.18v.56h-1.18v4.68h-.65Z" transform="translate(-147.45 -101.25)"/><path class="cls-3" d="M217.05,153.23a4.19,4.19,0,0,1-1.52.29c-1.73,0-2.38-1.17-2.38-2.74S214,148,215.36,148s2.08,1.19,2.08,2.6V151h-3.58c0,1.11.59,2,1.72,2a3.46,3.46,0,0,0,1.47-.39Zm-.32-2.82c0-.91-.37-1.82-1.33-1.82a1.71,1.71,0,0,0-1.54,1.82Z" transform="translate(-147.45 -101.25)"/><path class="cls-3" d="M223.62,153.4H223v-.83h0a1.68,1.68,0,0,1-1.63,1c-1.44,0-2.16-1.19-2.16-2.74s.62-2.74,2.16-2.74a1.76,1.76,0,0,1,1.63,1h0V145.7h.65Zm-2.2-.43c1.15,0,1.55-1.24,1.55-2.19s-.4-2.19-1.55-2.19-1.55,1.17-1.55,2.19.32,2.19,1.55,2.19" transform="translate(-147.45 -101.25)"/><path class="cls-3" d="M229.49,153.23a4.23,4.23,0,0,1-1.52.29c-1.74,0-2.38-1.17-2.38-2.74s.88-2.74,2.2-2.74c1.48,0,2.09,1.19,2.09,2.6V151h-3.59a1.78,1.78,0,0,0,1.73,2,3.46,3.46,0,0,0,1.47-.39Zm-.32-2.82c0-.91-.37-1.82-1.34-1.82a1.72,1.72,0,0,0-1.54,1.82Z" transform="translate(-147.45 -101.25)"/><path class="cls-3" d="M231.91,149.33a9.7,9.7,0,0,0,0-1.17h.64v1h0a1.55,1.55,0,0,1,1.35-1.13,2,2,0,0,1,.45.06v.68a1.73,1.73,0,0,0-.47-.06c-1,0-1.31,1.15-1.31,2.09v2.59h-.64Z" transform="translate(-147.45 -101.25)"/><path class="cls-3" d="M239.13,152.56h0a1.84,1.84,0,0,1-1.66,1c-1.49,0-1.72-1-1.72-1.48,0-1.75,1.86-1.83,3.22-1.83h.12v-.27c0-.89-.32-1.35-1.19-1.35a2.85,2.85,0,0,0-1.54.43v-.62a4,4,0,0,1,1.54-.36c1.29,0,1.84.59,1.84,2v2.31a7.67,7.67,0,0,0,.05,1.1h-.64Zm-.06-1.8h-.18c-1.12,0-2.46.11-2.46,1.26,0,.69.5.95,1.09.95,1.52,0,1.55-1.33,1.55-1.89Z" transform="translate(-147.45 -101.25)"/><polygon class="cls-3" points="94.13 51.6 97.28 47.46 94.25 47.46 94.25 46.91 98.03 46.91 98.03 47.46 94.88 51.59 98.03 51.59 98.03 52.14 94.13 52.14 94.13 51.6"/><path class="cls-3" d="M248.06,146.77h-.65v-.86h.65Zm-.65,1.39h.65v5.24h-.65Z" transform="translate(-147.45 -101.25)"/><path class="cls-3" d="M254.58,152.17c0,.4,0,.81,0,1.23H254v-.94h0a1.64,1.64,0,0,1-1.69,1.06c-1.3,0-1.79-.86-1.79-2v-3.35h.65v3.18c0,1,.35,1.63,1.24,1.63,1.18,0,1.55-1,1.55-1.91v-2.9h.65Z" transform="translate(-147.45 -101.25)"/><path class="cls-3" d="M257,149.39c0-.4,0-.81,0-1.23h.62v.94h0a1.68,1.68,0,0,1,1.7-1.06c1.29,0,1.78.86,1.78,2v3.35h-.64v-3.18c0-1-.35-1.63-1.25-1.63-1.18,0-1.54,1-1.54,1.91v2.9H257Z" transform="translate(-147.45 -101.25)"/><path class="cls-3" d="M266.76,152.64a3.14,3.14,0,0,0,1.36.33c.62,0,1.16-.34,1.16-.94,0-1.24-2.51-1.05-2.51-2.56,0-1,.84-1.43,1.7-1.43a4.05,4.05,0,0,1,1.3.24l-.07.56a3.14,3.14,0,0,0-1.16-.25c-.66,0-1.12.21-1.12.88,0,1,2.57.85,2.57,2.56,0,1.11-1,1.49-1.83,1.49a3.81,3.81,0,0,1-1.46-.25Z" transform="translate(-147.45 -101.25)"/><polygon class="cls-3" points="126.32 52.14 125.56 52.14 123.79 46.91 124.49 46.91 125.94 51.43 125.96 51.43 127.48 46.91 128.16 46.91 126.32 52.14"/><path class="cls-3" d="M278,146.77h-.64v-.86H278Zm-.64,1.39H278v5.24h-.64Z" transform="translate(-147.45 -101.25)"/><polygon class="cls-3" points="132.46 51.6 135.61 47.46 132.58 47.46 132.58 46.91 136.36 46.91 136.36 47.46 133.21 51.59 136.36 51.59 136.36 52.14 132.46 52.14 132.46 51.6"/><path class="cls-3" d="M285.74,149.33a9.7,9.7,0,0,0,0-1.17h.65v1h0a1.54,1.54,0,0,1,1.34-1.13,1.89,1.89,0,0,1,.45.06v.68a1.68,1.68,0,0,0-.47-.06c-1,0-1.3,1.15-1.3,2.09v2.59h-.65Z" transform="translate(-147.45 -101.25)"/><path class="cls-3" d="M293,152.56h0a1.86,1.86,0,0,1-1.67,1c-1.48,0-1.72-1-1.72-1.48,0-1.75,1.87-1.83,3.22-1.83h.13v-.27c0-.89-.32-1.35-1.2-1.35a2.82,2.82,0,0,0-1.53.43v-.62a4,4,0,0,1,1.53-.36c1.3,0,1.84.59,1.84,2v2.31a7.67,7.67,0,0,0,.05,1.1H293Zm-.06-1.8h-.19c-1.12,0-2.45.11-2.45,1.26,0,.69.49.95,1.09.95,1.51,0,1.55-1.33,1.55-1.89Z" transform="translate(-147.45 -101.25)"/></g><g class="cls-4"><path class="cls-5" d="M176.69,103.62s-5.45-2.37-14.59-2.37h0c-9.14,0-14.6,2.37-14.6,2.37s-.49,10.5,1.58,16.44a22,22,0,0,0,13,13.37h0a22,22,0,0,0,13-13.37c2.08-5.94,1.58-16.44,1.58-16.44" transform="translate(-147.45 -101.25)"/></g><g class="cls-2"><polygon class="cls-6" points="24.35 11.42 24.35 17.2 17.55 17.2 17.55 23.95 11.72 23.95 11.72 17.2 4.91 17.2 4.91 11.42 11.72 11.42 11.72 4.67 17.55 4.67 17.55 11.42 24.35 11.42"/><path class="cls-3" d="M190.82,209.06l-.53,1.89h-1.73l2.26-7.38H193l2.29,7.38H193.5l-.57-1.89Zm1.87-1.25-.46-1.57c-.13-.43-.26-1-.37-1.42h0c-.11.44-.22,1-.34,1.42l-.43,1.57Z" transform="translate(-147.45 -101.25)"/><path class="cls-3" d="M201.18,205.6c0,.34,0,.79,0,1.58v3a3.09,3.09,0,0,1-.81,2.41,3.32,3.32,0,0,1-2.18.65,4.26,4.26,0,0,1-1.93-.41l.33-1.26a3.27,3.27,0,0,0,1.56.4,1.28,1.28,0,0,0,1.39-1.41v-.35h0a1.69,1.69,0,0,1-1.44.7,2.36,2.36,0,0,1-2.27-2.61,2.56,2.56,0,0,1,2.43-2.81,1.6,1.6,0,0,1,1.47.75h0l.06-.63Zm-1.71,2.17a1.45,1.45,0,0,0,0-.3.91.91,0,0,0-.9-.73c-.6,0-1.09.54-1.09,1.52,0,.8.39,1.42,1.09,1.42a.91.91,0,0,0,.88-.68,1.52,1.52,0,0,0,.05-.44Z" transform="translate(-147.45 -101.25)"/><path class="cls-3" d="M203.76,208.8c.05.69.73,1,1.51,1a4.78,4.78,0,0,0,1.47-.22l.22,1.13a5.26,5.26,0,0,1-1.94.33,2.57,2.57,0,0,1-2.85-2.73,2.68,2.68,0,0,1,2.7-2.85,2.37,2.37,0,0,1,2.39,2.67,4,4,0,0,1-.06.65Zm2-1.13a1,1,0,0,0-.94-1.09,1.1,1.1,0,0,0-1,1.09Z" transform="translate(-147.45 -101.25)"/><path class="cls-3" d="M208.26,207.3c0-.66,0-1.23,0-1.7h1.45l.07.73h0a2,2,0,0,1,1.66-.85c1.09,0,1.91.72,1.91,2.29V211h-1.66v-3c0-.69-.24-1.16-.84-1.16a.9.9,0,0,0-.85.63,1.22,1.22,0,0,0-.06.41V211h-1.66Z" transform="translate(-147.45 -101.25)"/><path class="cls-3" d="M218.69,210.82a4.14,4.14,0,0,1-1.49.24,2.6,2.6,0,0,1-2.84-2.74,2.8,2.8,0,0,1,3.07-2.84,3.68,3.68,0,0,1,1.27.21l-.27,1.23a2.21,2.21,0,0,0-.93-.16,1.38,1.38,0,0,0-1.43,1.5,1.4,1.4,0,0,0,1.47,1.5,2.52,2.52,0,0,0,1-.17Z" transform="translate(-147.45 -101.25)"/><path class="cls-3" d="M221.32,204.11a.83.83,0,0,1-.89.83.84.84,0,1,1,0-1.67.83.83,0,0,1,.88.84m-1.71,1.49h1.66V211h-1.66Z" transform="translate(-147.45 -101.25)"/><path class="cls-3" d="M225.65,211l-.1-.54h0a1.93,1.93,0,0,1-1.54.66,1.64,1.64,0,0,1-1.72-1.64c0-1.39,1.24-2.06,3.14-2.05v-.08c0-.28-.16-.68-1-.68a3,3,0,0,0-1.48.4l-.3-1.07a4.37,4.37,0,0,1,2.08-.47,2.08,2.08,0,0,1,2.35,2.31v1.86a7.67,7.67,0,0,0,.08,1.3Zm-.2-2.53c-.88,0-1.55.2-1.55.84a.6.6,0,0,0,.65.64.92.92,0,0,0,.87-.61,1.36,1.36,0,0,0,0-.29Z" transform="translate(-147.45 -101.25)"/><path class="cls-3" d="M230.71,209.23a4.18,4.18,0,0,0,1.84.46c.77,0,1.17-.32,1.17-.8s-.35-.72-1.23-1c-1.23-.42-2-1.1-2-2.18,0-1.25,1-2.22,2.79-2.22a4.47,4.47,0,0,1,1.89.38l-.38,1.34a3.51,3.51,0,0,0-1.54-.35c-.72,0-1.07.33-1.07.71s.42.68,1.37,1c1.3.48,1.91,1.16,1.91,2.2,0,1.24-1,2.29-3,2.29a4.77,4.77,0,0,1-2.09-.45Z" transform="translate(-147.45 -101.25)"/><path class="cls-3" d="M241.55,209.23c0,.7,0,1.27,0,1.72h-1.44l-.08-.76h0a1.91,1.91,0,0,1-1.67.88c-1.09,0-1.88-.68-1.88-2.33V205.6h1.67v2.88c0,.77.25,1.24.83,1.24a.88.88,0,0,0,.83-.58.83.83,0,0,0,.06-.36V205.6h1.67Z" transform="translate(-147.45 -101.25)"/><path class="cls-3" d="M244.61,204.11a.83.83,0,0,1-.9.83.84.84,0,1,1,0-1.67.83.83,0,0,1,.89.84m-1.72,1.49h1.66V211h-1.66Z" transform="translate(-147.45 -101.25)"/><path class="cls-3" d="M245.46,210l1.69-2.12c.3-.36.54-.62.85-.95v0h-2.35V205.6H250v1l-1.61,2a10.45,10.45,0,0,1-.87,1v0h2.57V211h-4.65Z" transform="translate(-147.45 -101.25)"/><path class="cls-3" d="M254.06,211l-.09-.54h0a1.91,1.91,0,0,1-1.53.66,1.64,1.64,0,0,1-1.73-1.64c0-1.39,1.25-2.06,3.14-2.05v-.08c0-.28-.15-.68-1-.68a3,3,0,0,0-1.48.4l-.3-1.07a4.36,4.36,0,0,1,2.07-.47,2.08,2.08,0,0,1,2.36,2.31v1.86a9.11,9.11,0,0,0,.07,1.3Zm-.19-2.53c-.88,0-1.56.2-1.56.84a.6.6,0,0,0,.66.64.91.91,0,0,0,.86-.61.92.92,0,0,0,0-.29Z" transform="translate(-147.45 -101.25)"/><path class="cls-3" d="M259,207.39c0-.7,0-1.3,0-1.79h1.44l.08.74h0a2.06,2.06,0,0,1,1.79-.86c1.17,0,2.22,1,2.22,2.72,0,2-1.24,2.87-2.43,2.87a1.65,1.65,0,0,1-1.39-.61h0v2.65H259Zm1.67,1.26a1.83,1.83,0,0,0,0,.35,1,1,0,0,0,1,.79c.73,0,1.15-.6,1.15-1.51s-.38-1.5-1.12-1.5a1,1,0,0,0-1,.84,1.45,1.45,0,0,0,0,.3Z" transform="translate(-147.45 -101.25)"/><path class="cls-3" d="M268.6,211l-.1-.54h0a1.92,1.92,0,0,1-1.53.66,1.64,1.64,0,0,1-1.73-1.64c0-1.39,1.25-2.06,3.14-2.05v-.08c0-.28-.15-.68-1-.68a3,3,0,0,0-1.47.4l-.31-1.07a4.4,4.4,0,0,1,2.08-.47,2.08,2.08,0,0,1,2.35,2.31v1.86a7.67,7.67,0,0,0,.08,1.3Zm-.2-2.53c-.87,0-1.55.2-1.55.84a.6.6,0,0,0,.66.64.92.92,0,0,0,.86-.61,1.36,1.36,0,0,0,0-.29Z" transform="translate(-147.45 -101.25)"/><path class="cls-3" d="M271.34,207.36c0-.79,0-1.3,0-1.76h1.44l0,1h.05a1.57,1.57,0,0,1,1.44-1.1,1.89,1.89,0,0,1,.35,0v1.56a2.58,2.58,0,0,0-.45,0,1.08,1.08,0,0,0-1.14.84,2.13,2.13,0,0,0,0,.37V211h-1.66Z" transform="translate(-147.45 -101.25)"/><path class="cls-3" d="M278.42,211l-.1-.54h0a1.92,1.92,0,0,1-1.53.66,1.64,1.64,0,0,1-1.73-1.64c0-1.39,1.24-2.06,3.14-2.05v-.08c0-.28-.16-.68-1-.68a3,3,0,0,0-1.47.4l-.31-1.07a4.37,4.37,0,0,1,2.08-.47,2.08,2.08,0,0,1,2.35,2.31v1.86a7.67,7.67,0,0,0,.08,1.3Zm-.2-2.53c-.87,0-1.55.2-1.55.84a.6.6,0,0,0,.65.64.92.92,0,0,0,.87-.61,1.36,1.36,0,0,0,0-.29Z" transform="translate(-147.45 -101.25)"/><path class="cls-3" d="M284.65,208.8c.05.69.73,1,1.51,1a4.69,4.69,0,0,0,1.47-.22l.22,1.13a5.2,5.2,0,0,1-1.93.33,2.57,2.57,0,0,1-2.86-2.73,2.68,2.68,0,0,1,2.7-2.85,2.37,2.37,0,0,1,2.39,2.67,3.09,3.09,0,0,1-.06.65Zm2-1.13a1,1,0,0,0-.94-1.09,1.1,1.1,0,0,0-1,1.09Z" transform="translate(-147.45 -101.25)"/><rect class="cls-3" x="141.7" y="101.93" width="1.66" height="7.77"/><path class="cls-3" d="M294.42,203.67a14.9,14.9,0,0,1,2.26-.15,4.72,4.72,0,0,1,3,.79,3.27,3.27,0,0,1,1.24,2.78,3.73,3.73,0,0,1-1.22,3,5.27,5.27,0,0,1-3.4,1,13.64,13.64,0,0,1-1.9-.11Zm1.68,6a3.33,3.33,0,0,0,.58,0,2.28,2.28,0,0,0,2.49-2.58,2.11,2.11,0,0,0-2.32-2.34,3.72,3.72,0,0,0-.75.06Z" transform="translate(-147.45 -101.25)"/><path class="cls-3" d="M303.27,208.8c.05.69.73,1,1.51,1a4.73,4.73,0,0,0,1.47-.22l.22,1.13a5.2,5.2,0,0,1-1.93.33,2.57,2.57,0,0,1-2.86-2.73,2.68,2.68,0,0,1,2.7-2.85,2.37,2.37,0,0,1,2.39,2.67,4,4,0,0,1-.06.65Zm2-1.13a1,1,0,0,0-1-1.09,1.09,1.09,0,0,0-1,1.09Z" transform="translate(-147.45 -101.25)"/><path class="cls-3" d="M307.76,209.49a3.17,3.17,0,0,0,1.43.41c.5,0,.71-.18.71-.45s-.16-.41-.79-.61c-1.1-.38-1.53-1-1.52-1.61,0-1,.86-1.75,2.18-1.75a3.69,3.69,0,0,1,1.51.3l-.3,1.15a2.65,2.65,0,0,0-1.16-.3c-.4,0-.63.16-.63.43s.21.39.86.62c1,.35,1.45.86,1.46,1.65,0,1-.79,1.73-2.32,1.73a3.93,3.93,0,0,1-1.73-.37Z" transform="translate(-147.45 -101.25)"/><path class="cls-3" d="M315.56,211l-.1-.54h0a1.92,1.92,0,0,1-1.53.66,1.64,1.64,0,0,1-1.73-1.64c0-1.39,1.24-2.06,3.14-2.05v-.08c0-.28-.16-.68-1-.68a3,3,0,0,0-1.47.4l-.31-1.07a4.4,4.4,0,0,1,2.08-.47,2.08,2.08,0,0,1,2.35,2.31v1.86a7.67,7.67,0,0,0,.08,1.3Zm-.2-2.53c-.87,0-1.55.2-1.55.84a.6.6,0,0,0,.66.64.92.92,0,0,0,.86-.61,1.36,1.36,0,0,0,0-.29Z" transform="translate(-147.45 -101.25)"/><path class="cls-3" d="M318.3,207.36c0-.79,0-1.3-.05-1.76h1.44l.05,1h0a1.58,1.58,0,0,1,1.45-1.1,1.89,1.89,0,0,1,.35,0v1.56a2.58,2.58,0,0,0-.45,0,1.08,1.08,0,0,0-1.14.84,2.13,2.13,0,0,0,0,.37V211H318.3Z" transform="translate(-147.45 -101.25)"/><path class="cls-3" d="M322.46,207.36c0-.79,0-1.3,0-1.76h1.44l0,1h0a1.58,1.58,0,0,1,1.45-1.1,1.89,1.89,0,0,1,.35,0v1.56a2.58,2.58,0,0,0-.45,0,1.08,1.08,0,0,0-1.14.84,2.13,2.13,0,0,0,0,.37V211h-1.66Z" transform="translate(-147.45 -101.25)"/><path class="cls-3" d="M331.81,208.21a2.69,2.69,0,0,1-2.82,2.86,2.63,2.63,0,0,1-2.77-2.76,2.67,2.67,0,0,1,2.86-2.83,2.59,2.59,0,0,1,2.73,2.73m-3.87.06c0,.92.38,1.61,1.09,1.61s1.07-.65,1.07-1.61c0-.8-.31-1.61-1.07-1.61s-1.09.82-1.09,1.61" transform="translate(-147.45 -101.25)"/><rect class="cls-3" x="185.4" y="101.93" width="1.66" height="7.77"/><rect class="cls-3" x="188.41" y="101.93" width="1.66" height="7.77"/><path class="cls-3" d="M344.15,208.21a2.69,2.69,0,0,1-2.82,2.86,2.62,2.62,0,0,1-2.77-2.76,2.67,2.67,0,0,1,2.85-2.83,2.6,2.6,0,0,1,2.74,2.73m-3.87.06c0,.92.38,1.61,1.09,1.61s1.06-.65,1.06-1.61c0-.8-.3-1.61-1.06-1.61s-1.09.82-1.09,1.61" transform="translate(-147.45 -101.25)"/><path class="cls-3" d="M191.14,219.19l.8,2.62c.09.32.2.72.26,1h0c.07-.28.16-.69.24-1l.66-2.62h1.78l-1.25,3.52c-.76,2.12-1.28,3-1.88,3.51a3.07,3.07,0,0,1-1.61.74l-.35-1.41a2.31,2.31,0,0,0,.72-.29,1.84,1.84,0,0,0,.69-.67.38.38,0,0,0,.09-.24.57.57,0,0,0-.08-.27l-2-4.89Z" transform="translate(-147.45 -101.25)"/><rect class="cls-3" x="50.39" y="115.52" width="1.66" height="7.77"/><path class="cls-3" d="M203.88,224.54l-.09-.54h0a1.91,1.91,0,0,1-1.53.66,1.64,1.64,0,0,1-1.73-1.64c0-1.39,1.25-2.06,3.14-2.05v-.07c0-.29-.15-.69-1-.69a3,3,0,0,0-1.48.4l-.3-1.07a4.36,4.36,0,0,1,2.07-.47,2.08,2.08,0,0,1,2.36,2.31v1.86a9.11,9.11,0,0,0,.07,1.3Zm-.19-2.53c-.88,0-1.56.2-1.56.84a.6.6,0,0,0,.66.64.89.89,0,0,0,.86-.61.92.92,0,0,0,0-.29Z" transform="translate(-147.45 -101.25)"/><path class="cls-3" d="M214.3,224.33a4.75,4.75,0,0,1-1.89.32,3.51,3.51,0,0,1-3.86-3.69,3.76,3.76,0,0,1,4-3.91,4.39,4.39,0,0,1,1.81.32l-.34,1.33a3.46,3.46,0,0,0-1.4-.28,2.43,2.43,0,0,0,0,4.85,4.18,4.18,0,0,0,1.39-.24Z" transform="translate(-147.45 -101.25)"/><path class="cls-3" d="M220.42,221.8a2.69,2.69,0,0,1-2.82,2.86,2.63,2.63,0,0,1-2.77-2.76,2.67,2.67,0,0,1,2.86-2.83,2.6,2.6,0,0,1,2.73,2.73m-3.87.06c0,.92.38,1.61,1.09,1.61s1.07-.65,1.07-1.61c0-.8-.31-1.61-1.07-1.61s-1.09.82-1.09,1.61" transform="translate(-147.45 -101.25)"/><path class="cls-3" d="M226.77,221.8a2.69,2.69,0,0,1-2.82,2.86,2.62,2.62,0,0,1-2.77-2.76,2.67,2.67,0,0,1,2.86-2.83,2.6,2.6,0,0,1,2.73,2.73m-3.87.06c0,.92.38,1.61,1.09,1.61s1.06-.65,1.06-1.61c0-.8-.3-1.61-1.06-1.61s-1.09.82-1.09,1.61" transform="translate(-147.45 -101.25)"/><path class="cls-3" d="M227.8,221c0-.7,0-1.3,0-1.79h1.44l.08.74h0a2.06,2.06,0,0,1,1.79-.86c1.17,0,2.22,1,2.22,2.72,0,2-1.24,2.87-2.43,2.87a1.65,1.65,0,0,1-1.39-.61h0v2.66H227.8Zm1.67,1.26a1.83,1.83,0,0,0,0,.35,1,1,0,0,0,1,.79c.72,0,1.15-.6,1.15-1.51s-.38-1.5-1.13-1.5a1,1,0,0,0-1,.84,1.45,1.45,0,0,0,0,.3Z" transform="translate(-147.45 -101.25)"/><path class="cls-3" d="M235.66,222.39c.06.69.74,1,1.51,1a4.52,4.52,0,0,0,1.48-.22l.22,1.13a5.29,5.29,0,0,1-1.94.33,2.57,2.57,0,0,1-2.85-2.73,2.68,2.68,0,0,1,2.7-2.85,2.37,2.37,0,0,1,2.38,2.67,4.26,4.26,0,0,1,0,.65Zm2-1.13a1,1,0,0,0-.94-1.09,1.1,1.1,0,0,0-1,1.09Z" transform="translate(-147.45 -101.25)"/><path class="cls-3" d="M240.16,221c0-.79,0-1.3,0-1.76h1.43l.06,1h0a1.57,1.57,0,0,1,1.44-1.1,1.83,1.83,0,0,1,.35,0v1.56a2.58,2.58,0,0,0-.45,0,1.06,1.06,0,0,0-1.13.84,1.48,1.48,0,0,0,0,.38v2.71h-1.66Z" transform="translate(-147.45 -101.25)"/><path class="cls-3" d="M247.24,224.54l-.1-.54h0a1.92,1.92,0,0,1-1.53.66,1.64,1.64,0,0,1-1.73-1.64c0-1.39,1.25-2.06,3.14-2.05v-.07c0-.29-.15-.69-1-.69a3,3,0,0,0-1.48.4l-.31-1.07a4.44,4.44,0,0,1,2.08-.47,2.08,2.08,0,0,1,2.35,2.31v1.86a8.89,8.89,0,0,0,.08,1.3Zm-.19-2.53c-.88,0-1.56.2-1.56.84a.6.6,0,0,0,.66.64.91.91,0,0,0,.86-.61,1.35,1.35,0,0,0,0-.29Z" transform="translate(-147.45 -101.25)"/><path class="cls-3" d="M254,224.41a4.14,4.14,0,0,1-1.49.24,2.6,2.6,0,0,1-2.84-2.74,2.8,2.8,0,0,1,3.07-2.84,3.88,3.88,0,0,1,1.27.21l-.27,1.23a2.39,2.39,0,0,0-.93-.16,1.38,1.38,0,0,0-1.43,1.5,1.4,1.4,0,0,0,1.47,1.5,2.52,2.52,0,0,0,1-.17Z" transform="translate(-147.45 -101.25)"/><path class="cls-3" d="M256.64,217.7a.83.83,0,0,1-.9.83.84.84,0,1,1,0-1.67.84.84,0,0,1,.89.84m-1.72,1.49h1.66v5.35h-1.66Z" transform="translate(-147.45 -101.25)"/><path class="cls-3" d="M263.2,221.8a2.69,2.69,0,0,1-2.82,2.86,2.62,2.62,0,0,1-2.77-2.76,2.67,2.67,0,0,1,2.85-2.83,2.6,2.6,0,0,1,2.74,2.73m-3.87.06c0,.92.38,1.61,1.09,1.61s1.06-.65,1.06-1.61c0-.8-.3-1.61-1.06-1.61s-1.09.82-1.09,1.61m2.82-5-1.33,1.66h-1.15l.94-1.66Z" transform="translate(-147.45 -101.25)"/><path class="cls-3" d="M264.23,220.9c0-.67,0-1.24,0-1.71h1.44l.08.73h0a2,2,0,0,1,1.65-.85c1.1,0,1.92.72,1.92,2.3v3.17h-1.66v-3c0-.69-.24-1.16-.85-1.16a.89.89,0,0,0-.84.63,1.22,1.22,0,0,0-.06.41v3.09h-1.67Z" transform="translate(-147.45 -101.25)"/><path class="cls-3" d="M278.33,224.33a4.83,4.83,0,0,1-1.89.32,3.52,3.52,0,0,1-3.87-3.69,3.76,3.76,0,0,1,4-3.91,4.49,4.49,0,0,1,1.82.32l-.34,1.33a3.46,3.46,0,0,0-1.4-.28,2.43,2.43,0,0,0,0,4.85,4.23,4.23,0,0,0,1.39-.24Z" transform="translate(-147.45 -101.25)"/><path class="cls-3" d="M285.85,220.78c0,2.41-1.47,3.88-3.62,3.88a3.44,3.44,0,0,1-3.47-3.75,3.57,3.57,0,0,1,3.59-3.86,3.44,3.44,0,0,1,3.5,3.73m-5.33.09c0,1.45.68,2.47,1.8,2.47s1.77-1.08,1.77-2.51-.64-2.46-1.79-2.46-1.78,1.07-1.78,2.5" transform="translate(-147.45 -101.25)"/><path class="cls-3" d="M287,222.82a4.27,4.27,0,0,0,1.85.46c.76,0,1.17-.32,1.17-.8s-.35-.72-1.24-1c-1.22-.42-2-1.1-2-2.17,0-1.26,1.05-2.22,2.79-2.22a4.48,4.48,0,0,1,1.88.37l-.37,1.34a3.55,3.55,0,0,0-1.54-.35c-.73,0-1.08.33-1.08.71s.42.68,1.37,1c1.3.48,1.92,1.16,1.92,2.2,0,1.24-1,2.29-3,2.29a4.85,4.85,0,0,1-2.09-.45Z" transform="translate(-147.45 -101.25)"/><path class="cls-3" d="M294.52,217.17v4.24c0,1.27.48,1.91,1.33,1.91s1.36-.61,1.36-1.91v-4.24h1.66v4.13c0,2.28-1.15,3.36-3.07,3.36s-2.95-1-2.95-3.38v-4.11Z" transform="translate(-147.45 -101.25)"/><path class="cls-3" d="M300.32,217.26a16.1,16.1,0,0,1,2.26-.15,4.74,4.74,0,0,1,3,.79,3.28,3.28,0,0,1,1.24,2.78,3.73,3.73,0,0,1-1.22,3,5.29,5.29,0,0,1-3.41,1,15.37,15.37,0,0,1-1.89-.11Zm1.68,6a3.33,3.33,0,0,0,.58,0,2.28,2.28,0,0,0,2.49-2.58,2.12,2.12,0,0,0-2.32-2.34,3,3,0,0,0-.75.07Z" transform="translate(-147.45 -101.25)"/><polygon class="cls-3" points="164.88 120.17 162.17 120.17 162.17 121.92 165.2 121.92 165.2 123.28 160.5 123.28 160.5 115.91 165.05 115.91 165.05 117.28 162.17 117.28 162.17 118.81 164.88 118.81 164.88 120.17"/><polygon class="cls-3" points="45.58 77.34 42.87 77.34 42.87 79.09 45.9 79.09 45.9 80.46 41.2 80.46 41.2 73.09 45.75 73.09 45.75 74.45 42.87 74.45 42.87 75.99 45.58 75.99 45.58 77.34"/><path class="cls-3" d="M194.43,178.07c0-.66,0-1.23,0-1.7h1.4l.08.72h0a1.85,1.85,0,0,1,1.62-.84,1.51,1.51,0,0,1,1.46.9h0a2.2,2.2,0,0,1,.69-.64,1.85,1.85,0,0,1,1-.26c1,0,1.81.72,1.81,2.31v3.16H200.9v-2.91c0-.78-.25-1.23-.79-1.23a.8.8,0,0,0-.76.58,1.25,1.25,0,0,0-.07.43v3.13h-1.62v-3c0-.68-.24-1.14-.77-1.14a.85.85,0,0,0-.77.6,1,1,0,0,0-.07.42v3.12h-1.62Z" transform="translate(-147.45 -101.25)"/><path class="cls-3" d="M203.8,181.72c0-.35,0-1,0-1.6V174h1.66V177h0a1.89,1.89,0,0,1,1.62-.75c1.28,0,2.22,1.06,2.21,2.7,0,1.92-1.22,2.89-2.45,2.89a1.77,1.77,0,0,1-1.61-.87h0l-.07.75Zm1.71-2.28a1.39,1.39,0,0,0,0,.3,1,1,0,0,0,1,.78c.71,0,1.15-.54,1.15-1.51s-.38-1.48-1.15-1.48a1,1,0,0,0-1,.82,1.39,1.39,0,0,0,0,.3Z" transform="translate(-147.45 -101.25)"/><path class="cls-3" d="M213.43,181.72l-.09-.54h0a1.91,1.91,0,0,1-1.53.66A1.64,1.64,0,0,1,210,180.2c0-1.39,1.25-2.06,3.14-2v-.08c0-.28-.15-.69-1-.69a3,3,0,0,0-1.48.41l-.3-1.07a4.36,4.36,0,0,1,2.07-.47,2.08,2.08,0,0,1,2.36,2.3v1.86a9.17,9.17,0,0,0,.07,1.31Zm-.19-2.53c-.88,0-1.56.2-1.56.84a.6.6,0,0,0,.66.64.89.89,0,0,0,.86-.62.82.82,0,0,0,0-.28Z" transform="translate(-147.45 -101.25)"/><path class="cls-3" d="M215.07,182.7a1.46,1.46,0,0,0,1-.35c.24-.25.33-.68.33-1.74v-4.24h1.67V181a2.52,2.52,0,0,1-2.82,3Zm3-7.82a.83.83,0,0,1-.9.83.84.84,0,1,1,.9-.83" transform="translate(-147.45 -101.25)"/><path class="cls-3" d="M222.4,181.72l-.1-.54h0a1.92,1.92,0,0,1-1.53.66A1.64,1.64,0,0,1,219,180.2c0-1.39,1.24-2.06,3.14-2v-.08c0-.28-.16-.69-1-.69a3,3,0,0,0-1.47.41l-.31-1.07a4.4,4.4,0,0,1,2.08-.47,2.08,2.08,0,0,1,2.35,2.3v1.86a7.73,7.73,0,0,0,.08,1.31Zm-.2-2.53c-.87,0-1.55.2-1.55.84a.6.6,0,0,0,.66.64.91.91,0,0,0,.86-.62,1.2,1.2,0,0,0,0-.28Z" transform="translate(-147.45 -101.25)"/><path class="cls-3" d="M230.32,174v6.17c0,.6,0,1.24.05,1.6h-1.48l-.08-.79h0a1.87,1.87,0,0,1-1.67.91,2.46,2.46,0,0,1-2.29-2.75,2.53,2.53,0,0,1,2.4-2.84,1.64,1.64,0,0,1,1.41.6h0V174Zm-1.66,4.68a2.64,2.64,0,0,0,0-.29,1,1,0,0,0-1-.83c-.75,0-1.14.68-1.14,1.53s.44,1.47,1.13,1.47a1,1,0,0,0,1-.8,1.53,1.53,0,0,0,0-.38Z" transform="translate(-147.45 -101.25)"/><path class="cls-3" d="M234.7,181.72l-.1-.54h0a1.92,1.92,0,0,1-1.53.66,1.64,1.64,0,0,1-1.73-1.64c0-1.39,1.25-2.06,3.14-2v-.08c0-.28-.15-.69-1-.69a3,3,0,0,0-1.48.41l-.31-1.07a4.44,4.44,0,0,1,2.08-.47,2.07,2.07,0,0,1,2.35,2.3v1.86a8.94,8.94,0,0,0,.08,1.31Zm-.19-2.53c-.88,0-1.56.2-1.56.84a.6.6,0,0,0,.66.64.91.91,0,0,0,.86-.62,1.18,1.18,0,0,0,0-.28Z" transform="translate(-147.45 -101.25)"/><path class="cls-3" d="M244.84,174v6.17c0,.6,0,1.24,0,1.6h-1.47l-.08-.79h0a1.88,1.88,0,0,1-1.68.91c-1.27,0-2.28-1.09-2.28-2.75a2.52,2.52,0,0,1,2.39-2.84,1.63,1.63,0,0,1,1.41.6h0V174Zm-1.66,4.68a2.58,2.58,0,0,0,0-.29,1,1,0,0,0-1-.83c-.76,0-1.15.68-1.15,1.53s.45,1.47,1.14,1.47a1,1,0,0,0,1-.8,1.52,1.52,0,0,0,.05-.38Z" transform="translate(-147.45 -101.25)"/><path class="cls-3" d="M247.46,179.57c0,.69.73,1,1.51,1a4.78,4.78,0,0,0,1.47-.22l.22,1.13a5.26,5.26,0,0,1-1.94.33,2.57,2.57,0,0,1-2.85-2.73,2.67,2.67,0,0,1,2.7-2.85,2.37,2.37,0,0,1,2.39,2.67,4,4,0,0,1-.06.65Zm1.95-1.14a1,1,0,0,0-.94-1.08,1.1,1.1,0,0,0-1,1.08Z" transform="translate(-147.45 -101.25)"/><path class="cls-3" d="M254.28,180a4.18,4.18,0,0,0,1.84.46c.77,0,1.18-.32,1.18-.8s-.35-.72-1.24-1c-1.23-.43-2-1.11-2-2.18,0-1.26,1.06-2.22,2.79-2.22a4.66,4.66,0,0,1,1.89.37l-.38,1.35a3.51,3.51,0,0,0-1.54-.35c-.72,0-1.07.33-1.07.71s.42.68,1.37,1c1.3.48,1.91,1.16,1.91,2.2,0,1.24-.95,2.29-3,2.29a4.77,4.77,0,0,1-2.09-.45Z" transform="translate(-147.45 -101.25)"/><path class="cls-3" d="M265.12,180c0,.7,0,1.27,0,1.72h-1.44l-.08-.76h0a1.91,1.91,0,0,1-1.67.88c-1.08,0-1.88-.68-1.88-2.33v-3.14h1.67v2.87c0,.78.25,1.25.83,1.25a.9.9,0,0,0,.83-.58.83.83,0,0,0,.06-.36v-3.18h1.67Z" transform="translate(-147.45 -101.25)"/><path class="cls-3" d="M268.18,174.88a.83.83,0,0,1-.9.83.84.84,0,1,1,0-1.67.83.83,0,0,1,.89.84m-1.72,1.49h1.66v5.35h-1.66Z" transform="translate(-147.45 -101.25)"/><path class="cls-3" d="M269,180.76l1.69-2.11c.3-.36.54-.62.85-1v0h-2.35v-1.31h4.37v1l-1.6,2c-.3.35-.57.68-.88,1v0h2.57v1.33H269Z" transform="translate(-147.45 -101.25)"/><path class="cls-3" d="M277.63,181.72l-.1-.54h0a1.92,1.92,0,0,1-1.53.66,1.64,1.64,0,0,1-1.73-1.64c0-1.39,1.25-2.06,3.14-2v-.08c0-.28-.15-.69-1-.69a3,3,0,0,0-1.48.41l-.31-1.07a4.44,4.44,0,0,1,2.08-.47,2.08,2.08,0,0,1,2.36,2.3v1.86a9.17,9.17,0,0,0,.07,1.31Zm-.19-2.53c-.88,0-1.56.2-1.56.84a.6.6,0,0,0,.66.64.91.91,0,0,0,.86-.62.82.82,0,0,0,0-.28Z" transform="translate(-147.45 -101.25)"/><path class="cls-3" d="M283.86,179.57c.06.69.73,1,1.51,1a4.8,4.8,0,0,0,1.48-.22l.22,1.13a5.29,5.29,0,0,1-1.94.33,2.56,2.56,0,0,1-2.85-2.73,2.67,2.67,0,0,1,2.7-2.85,2.37,2.37,0,0,1,2.38,2.67,4.26,4.26,0,0,1-.05.65Zm2-1.14a1,1,0,0,0-.94-1.08,1.09,1.09,0,0,0-1,1.08Z" transform="translate(-147.45 -101.25)"/><path class="cls-3" d="M288.36,178.07c0-.66,0-1.23,0-1.7h1.44l.08.73h0a2,2,0,0,1,1.65-.85c1.1,0,1.92.72,1.92,2.29v3.18h-1.66v-3c0-.69-.24-1.16-.85-1.16a.89.89,0,0,0-.84.63,1.18,1.18,0,0,0-.06.41v3.09h-1.67Z" transform="translate(-147.45 -101.25)"/><path class="cls-3" d="M298.27,179.57c.05.69.73,1,1.51,1a4.8,4.8,0,0,0,1.48-.22l.21,1.13a5.2,5.2,0,0,1-1.93.33,2.57,2.57,0,0,1-2.86-2.73,2.67,2.67,0,0,1,2.7-2.85,2.37,2.37,0,0,1,2.39,2.67,3.09,3.09,0,0,1-.06.65Zm2-1.14a1,1,0,0,0-.94-1.08,1.09,1.09,0,0,0-1,1.08Z" transform="translate(-147.45 -101.25)"/><rect class="cls-3" x="155.32" y="72.69" width="1.66" height="7.77"/><path class="cls-3" d="M308,174.44a13.57,13.57,0,0,1,2.26-.15,3.48,3.48,0,0,1,2.25.59,2.15,2.15,0,0,1,.79,1.7,2.36,2.36,0,0,1-.68,1.76,3.45,3.45,0,0,1-2.4.77,4.5,4.5,0,0,1-.56,0v2.64H308Zm1.66,3.35a2.69,2.69,0,0,0,.55,0c.89,0,1.44-.45,1.44-1.2s-.47-1.08-1.31-1.08a3.06,3.06,0,0,0-.68.06Z" transform="translate(-147.45 -101.25)"/><path class="cls-3" d="M315.37,179.57c.05.69.73,1,1.51,1a4.78,4.78,0,0,0,1.47-.22l.22,1.13a5.22,5.22,0,0,1-1.94.33,2.57,2.57,0,0,1-2.85-2.73,2.67,2.67,0,0,1,2.7-2.85,2.37,2.37,0,0,1,2.39,2.67,4,4,0,0,1-.06.65Zm1.95-1.14a1,1,0,0,0-.94-1.08,1.1,1.1,0,0,0-1,1.08Z" transform="translate(-147.45 -101.25)"/><path class="cls-3" d="M319.86,178.13c0-.79,0-1.3,0-1.76h1.43l.06,1h0a1.57,1.57,0,0,1,1.45-1.1,1.89,1.89,0,0,1,.35,0v1.56a2.68,2.68,0,0,0-.45,0,1.08,1.08,0,0,0-1.14.84,2.13,2.13,0,0,0,0,.37v2.72h-1.67Z" transform="translate(-147.45 -101.25)"/><path class="cls-3" d="M329,180c0,.7,0,1.27,0,1.72h-1.44l-.08-.76h0a1.91,1.91,0,0,1-1.68.88c-1.08,0-1.88-.68-1.88-2.33v-3.14h1.68v2.87c0,.78.25,1.25.83,1.25a.9.9,0,0,0,.83-.58,1,1,0,0,0,.05-.36v-3.18H329Zm-.73-6L327,175.7h-1.15l.94-1.66Z" transform="translate(-147.45 -101.25)"/></g></g></svg>