<svg id="Layer_1" data-name="Layer 1" xmlns="http://www.w3.org/2000/svg" xmlns:xlink="http://www.w3.org/1999/xlink" viewBox="0 0 149.56 85.97"><defs><style>.cls-1{fill:none;}.cls-2{clip-path:url(#clip-path);}.cls-3{fill:#d1d3d4;}.cls-4{fill:#fff;}.cls-5{fill:#c92c99;}.cls-6{fill:#1c2429;}.cls-7{fill:#3d61a9;}</style><clipPath id="clip-path" transform="translate(-133.01 -595.54)"><rect id="SVGID" class="cls-1" x="130.17" y="583.67" width="155.15" height="109.7"/></clipPath></defs><title>gcc</title><g class="cls-2"><polygon class="cls-3" points="149.56 85.97 11.58 85.97 0 70.81 131.86 0 149.56 22.87 149.56 85.97"/><rect class="cls-4" width="131.86" height="62.81"/><rect class="cls-5" y="61.68" width="131.86" height="9.14"/><g class="cls-2"><path class="cls-6" d="M149.22,619.27H153V624c0,2.3-1.53,2.44-3.62,2.44-3.5,0-4.38-1.94-4.38-6.37s.88-6.38,4.38-6.38a14.32,14.32,0,0,1,3.39.37l-.19,2a15.62,15.62,0,0,0-2.8-.22c-2.54,0-2.59,1.81-2.59,4.27s.05,4.27,2.58,4.27c1.1,0,1.2-.39,1.2-1.09v-2h-1.73Z" transform="translate(-133.01 -595.54)"/><path class="cls-6" d="M154,621.49c0-3.47.92-4.9,3.62-4.9,2.95,0,3.56,1.82,3.56,4.71,0,.26,0,.51,0,.77a32.35,32.35,0,0,1-3.82.48l-1.33.08c.07,1.49.74,1.85,1.91,1.85a18.69,18.69,0,0,0,2.91-.25L161,626a17.81,17.81,0,0,1-3.53.36c-2.75,0-3.46-2.07-3.46-4.9m3.33-.57c.52,0,1.34-.11,1.81-.19a2.42,2.42,0,0,0,0-.38c0-1.26-.39-1.94-1.54-1.94-1.48,0-1.68,1.09-1.68,2.59Z" transform="translate(-133.01 -595.54)"/><path class="cls-6" d="M164.13,619.26c0,.84.84,1,1.5,1.25,1.35.54,2.47.86,2.47,3s-1.4,2.89-3.18,2.89A10.57,10.57,0,0,1,162,626l.19-1.77a12.62,12.62,0,0,0,2.21.29c.61,0,1.63,0,1.63-.92s-.72-1-1.39-1.23c-1.26-.46-2.54-.93-2.54-3s1.27-2.77,2.89-2.77a10.51,10.51,0,0,1,3,.39l-.2,1.74a8.9,8.9,0,0,0-2-.28c-.64,0-1.61,0-1.61.82" transform="translate(-133.01 -595.54)"/><path class="cls-6" d="M172,614v2.69h1.62v1.81H172v4.94c0,.79.28,1.1,1,1.1l.68,0,.15,1.7a7.21,7.21,0,0,1-1.38.16c-1.7,0-2.42-.88-2.42-2.69v-5.18h-1.32v-1.81H170V614.4Z" transform="translate(-133.01 -595.54)"/><path class="cls-6" d="M174.51,614.24c0-1,.29-1.34,1.19-1.34s1.19.35,1.19,1.34-.28,1.35-1.19,1.35-1.19-.36-1.19-1.35m.18,2.47h2v9.55h-2Z" transform="translate(-133.01 -595.54)"/><path class="cls-6" d="M177.92,621.49c0-3.56,1-4.9,3.62-4.9s3.62,1.38,3.62,4.9-.95,4.9-3.62,4.9-3.62-1.33-3.62-4.9m5.23,0c0-2.31-.33-3-1.61-3s-1.6.6-1.6,3,.33,3,1.6,3,1.61-.66,1.61-3m-1.3-8.92h2.08L182,615.44h-1.55Z" transform="translate(-133.01 -595.54)"/><path class="cls-6" d="M188.34,626.26h-2v-7c0-.65,0-1.2.07-1.81a6.84,6.84,0,0,1,3.62-.88c2.91,0,3.22,1.53,3.22,3.59v6.08h-2V620.4c0-1.35-.21-1.91-1.6-1.91a2.81,2.81,0,0,0-1.25.26c0,.38,0,.85,0,1.28Z" transform="translate(-133.01 -595.54)"/><path class="cls-6" d="M202.7,613h2V623.7c0,.64,0,1.2-.07,1.81a5.89,5.89,0,0,1-3.25.88c-2.7,0-3.83-1.15-3.83-4.9s1.1-4.9,3.59-4.9a6.71,6.71,0,0,1,1.54.2Zm-1.13,5.43c-1.93,0-2,1.29-2,3,0,1.56.08,3,1.81,3a2.81,2.81,0,0,0,1.25-.26c0-.38,0-.85,0-1.28v-4.32a3.64,3.64,0,0,0-1.13-.21" transform="translate(-133.01 -595.54)"/><path class="cls-6" d="M205.85,621.49c0-3.47.92-4.9,3.63-4.9,3,0,3.56,1.82,3.56,4.71,0,.26,0,.51,0,.77a32.53,32.53,0,0,1-3.83.48l-1.33.08c.07,1.49.75,1.85,1.91,1.85a18.82,18.82,0,0,0,2.92-.25l.17,1.8a18,18,0,0,1-3.54.36c-2.74,0-3.46-2.07-3.46-4.9m3.33-.57c.53,0,1.35-.11,1.82-.19,0-.11,0-.27,0-.38,0-1.26-.4-1.94-1.54-1.94-1.49,0-1.69,1.09-1.69,2.59Z" transform="translate(-133.01 -595.54)"/><path class="cls-6" d="M214.06,613h2v10.63a3.66,3.66,0,0,0,.56,2.09l-1.78,1a4.65,4.65,0,0,1-.8-2.91Z" transform="translate(-133.01 -595.54)"/><path class="cls-6" d="M150.68,641.71a9.21,9.21,0,0,1-2.65.36c-2.71,0-3.13-2.43-3.13-5,0-3.13.62-4.82,3.6-4.82a6.23,6.23,0,0,1,2.16.37l-.16,1.75a6.15,6.15,0,0,0-1.47-.22c-1.89,0-2.09.66-2.09,2.92s.08,3.06,2.11,3.06a6.08,6.08,0,0,0,1.45-.23Z" transform="translate(-133.01 -595.54)"/><path class="cls-6" d="M151.37,639c0-1.69.62-2.74,2.23-3a18.33,18.33,0,0,1,2.59-.24c0-1.1-.43-1.6-1.48-1.6a20.58,20.58,0,0,0-2.86.25l-.16-1.77a16.25,16.25,0,0,1,3.17-.37c1.8,0,3.3.6,3.3,3.08v4c0,.65,0,1.21-.07,1.82a6.27,6.27,0,0,1-3.61.88c-2.23,0-3.11-1-3.11-3m4.82-1.73a9.46,9.46,0,0,0-1.86.22c-.71.2-1,.47-1,1.47s.5,1.27,1.38,1.27a3.19,3.19,0,0,0,1.42-.25c0-.39.05-.86.05-1.28Z" transform="translate(-133.01 -595.54)"/><path class="cls-6" d="M161.53,641.94h-2v-7c0-.65,0-1.2.07-1.81a6.59,6.59,0,0,1,3.42-.89,3.08,3.08,0,0,1,1.95.55,6.16,6.16,0,0,1,2.47-.55c2.59,0,3,1.65,3,3.6v6.08h-2v-5.86c0-1.24-.25-1.91-1.39-1.91a2.45,2.45,0,0,0-1.15.32,7.53,7.53,0,0,1,.11,1.37v6.08h-2v-5.86c0-1.22-.24-1.91-1.35-1.91a2.27,2.27,0,0,0-1,.26c0,.38-.05.85-.05,1.28Z" transform="translate(-133.01 -595.54)"/><path class="cls-6" d="M171.86,628.7h2v3.77a6.29,6.29,0,0,1,1.55-.21c2.48,0,3.59,1.21,3.59,4.91s-1.13,4.9-3.83,4.9a6,6,0,0,1-3.25-.88c-.05-.61-.07-1.17-.07-1.82Zm2,10c0,.43,0,.9,0,1.28a2.86,2.86,0,0,0,1.26.26c1.73,0,1.8-1.48,1.8-3,0-1.74,0-3-2-3a3.64,3.64,0,0,0-1.13.21Z" transform="translate(-133.01 -595.54)"/><path class="cls-6" d="M179.91,629.92c0-1,.28-1.34,1.19-1.34s1.18.35,1.18,1.34-.28,1.35-1.18,1.35-1.19-.36-1.19-1.35m.17,2.47h2v9.55h-2Z" transform="translate(-133.01 -595.54)"/><path class="cls-6" d="M183.31,637.17c0-3.57,1-4.91,3.63-4.91s3.62,1.39,3.62,4.91-1,4.9-3.62,4.9-3.63-1.33-3.63-4.9m5.24,0c0-2.32-.34-3-1.61-3s-1.6.6-1.6,3,.33,3,1.6,3,1.61-.66,1.61-3" transform="translate(-133.01 -595.54)"/><path class="cls-6" d="M200.5,641.71a9.14,9.14,0,0,1-2.64.36c-2.71,0-3.13-2.43-3.13-5,0-3.13.62-4.82,3.6-4.82a6.23,6.23,0,0,1,2.16.37l-.16,1.75a6.15,6.15,0,0,0-1.47-.22c-1.89,0-2.09.66-2.09,2.92s.08,3.06,2.11,3.06a6.16,6.16,0,0,0,1.45-.23Z" transform="translate(-133.01 -595.54)"/><path class="cls-6" d="M201.44,628.7h2v10.64a3.59,3.59,0,0,0,.57,2.09l-1.78,1a4.54,4.54,0,0,1-.81-2.9Z" transform="translate(-133.01 -595.54)"/><path class="cls-6" d="M204.77,629.92c0-1,.29-1.34,1.19-1.34s1.19.35,1.19,1.34-.28,1.35-1.19,1.35-1.19-.36-1.19-1.35m.18,2.47h2v9.55h-2Z" transform="translate(-133.01 -595.54)"/><path class="cls-6" d="M210.47,641.94h-2v-7c0-.65,0-1.2.07-1.81a6.63,6.63,0,0,1,3.43-.89,3.1,3.1,0,0,1,1.95.55,6.12,6.12,0,0,1,2.47-.55c2.58,0,3,1.65,3,3.6v6.08h-2v-5.86c0-1.24-.24-1.91-1.38-1.91a2.42,2.42,0,0,0-1.15.32,7.53,7.53,0,0,1,.11,1.37v6.08h-2v-5.86c0-1.22-.24-1.91-1.34-1.91a2.27,2.27,0,0,0-1,.26c0,.38-.05.85-.05,1.28Z" transform="translate(-133.01 -595.54)"/><path class="cls-6" d="M220.42,639c0-1.69.62-2.74,2.24-3a18.19,18.19,0,0,1,2.59-.24c0-1.1-.44-1.6-1.49-1.6a19,19,0,0,0-2.85.25l-.17-1.77a16.25,16.25,0,0,1,3.17-.37c1.8,0,3.3.6,3.3,3.08v4c0,.65,0,1.21-.07,1.82a6.23,6.23,0,0,1-3.6.88c-2.24,0-3.12-1-3.12-3m4.83-1.73a9.47,9.47,0,0,0-1.87.22c-.71.2-1,.47-1,1.47s.49,1.27,1.37,1.27a3.26,3.26,0,0,0,1.43-.25c0-.39.05-.86.05-1.28Zm-.76-6.09H223l1.41-2.87h2.08Z" transform="translate(-133.01 -595.54)"/><path class="cls-6" d="M231.32,629.7v2.69h1.62v1.81h-1.62v4.94c0,.79.28,1.1,1,1.1l.69,0,.15,1.7a7.22,7.22,0,0,1-1.39.16c-1.7,0-2.41-.88-2.41-2.69V634.2H228v-1.81h1.33v-2.31Z" transform="translate(-133.01 -595.54)"/><path class="cls-6" d="M233.81,629.92c0-1,.28-1.34,1.19-1.34s1.19.35,1.19,1.34-.29,1.35-1.19,1.35-1.19-.36-1.19-1.35m.17,2.47h2v9.55h-2Z" transform="translate(-133.01 -595.54)"/><path class="cls-6" d="M242.9,641.71a9.14,9.14,0,0,1-2.64.36c-2.71,0-3.13-2.43-3.13-5,0-3.13.62-4.82,3.6-4.82a6.23,6.23,0,0,1,2.16.37l-.16,1.75a6.15,6.15,0,0,0-1.47-.22c-1.89,0-2.09.66-2.09,2.92s.08,3.06,2.11,3.06a6.16,6.16,0,0,0,1.45-.23Z" transform="translate(-133.01 -595.54)"/><path class="cls-6" d="M243.52,637.17c0-3.57,1-4.91,3.62-4.91s3.63,1.39,3.63,4.91-1,4.9-3.63,4.9-3.62-1.33-3.62-4.9m5.23,0c0-2.32-.33-3-1.61-3s-1.6.6-1.6,3,.33,3,1.6,3,1.61-.66,1.61-3" transform="translate(-133.01 -595.54)"/><path class="cls-6" d="M145.86,607.28h-.52v-5a5.75,5.75,0,0,1,1.16-.12c.81,0,1.46.22,1.46,1.55s-.58,1.59-1.42,1.59c-.19,0-.5,0-.68,0Zm0-2.6a3.66,3.66,0,0,0,.64,0c.61,0,.95-.21.95-1s-.24-1-.93-1a4,4,0,0,0-.66.06Z" transform="translate(-133.01 -595.54)"/><path class="cls-6" d="M149,607.28v-2.93c0-.24,0-.46,0-.69a1.91,1.91,0,0,1,1.1-.32h.26l0,.55-.22,0a1.13,1.13,0,0,0-.61.16c0,.17,0,.39,0,.57v2.67Z" transform="translate(-133.01 -595.54)"/><path class="cls-6" d="M151.2,605.33c0-1.45.33-2,1.25-2s1.26.56,1.26,2-.33,2-1.26,2-1.25-.54-1.25-2m2,0c0-1.11-.17-1.45-.77-1.45s-.76.29-.76,1.45.18,1.46.76,1.46.77-.34.77-1.46" transform="translate(-133.01 -595.54)"/><polygon class="cls-6" points="23.53 7.85 24.03 7.85 22.7 13.18 22.21 13.18 22.64 11.47 21.49 7.85 22.01 7.85 22.86 10.63 23.53 7.85"/><path class="cls-6" d="M157.85,605.33c0-1.41.31-2,1.25-2s1.24.71,1.24,1.82c0,.1,0,.22,0,.33a11.35,11.35,0,0,1-1.4.18l-.6,0c0,.78.27,1.08.86,1.08a5.78,5.78,0,0,0,1-.11l.05.52a5.85,5.85,0,0,1-1.21.13c-.95,0-1.19-.84-1.19-2m1.14-.14a8.2,8.2,0,0,0,.85-.1v-.23c0-.63-.19-1-.74-1s-.78.51-.78,1.37Z" transform="translate(-133.01 -595.54)"/><path class="cls-6" d="M163.3,607.21a2.76,2.76,0,0,1-.81.12c-1,0-1.12-1-1.12-2,0-1.27.21-1.95,1.24-1.95a1.84,1.84,0,0,1,.68.12l0,.5a2.41,2.41,0,0,0-.48-.07c-.83,0-.91.36-.91,1.4s0,1.48.91,1.48a1.63,1.63,0,0,0,.48-.09Z" transform="translate(-133.01 -595.54)"/><path class="cls-6" d="M165.19,602.29v1.1h.61v.51h-.61v2.32c0,.47.12.58.43.58h.18l0,.49a1.49,1.49,0,0,1-.36.05c-.55,0-.79-.32-.79-1V603.9h-.5v-.51h.5v-1Z" transform="translate(-133.01 -595.54)"/><path class="cls-6" d="M166.68,605.33c0-1.45.33-2,1.25-2s1.26.56,1.26,2-.33,2-1.26,2-1.25-.54-1.25-2m2,0c0-1.11-.17-1.45-.77-1.45s-.76.29-.76,1.45.18,1.46.76,1.46.77-.34.77-1.46" transform="translate(-133.01 -595.54)"/><path class="cls-6" d="M174,601.88h.49v4.44c0,.24,0,.46,0,.69a1.9,1.9,0,0,1-1.09.32c-.92,0-1.31-.48-1.31-2s.36-2,1.22-2a2.46,2.46,0,0,1,.71.12Zm-.58,2c-.77,0-.85.51-.85,1.46s.11,1.47.81,1.47a1.19,1.19,0,0,0,.6-.15c0-.18,0-.4,0-.57V604a1.59,1.59,0,0,0-.58-.13" transform="translate(-133.01 -595.54)"/><path class="cls-6" d="M175.58,605.33c0-1.41.32-2,1.26-2s1.23.71,1.23,1.82c0,.1,0,.22,0,.33a11.1,11.1,0,0,1-1.4.18l-.59,0c0,.78.27,1.08.86,1.08a5.89,5.89,0,0,0,1-.11l0,.52a5.77,5.77,0,0,1-1.21.13c-.94,0-1.19-.84-1.19-2m1.15-.14a8,8,0,0,0,.84-.1,1.69,1.69,0,0,0,0-.23c0-.63-.19-1-.74-1s-.78.51-.78,1.37Z" transform="translate(-133.01 -595.54)"/><path class="cls-6" d="M181,603.47a4.91,4.91,0,0,1,1.08-.13c.61,0,1.11.22,1.11,1.2v1.78c0,.24,0,.46,0,.69a2.09,2.09,0,0,1-1.23.32c-.76,0-1.09-.36-1.09-1.19,0-.67.21-1.1.74-1.21a6.48,6.48,0,0,1,1.12-.1v-.1c0-.59-.17-.85-.7-.85a6,6,0,0,0-1,.1Zm1,3.34a1.44,1.44,0,0,0,.69-.15c0-.18,0-.39,0-.57v-.8a4.17,4.17,0,0,0-.94.1c-.31.09-.43.24-.43.74s.21.68.67.68" transform="translate(-133.01 -595.54)"/><path class="cls-6" d="M184.91,608.71h-.49v-4.36c0-.24,0-.46,0-.69a1.9,1.9,0,0,1,1.09-.32c.92,0,1.31.47,1.31,2s-.36,2-1.22,2a2.46,2.46,0,0,1-.71-.12Zm.58-1.91c.77,0,.86-.52.86-1.47s-.12-1.46-.82-1.46a1.21,1.21,0,0,0-.6.15,5.33,5.33,0,0,0,0,.57v2.08a1.59,1.59,0,0,0,.58.13" transform="translate(-133.01 -595.54)"/><path class="cls-6" d="M187.86,605.33c0-1.45.33-2,1.26-2s1.26.56,1.26,2-.34,2-1.26,2-1.26-.54-1.26-2m2,0c0-1.11-.18-1.45-.77-1.45s-.77.29-.77,1.45.19,1.46.77,1.46.77-.34.77-1.46" transform="translate(-133.01 -595.54)"/><polygon class="cls-6" points="60.2 7.85 60.69 7.85 59.37 13.18 58.87 13.18 59.31 11.47 58.16 7.85 58.68 7.85 59.53 10.63 60.2 7.85"/><path class="cls-6" d="M194.52,605.33c0-1.45.33-2,1.26-2s1.25.56,1.25,2-.33,2-1.25,2-1.26-.54-1.26-2m2,0c0-1.11-.17-1.45-.76-1.45s-.77.29-.77,1.45.18,1.46.77,1.46.76-.34.76-1.46" transform="translate(-133.01 -595.54)"/><path class="cls-7" d="M230.41,646.06h-2.24a.61.61,0,0,0-.44.13.53.53,0,0,0-.14.41v1.32h2.49v.58h-2.49v2.62h-.76v-4.65a.94.94,0,0,1,.31-.76,1.3,1.3,0,0,1,.84-.26c1.14,0,2,0,2.47,0Z" transform="translate(-133.01 -595.54)"/><path class="cls-7" d="M231.17,647.72l-.07-.52a13.53,13.53,0,0,1,2-.18,1.74,1.74,0,0,1,1.1.29,1.25,1.25,0,0,1,.35,1v2.82H234l-.09-.66a2.82,2.82,0,0,1-.75.51,2.21,2.21,0,0,1-1,.22,1.35,1.35,0,0,1-.92-.29,1,1,0,0,1-.34-.82v-.44a.87.87,0,0,1,.31-.72,1.25,1.25,0,0,1,.86-.26h1.76v-.36a.67.67,0,0,0-.19-.53,1.07,1.07,0,0,0-.67-.16c-.42,0-1,0-1.81.11m.49,2V650a.6.6,0,0,0,.16.45.7.7,0,0,0,.5.14,2,2,0,0,0,.75-.14,2.83,2.83,0,0,0,.77-.45v-.81h-1.63a.58.58,0,0,0-.42.15.6.6,0,0,0-.13.4" transform="translate(-133.01 -595.54)"/><path class="cls-7" d="M237.73,649.5l-1.21-.26a1.35,1.35,0,0,1-.74-.37,1.16,1.16,0,0,1-.21-.75,1,1,0,0,1,.36-.89,2.54,2.54,0,0,1,1.28-.21,14.62,14.62,0,0,1,1.77.13l-.06.51-1.6,0a2.53,2.53,0,0,0-.84.08c-.13,0-.2.2-.2.43a.49.49,0,0,0,.14.4,1.26,1.26,0,0,0,.48.18l1.22.26a1.39,1.39,0,0,1,.75.37,1.28,1.28,0,0,1-.17,1.66,3.16,3.16,0,0,1-1.4.22,12.24,12.24,0,0,1-1.65-.11l0-.51c.49,0,1,0,1.46,0a2.93,2.93,0,0,0,1-.11.43.43,0,0,0,.25-.45.42.42,0,0,0-.15-.37,1.65,1.65,0,0,0-.51-.19" transform="translate(-133.01 -595.54)"/><path class="cls-7" d="M242.65,649.46h-2a1.3,1.3,0,0,0,.36.93,1.55,1.55,0,0,0,1,.24,12.36,12.36,0,0,0,1.46-.1l.08.47a4.65,4.65,0,0,1-1.64.22,2.08,2.08,0,0,1-1.55-.48,3.13,3.13,0,0,1,0-3.25,2,2,0,0,1,1.48-.47,2.3,2.3,0,0,1,1.38.33,1.13,1.13,0,0,1,.43,1c0,.75-.32,1.13-1,1.13m-2-.54h1.78c.3,0,.46-.2.46-.59a.65.65,0,0,0-.25-.55,1.4,1.4,0,0,0-.79-.17,1.27,1.27,0,0,0-.93.28,1.59,1.59,0,0,0-.27,1" transform="translate(-133.01 -595.54)"/><path class="cls-7" d="M246.42,646.13l0-.56a8.46,8.46,0,0,1,1.81-.21,2.92,2.92,0,0,1,1.39.25,1,1,0,0,1,.45,1,2,2,0,0,1-.24,1,4.88,4.88,0,0,1-.83,1.08l-1.71,1.82a9,9,0,0,1,1,0h2v.7h-3.92v-.45a.4.4,0,0,1,.12-.31l1.73-1.86a5.45,5.45,0,0,0,.84-1,1.5,1.5,0,0,0,.25-.84.51.51,0,0,0-.28-.5,2.16,2.16,0,0,0-.84-.11,10.76,10.76,0,0,0-1.71.13" transform="translate(-133.01 -595.54)"/><path class="cls-4" d="M145.87,664.94h-.5v-4.12c0-.21,0-.42,0-.62a3,3,0,0,1,1.37-.29c1.15,0,1.64.45,1.64,1.87s-.44,1.87-1.53,1.87a3.72,3.72,0,0,1-1-.14Zm.84-1.7c1,0,1.19-.44,1.19-1.46s-.24-1.46-1.14-1.46a2.19,2.19,0,0,0-.88.17c0,.17,0,.4,0,.57v2a2.73,2.73,0,0,0,.84.15" transform="translate(-133.01 -595.54)"/><path class="cls-4" d="M149.34,663.6v-2.78c0-.21,0-.42,0-.62a3,3,0,0,1,1.36-.29l.34,0,0,.42-.3,0a2.29,2.29,0,0,0-.87.17c0,.17,0,.4,0,.57v2.53Z" transform="translate(-133.01 -595.54)"/><path class="cls-4" d="M151.6,661.78c0-1.36.43-1.87,1.6-1.87s1.6.53,1.6,1.87-.43,1.87-1.6,1.87-1.6-.51-1.6-1.87m2.7,0c0-1.11-.26-1.45-1.1-1.45s-1.1.29-1.1,1.45.28,1.45,1.1,1.45,1.1-.34,1.1-1.45" transform="translate(-133.01 -595.54)"/><polygon class="cls-4" points="24.93 64.42 25.43 64.42 23.74 69.4 23.23 69.4 23.79 67.81 22.32 64.42 22.84 64.42 24.01 67.16 24.93 64.42"/><path class="cls-4" d="M159,661.78c0-1.32.4-1.87,1.59-1.87s1.57.65,1.57,1.64c0,.1,0,.24,0,.35-.42.07-1.28.15-1.79.17l-.86,0c.06.75.29,1.13,1.2,1.13a9.67,9.67,0,0,0,1.29-.1l0,.4a9.31,9.31,0,0,1-1.52.12c-1.19,0-1.51-.79-1.51-1.87m1.45-.1c.32,0,.87-.06,1.2-.1a2.09,2.09,0,0,0,0-.25c0-.62-.27-1-1.07-1s-1.1.47-1.1,1.41Z" transform="translate(-133.01 -595.54)"/><path class="cls-4" d="M165.39,663.54a4.35,4.35,0,0,1-.95.11c-1.22,0-1.45-.86-1.45-1.91s.27-1.83,1.58-1.83a2.81,2.81,0,0,1,.82.11l0,.38a3.66,3.66,0,0,0-.61-.07c-1.14,0-1.25.4-1.25,1.41s.09,1.48,1.24,1.48a3.19,3.19,0,0,0,.62-.08Z" transform="translate(-133.01 -595.54)"/><path class="cls-4" d="M167.19,658.93v1H168v.39h-.81v2.28c0,.52.17.61.61.61h.2l0,.38a2.58,2.58,0,0,1-.39,0c-.67,0-1-.29-1-.95v-2.35H166V660h.66v-1Z" transform="translate(-133.01 -595.54)"/><path class="cls-4" d="M168.61,661.78c0-1.36.43-1.87,1.6-1.87s1.6.53,1.6,1.87-.43,1.87-1.6,1.87-1.6-.51-1.6-1.87m2.7,0c0-1.11-.26-1.45-1.1-1.45s-1.1.29-1.1,1.45.28,1.45,1.1,1.45,1.1-.34,1.1-1.45" transform="translate(-133.01 -595.54)"/><path class="cls-4" d="M172.81,660a7.83,7.83,0,0,1,1.35-.13c.78,0,1.39.2,1.39,1.11v1.71c0,.22,0,.43,0,.63a3.44,3.44,0,0,1-1.52.29c-1,0-1.42-.3-1.42-1.09a1,1,0,0,1,.92-1.13c.44-.06,1-.08,1.55-.1v-.16c0-.6-.2-.84-1-.84a9.4,9.4,0,0,0-1.21.1Zm1.26,3.2a2.8,2.8,0,0,0,1-.16c0-.17,0-.4,0-.57v-.81a9,9,0,0,0-1.38.1c-.41.08-.59.25-.59.75s.29.69,1,.69" transform="translate(-133.01 -595.54)"/><path class="cls-4" d="M177.11,664.94h-.49v-4.12c0-.21,0-.42,0-.62a3,3,0,0,1,1.36-.29c1.16,0,1.64.45,1.64,1.87s-.44,1.87-1.52,1.87a3.73,3.73,0,0,1-1-.14Zm.85-1.7c1,0,1.19-.44,1.19-1.46s-.24-1.46-1.15-1.46a2.19,2.19,0,0,0-.88.17c0,.17,0,.4,0,.57v2a2.85,2.85,0,0,0,.85.15" transform="translate(-133.01 -595.54)"/><path class="cls-4" d="M180.48,661.78c0-1.36.42-1.87,1.59-1.87s1.6.53,1.6,1.87-.42,1.87-1.6,1.87-1.59-.51-1.59-1.87m2.69,0c0-1.11-.26-1.45-1.1-1.45s-1.09.29-1.09,1.45.27,1.45,1.09,1.45,1.1-.34,1.1-1.45" transform="translate(-133.01 -595.54)"/><polygon class="cls-4" points="53.8 64.42 54.31 64.42 52.61 69.4 52.11 69.4 52.66 67.81 51.19 64.42 51.72 64.42 52.89 67.16 53.8 64.42"/><path class="cls-4" d="M187.89,661.78c0-1.36.42-1.87,1.6-1.87s1.59.53,1.59,1.87-.42,1.87-1.59,1.87-1.6-.51-1.6-1.87m2.7,0c0-1.11-.27-1.45-1.1-1.45s-1.1.29-1.1,1.45.28,1.45,1.1,1.45,1.1-.34,1.1-1.45" transform="translate(-133.01 -595.54)"/><path class="cls-4" d="M194.34,663.54a4.35,4.35,0,0,1-1,.11c-1.23,0-1.45-.86-1.45-1.91s.27-1.83,1.58-1.83a2.81,2.81,0,0,1,.82.11l-.05.38a3.53,3.53,0,0,0-.6-.07c-1.14,0-1.25.4-1.25,1.41s.08,1.48,1.24,1.48a3,3,0,0,0,.61-.08Z" transform="translate(-133.01 -595.54)"/><path class="cls-4" d="M195.19,660a7.83,7.83,0,0,1,1.35-.13c.78,0,1.39.2,1.39,1.11v1.71c0,.22,0,.43,0,.63a3.44,3.44,0,0,1-1.52.29c-1,0-1.42-.3-1.42-1.09a1,1,0,0,1,.92-1.13c.44-.06,1-.08,1.55-.1v-.16c0-.6-.2-.84-1-.84a9.25,9.25,0,0,0-1.21.1Zm1.25,3.2a2.81,2.81,0,0,0,1-.16c0-.17,0-.4,0-.57v-.81a8.88,8.88,0,0,0-1.38.1c-.41.08-.59.25-.59.75s.29.69,1,.69" transform="translate(-133.01 -595.54)"/><path class="cls-4" d="M199.49,663.6H199v-2.76c0-.22,0-.42,0-.62a4.13,4.13,0,0,1,1.5-.31,1.24,1.24,0,0,1,.94.3,3.11,3.11,0,0,1,1.34-.3c1.09,0,1.25.61,1.25,1.33v2.36h-.49v-2.28c0-.69-.18-1-.92-1a2.26,2.26,0,0,0-.95.24,2.32,2.32,0,0,1,.08.67v2.36h-.49v-2.28c0-.69-.17-1-.92-1a2.64,2.64,0,0,0-.85.18c0,.17,0,.39,0,.57Z" transform="translate(-133.01 -595.54)"/><path class="cls-4" d="M205.13,658.55h.49v1.5a3.73,3.73,0,0,1,1-.14c1.09,0,1.52.48,1.52,1.87s-.48,1.87-1.64,1.87a3,3,0,0,1-1.36-.29c0-.2,0-.41,0-.63Zm.49,4c0,.17,0,.4,0,.57a2.11,2.11,0,0,0,.87.17c.91,0,1.15-.48,1.15-1.46s-.18-1.46-1.19-1.46a3.22,3.22,0,0,0-.85.14Z" transform="translate(-133.01 -595.54)"/><path class="cls-4" d="M209,658.87c0-.27.07-.36.3-.36s.3.09.3.36-.07.36-.3.36-.3-.09-.3-.36m0,1.09h.5v3.64H209Z" transform="translate(-133.01 -595.54)"/><path class="cls-4" d="M210.48,661.78c0-1.36.43-1.87,1.6-1.87s1.6.53,1.6,1.87-.43,1.87-1.6,1.87-1.6-.51-1.6-1.87m2.7,0c0-1.11-.26-1.45-1.1-1.45s-1.1.29-1.1,1.45.28,1.45,1.1,1.45,1.1-.34,1.1-1.45" transform="translate(-133.01 -595.54)"/><path class="cls-4" d="M216.93,663.54a4.35,4.35,0,0,1-1,.11c-1.23,0-1.45-.86-1.45-1.91s.27-1.83,1.58-1.83a2.81,2.81,0,0,1,.82.11l0,.38a3.66,3.66,0,0,0-.61-.07c-1.14,0-1.25.4-1.25,1.41s.08,1.48,1.24,1.48a3.19,3.19,0,0,0,.62-.08Z" transform="translate(-133.01 -595.54)"/><path class="cls-4" d="M217.71,658.55h.5v4.07a1.34,1.34,0,0,0,.29.92l-.42.22a1.54,1.54,0,0,1-.37-1.1Z" transform="translate(-133.01 -595.54)"/><path class="cls-4" d="M219.25,658.87c0-.27.07-.36.3-.36s.3.09.3.36-.07.36-.3.36-.3-.09-.3-.36m.05,1.09h.5v3.64h-.5Z" transform="translate(-133.01 -595.54)"/><path class="cls-4" d="M221.34,663.6h-.5v-2.76c0-.22,0-.42,0-.62a4.13,4.13,0,0,1,1.5-.31,1.26,1.26,0,0,1,.94.3,3.08,3.08,0,0,1,1.34-.3c1.09,0,1.25.61,1.25,1.33v2.36h-.5v-2.28c0-.69-.17-1-.91-1a2.33,2.33,0,0,0-1,.24,2,2,0,0,1,.09.67v2.36h-.49v-2.28c0-.69-.17-1-.92-1a2.54,2.54,0,0,0-.85.18c0,.17,0,.39,0,.57Z" transform="translate(-133.01 -595.54)"/><path class="cls-4" d="M227,660a7.83,7.83,0,0,1,1.35-.13c.78,0,1.39.2,1.39,1.11v1.71c0,.22,0,.43,0,.63a3.44,3.44,0,0,1-1.52.29c-1,0-1.42-.3-1.42-1.09a1,1,0,0,1,.92-1.13c.44-.06,1-.08,1.55-.1v-.16c0-.6-.2-.84-1-.84a9.25,9.25,0,0,0-1.21.1Zm1.25,3.2a2.81,2.81,0,0,0,1-.16c0-.17,0-.4,0-.57v-.81a8.88,8.88,0,0,0-1.38.1c-.41.08-.6.25-.6.75s.3.69,1,.69" transform="translate(-133.01 -595.54)"/><path class="cls-4" d="M231.59,658.93v1h.81v.39h-.81v2.28c0,.52.18.61.62.61h.2l0,.38a2.58,2.58,0,0,1-.39,0c-.68,0-1-.29-1-.95v-2.35h-.67V660h.67v-1Z" transform="translate(-133.01 -595.54)"/><path class="cls-4" d="M233.18,658.87c0-.27.06-.36.29-.36s.3.09.3.36-.06.36-.3.36-.29-.09-.29-.36m0,1.09h.49v3.64h-.49Z" transform="translate(-133.01 -595.54)"/><path class="cls-4" d="M237.05,663.54a4.53,4.53,0,0,1-1,.11c-1.22,0-1.45-.86-1.45-1.91s.27-1.83,1.58-1.83a2.81,2.81,0,0,1,.82.11l0,.38a3.66,3.66,0,0,0-.61-.07c-1.14,0-1.25.4-1.25,1.41s.09,1.48,1.25,1.48a3.19,3.19,0,0,0,.61-.08Z" transform="translate(-133.01 -595.54)"/><path class="cls-4" d="M237.66,661.78c0-1.36.42-1.87,1.59-1.87s1.6.53,1.6,1.87-.42,1.87-1.6,1.87-1.59-.51-1.59-1.87m2.69,0c0-1.11-.26-1.45-1.1-1.45s-1.09.29-1.09,1.45.27,1.45,1.09,1.45,1.1-.34,1.1-1.45" transform="translate(-133.01 -595.54)"/><path class="cls-4" d="M241.68,663.29c0-.27.06-.37.3-.37s.3.1.3.37-.07.36-.3.36-.3-.09-.3-.36" transform="translate(-133.01 -595.54)"/><path class="cls-4" d="M243.77,664.94h-.49v-4.12c0-.21,0-.42,0-.62a3,3,0,0,1,1.36-.29c1.16,0,1.65.45,1.65,1.87s-.45,1.87-1.53,1.87a3.73,3.73,0,0,1-1-.14Zm.85-1.7c1,0,1.19-.44,1.19-1.46s-.24-1.46-1.15-1.46a2.11,2.11,0,0,0-.87.17c0,.17,0,.4,0,.57v2a2.85,2.85,0,0,0,.85.15" transform="translate(-133.01 -595.54)"/><path class="cls-4" d="M247.09,661.78c0-1.32.4-1.87,1.6-1.87s1.56.65,1.56,1.64c0,.1,0,.24,0,.35-.42.07-1.28.15-1.79.17l-.86,0c.06.75.29,1.13,1.2,1.13a9.54,9.54,0,0,0,1.29-.1l0,.4a9.31,9.31,0,0,1-1.52.12c-1.19,0-1.51-.79-1.51-1.87m1.45-.1c.32,0,.87-.06,1.2-.1a2.09,2.09,0,0,0,0-.25c0-.62-.27-1-1.06-1s-1.11.47-1.11,1.41Z" transform="translate(-133.01 -595.54)"/></g></g></svg>