<svg width="210" height="61" viewBox="0 0 210 61" fill="none" xmlns="http://www.w3.org/2000/svg">
<path d="M31.2043 56.8149C46.3774 56.8149 58.6777 44.5147 58.6777 29.3416C58.6777 14.1685 46.3774 1.86823 31.2043 1.86823C16.0312 1.86823 3.73099 14.1685 3.73099 29.3416C3.73099 44.5147 16.0312 56.8149 31.2043 56.8149Z" fill="white"/>
<path d="M30 0.228088C13.4314 0.228088 0 13.6595 0 30.2281C0 46.7967 13.4314 60.2281 30 60.2281C46.5686 60.2281 60 46.7967 60 30.2281C60.0075 13.6595 46.5686 0.228088 30 0.228088ZM44.7059 17.8299C45.2715 18.3955 45.2715 19.308 44.7059 19.8736C44.457 20.1225 44.1403 20.2583 43.816 20.2809C43.9216 19.3533 43.6275 18.3804 42.9487 17.6112C43.5068 17.2869 44.2308 17.3548 44.7059 17.8299ZM40.3771 15.5448C40.9578 14.9641 41.908 14.9641 42.4887 15.5448C42.9864 16.0426 43.0543 16.7892 42.7074 17.3623C41.9306 16.6383 40.9125 16.3216 39.9548 16.4347C39.9925 16.1104 40.1282 15.7937 40.3771 15.5448ZM37.4284 19.2175L38.8537 17.7922C39.6833 16.9626 41.1689 17.0908 42.1644 18.0863C43.1599 19.0818 43.2956 20.5675 42.4585 21.397L41.0332 22.8224C40.2036 23.6519 38.718 23.5237 37.7225 22.5282C36.727 21.5328 36.5913 20.0471 37.4284 19.2175ZM24.7738 3.19943C26.184 2.33216 28.0317 2.77711 28.9065 4.18736L36.1011 15.9144C36.9683 17.3246 36.5309 19.1572 35.2036 20.1904C34.178 20.9672 33.4691 20.8465 32.7979 19.9113L23.7858 7.32462C22.9186 5.91436 23.3635 4.0667 24.7738 3.19943ZM18.8839 14.0365C19.5928 12.9129 21.086 12.5735 22.2097 13.2824L32.2851 20.6429C33.0317 21.1934 33.0694 21.7666 32.4359 22.5886C31.5913 23.6519 30.1207 23.9837 28.9894 23.2673L19.6305 17.3623C18.5143 16.6534 18.175 15.1602 18.8839 14.0365ZM18.9894 43.1466C18.4465 43.6896 17.5792 43.7047 17.0513 43.1768C16.5234 42.6489 16.5385 41.7816 17.0814 41.2386L32.8205 23.5463C32.8431 23.5237 32.8658 23.4935 32.8959 23.4709C34.1554 22.2115 36.0407 22.0607 37.1116 23.1316C38.1825 24.2024 38.0317 26.0954 36.7723 27.3472C36.7496 27.3699 36.7195 27.3925 36.6968 27.4227L18.9894 43.1466ZM46.2142 41.3669C45.083 42.0758 43.5973 41.7439 42.8808 40.6127L36.9759 31.2537C36.267 30.13 36.5988 28.6519 37.6546 27.8073C38.4691 27.1738 39.0498 27.2115 39.6003 27.9581L46.9608 38.0335C47.6848 39.1647 47.3454 40.6504 46.2142 41.3669ZM52.9261 36.4649L40.3469 27.4604C39.4118 26.7892 39.2911 26.0803 40.0679 25.0546C41.1011 23.7198 42.9261 23.2899 44.3439 24.1572L56.0709 31.3518C57.4812 32.219 57.9261 34.0667 57.0588 35.4845C56.184 36.8872 54.3364 37.3322 52.9261 36.4649Z" fill="#8ABD3D"/>
<path d="M168.612 36.3218H168.575V36.5707C168.575 39.6024 166.071 42.1062 163.009 42.1514C159.94 42.0986 157.443 39.5948 157.436 36.5632V36.435L157.406 36.2464V23.3279H153.59V36.5632C153.59 41.5858 157.549 45.7185 162.602 45.9825H162.67V46.0277H162.798H162.949C162.971 46.0277 162.986 46.0202 163.002 46.0202L163.333 46.0353V45.9825H163.401C168.454 45.7261 172.413 41.5858 172.413 36.5707V23.3279H168.605V36.3218H168.612Z" fill="#263B45"/>
<path d="M143.982 34.8132L143.974 34.685H143.952L143.937 15.9973H140.015V34.6172C140.015 40.7031 144.977 45.7408 151.086 45.854H151.222V41.857H151.093C147.217 41.7439 144.095 38.6519 143.982 34.8132Z" fill="#263B45"/>
<path d="M179.804 34.8132L179.796 34.685H179.774L179.759 15.9973H175.845V34.6172C175.845 40.7031 180.807 45.7408 186.908 45.854H187.044V41.857H186.916C183.032 41.7439 179.91 38.6519 179.804 34.8132Z" fill="#263B45"/>
<path d="M206.425 26.0884C204.321 23.9692 201.508 22.8079 198.514 22.8079C192.376 22.8079 187.383 27.8003 187.383 33.9391C187.383 40.0703 192.376 45.0628 198.514 45.0628H202.609L205.196 41.1412H198.514C194.54 41.1412 191.305 37.9059 191.305 33.9391C191.305 29.9647 194.54 26.7294 198.514 26.7294C202.489 26.7294 205.724 29.9647 205.724 33.9391V45.6812H209.646V33.9315C209.653 30.9753 208.514 28.1849 206.425 26.0884Z" fill="#263B45"/>
<path d="M79.6154 41.8495C75.7315 41.7439 72.6094 38.6519 72.5038 34.8133L72.4962 34.6851H72.4736L72.4661 15.9897H68.552V34.6097C68.552 40.6956 73.5143 45.7333 79.6154 45.8465H79.7512V41.8495H79.6154Z" fill="#263B45"/>
<path d="M86.8779 24.2327H82.9714V45.6731H86.8779V24.2327Z" fill="#263B45"/>
<path d="M86.8929 15.9897H82.9714V19.9113H86.8929V15.9897Z" fill="#263B45"/>
<path d="M130.317 15.9897H125.271L120.965 20.6202H126.011L130.317 15.9897Z" fill="#263B45"/>
<path d="M133.537 38.0411L133.499 38.1089C132.926 39.112 132.134 39.9717 131.222 40.6052C129.962 41.4498 128.507 41.8872 126.998 41.8872C122.881 41.8872 119.532 38.5539 119.532 34.4589C119.532 30.3412 122.881 26.9928 126.998 26.9928C129.133 26.9928 131.169 27.9129 132.579 29.5192L132.617 29.5644L127.104 36.8495H131.885L134.299 33.5614L134.336 33.5991L137.277 29.5192L137.323 29.4513L137.285 29.3834C135.347 25.5071 131.305 23.0034 126.991 23.0034C120.671 23.0034 115.528 28.1466 115.528 34.4664C115.528 40.7862 120.671 45.9294 126.991 45.9294C129.291 45.9294 131.531 45.2356 133.484 43.931C135.475 42.5358 136.908 40.7409 137.632 38.7424C137.632 38.7424 137.722 38.4785 137.805 38.2296L137.866 38.0561H133.537V38.0411Z" fill="#263B45"/>
<path d="M102.7 23.5991H99.3059L96.7192 27.5207H102.7C106.674 27.5207 109.902 30.7484 109.902 34.7228C109.902 38.6971 106.666 41.9249 102.7 41.9249C98.7252 41.9249 95.4975 38.6896 95.4975 34.7228V15.9897H91.5759V34.7152C91.5608 37.6715 92.6996 40.4618 94.7886 42.5584C96.8927 44.6775 99.7056 45.8389 102.7 45.8389C108.838 45.8389 113.823 40.8465 113.823 34.7077C113.823 28.584 108.831 23.5991 102.7 23.5991Z" fill="#263B45"/>
</svg>
