<?xml version="1.0" encoding="utf-8"?>
<!-- Generator: Adobe Illustrator 21.0.0, SVG Export Plug-In . SVG Version: 6.00 Build 0)  -->
<svg version="1.1" xmlns="http://www.w3.org/2000/svg" xmlns:xlink="http://www.w3.org/1999/xlink" x="0px" y="0px"
	 viewBox="0 0 554.7 118.5" style="enable-background:new 0 0 554.7 118.5;" xml:space="preserve">
<style type="text/css">
	.st0{fill:#585757;}
	.st1{fill:#FFFFFF;}
	.st2{font-family:'Calibri';}
	.st3{font-size:32.0696px;}
	.st4{fill:#C22821;}
	.st5{clip-path:url(#SVGID_2_);fill:#FFFFFF;}
	.st6{clip-path:url(#SVGID_2_);fill-rule:evenodd;clip-rule:evenodd;fill:#070809;}
	.st7{clip-path:url(#SVGID_2_);fill-rule:evenodd;clip-rule:evenodd;fill:#C9002C;}
	.st8{clip-path:url(#SVGID_2_);fill:none;stroke:#070809;stroke-width:8.071100e-02;stroke-miterlimit:2.613;}
	.st9{clip-path:url(#SVGID_2_);fill-rule:evenodd;clip-rule:evenodd;fill:#E7E25B;}
	.st10{clip-path:url(#SVGID_2_);fill-rule:evenodd;clip-rule:evenodd;fill:#FFFFFF;}
	.st11{clip-path:url(#SVGID_2_);fill-rule:evenodd;clip-rule:evenodd;fill:#B48C6A;}
	.st12{clip-path:url(#SVGID_2_);fill:none;stroke:#070809;stroke-width:0.1063;stroke-miterlimit:2.613;}
	.st13{clip-path:url(#SVGID_2_);fill-rule:evenodd;clip-rule:evenodd;fill:#8FBFE3;}
	.st14{clip-path:url(#SVGID_2_);fill-rule:evenodd;clip-rule:evenodd;fill:#E0C14D;}
	.st15{clip-path:url(#SVGID_2_);fill-rule:evenodd;clip-rule:evenodd;fill:#AA7347;}
	.st16{clip-path:url(#SVGID_2_);fill:none;stroke:#797265;stroke-width:8.071100e-02;stroke-miterlimit:2.613;}
	.st17{clip-path:url(#SVGID_2_);fill-rule:evenodd;clip-rule:evenodd;fill:#5A8856;}
	.st18{clip-path:url(#SVGID_2_);fill:none;stroke:#5B9350;stroke-width:8.071100e-02;stroke-miterlimit:2.613;}
	.st19{clip-path:url(#SVGID_2_);fill-rule:evenodd;clip-rule:evenodd;fill:#797373;}
	.st20{clip-path:url(#SVGID_2_);fill-rule:evenodd;clip-rule:evenodd;fill:#8A6250;}
	.st21{clip-path:url(#SVGID_2_);fill-rule:evenodd;clip-rule:evenodd;fill:#797265;}
	.st22{clip-path:url(#SVGID_2_);fill-rule:evenodd;clip-rule:evenodd;fill:#5B9350;}
	.st23{clip-path:url(#SVGID_4_);fill-rule:evenodd;clip-rule:evenodd;fill:#5B9350;}
	.st24{clip-path:url(#SVGID_4_);fill:none;stroke:#070809;stroke-width:8.071100e-02;stroke-miterlimit:2.613;}
	.st25{clip-path:url(#SVGID_4_);fill-rule:evenodd;clip-rule:evenodd;fill:#070809;}
	.st26{clip-path:url(#SVGID_4_);fill:#070809;}
	.st27{fill:none;}
</style>
<g id="borde">
	<polygon class="st0" points="636.1,195.4 638.8,195.4 638.8,195.4 636.1,195.4 	"/>
	<rect class="st1" width="554.7" height="118.5"/>
</g>
<g id="caja_x5F_gris">
	<rect x="226.2" y="5.4" class="st0" width="323.1" height="107.7"/>
	<text transform="matrix(1 0 0 1 237.4087 66.7207)" class="st1 st2 st3">Ministerio</text>
	<text transform="matrix(1 0 0 1 237.4087 93.3389)" class="st1 st2 st3">del Ambiente</text>
</g>
<g id="caja_x5F_roja">
	<g>
		<polygon class="st4" points="113.1,5.4 113.1,113.1 220.8,113.1 220.8,5.4 		"/>
		<path class="st1" d="M143.2,54c0,1.3-0.2,2.4-0.6,3.4c-0.4,1-1,1.9-1.8,2.6c-0.8,0.7-1.7,1.3-2.9,1.7c-1.1,0.4-2.5,0.6-4,0.6H131
			v9.1c0,0.1,0,0.2-0.1,0.3c-0.1,0.1-0.1,0.1-0.3,0.2c-0.1,0-0.3,0.1-0.5,0.1c-0.2,0-0.5,0.1-0.8,0.1c-0.3,0-0.6,0-0.8-0.1
			c-0.2,0-0.4-0.1-0.5-0.1c-0.1,0-0.2-0.1-0.3-0.2c-0.1-0.1-0.1-0.2-0.1-0.3V48c0-0.5,0.1-0.9,0.4-1.1c0.3-0.2,0.6-0.3,0.9-0.3h5.4
			c0.5,0,1.1,0,1.6,0.1c0.5,0,1.1,0.1,1.8,0.3c0.7,0.2,1.4,0.4,2.1,0.8c0.7,0.4,1.3,0.9,1.8,1.5c0.5,0.6,0.9,1.3,1.1,2.1
			C143.1,52.2,143.2,53,143.2,54 M139.6,54.3c0-1-0.2-1.9-0.6-2.6c-0.4-0.7-0.9-1.2-1.4-1.5c-0.6-0.3-1.2-0.6-1.8-0.6
			c-0.6-0.1-1.2-0.1-1.8-0.1H131v10.2h3c1,0,1.9-0.1,2.5-0.4c0.7-0.3,1.2-0.6,1.7-1.1c0.5-0.5,0.8-1,1-1.7
			C139.5,55.7,139.6,55,139.6,54.3"/>
		<path class="st1" d="M161.6,70.5c0,0.2,0,0.4,0,0.6c0,0.2-0.1,0.3-0.1,0.4c-0.1,0.1-0.1,0.2-0.2,0.3c-0.1,0.1-0.2,0.1-0.3,0.1
			h-12.2c-0.3,0-0.6-0.1-0.9-0.3c-0.3-0.2-0.4-0.6-0.4-1.1V47.9c0-0.5,0.1-0.9,0.4-1.1c0.3-0.2,0.6-0.3,0.9-0.3h12
			c0.1,0,0.2,0,0.3,0.1c0.1,0.1,0.2,0.1,0.2,0.3c0.1,0.1,0.1,0.3,0.1,0.4c0,0.2,0.1,0.4,0.1,0.7c0,0.2,0,0.4-0.1,0.6
			c0,0.2-0.1,0.3-0.1,0.4c-0.1,0.1-0.1,0.2-0.2,0.2c-0.1,0.1-0.2,0.1-0.3,0.1h-9.9v7.9h8.5c0.1,0,0.2,0,0.3,0.1
			c0.1,0.1,0.2,0.1,0.2,0.2c0.1,0.1,0.1,0.2,0.1,0.4c0,0.2,0,0.4,0,0.6c0,0.2,0,0.4,0,0.6c0,0.2-0.1,0.3-0.1,0.4
			c-0.1,0.1-0.1,0.2-0.2,0.2c-0.1,0-0.2,0.1-0.3,0.1h-8.5v9.1h10c0.1,0,0.2,0,0.3,0.1c0.1,0.1,0.2,0.1,0.2,0.2
			c0.1,0.1,0.1,0.3,0.1,0.4C161.6,70,161.6,70.3,161.6,70.5"/>
		<path class="st1" d="M183.2,71.4c0,0.1,0,0.2-0.1,0.3c0,0.1-0.1,0.1-0.3,0.2c-0.1,0.1-0.3,0.1-0.5,0.1c-0.2,0-0.5,0-0.9,0
			c-0.3,0-0.6,0-0.8,0c-0.2,0-0.4-0.1-0.5-0.1c-0.1-0.1-0.2-0.1-0.3-0.2c-0.1-0.1-0.1-0.2-0.2-0.4l-2.3-6c-0.3-0.7-0.6-1.3-0.9-1.9
			c-0.3-0.6-0.6-1.1-1.1-1.5c-0.4-0.4-0.9-0.7-1.4-1c-0.5-0.2-1.2-0.3-2-0.3h-2.3v10.8c0,0.1,0,0.2-0.1,0.3
			c-0.1,0.1-0.1,0.1-0.3,0.2c-0.1,0-0.3,0.1-0.5,0.1c-0.2,0-0.5,0.1-0.8,0.1c-0.3,0-0.6,0-0.8-0.1c-0.2,0-0.4-0.1-0.5-0.1
			c-0.1,0-0.2-0.1-0.3-0.2c-0.1-0.1-0.1-0.2-0.1-0.3V47.9c0-0.5,0.1-0.9,0.4-1.1c0.3-0.2,0.6-0.3,0.8-0.3h5.4c0.6,0,1.2,0,1.6,0.1
			c0.4,0,0.8,0.1,1.1,0.1c1,0.2,1.8,0.4,2.6,0.8c0.8,0.4,1.4,0.8,1.9,1.4c0.5,0.6,0.9,1.2,1.1,1.9c0.3,0.7,0.4,1.5,0.4,2.4
			c0,0.9-0.1,1.6-0.3,2.3c-0.2,0.7-0.6,1.3-1,1.8c-0.4,0.5-0.9,1-1.5,1.3c-0.6,0.4-1.3,0.7-2,1c0.4,0.2,0.8,0.4,1.1,0.7
			c0.3,0.3,0.7,0.6,0.9,1c0.3,0.4,0.6,0.8,0.8,1.4c0.3,0.5,0.5,1.1,0.8,1.7l2.3,5.6c0.2,0.5,0.3,0.8,0.4,1
			C183.2,71.2,183.2,71.3,183.2,71.4 M178.1,53.6c0-1-0.2-1.8-0.7-2.5c-0.4-0.7-1.2-1.2-2.2-1.5c-0.3-0.1-0.7-0.2-1.1-0.2
			c-0.4,0-0.9-0.1-1.6-0.1h-2.8v8.5h3.3c0.9,0,1.7-0.1,2.3-0.3c0.6-0.2,1.2-0.5,1.6-0.9c0.4-0.4,0.7-0.8,1-1.4
			C178,54.8,178.1,54.2,178.1,53.6"/>
		<path class="st1" d="M206.3,62.6c0,1.5-0.2,2.9-0.7,4.1c-0.5,1.2-1.1,2.2-1.9,3.1c-0.8,0.8-1.9,1.5-3.1,1.9
			c-1.2,0.4-2.6,0.7-4.1,0.7c-1.4,0-2.7-0.2-3.8-0.6c-1.1-0.4-2.1-1-3-1.8c-0.8-0.8-1.5-1.8-1.9-3c-0.4-1.2-0.7-2.6-0.7-4.1V47.1
			c0-0.1,0-0.2,0.1-0.3c0.1-0.1,0.1-0.1,0.3-0.2c0.1,0,0.3-0.1,0.5-0.1c0.2,0,0.5,0,0.8,0c0.3,0,0.6,0,0.8,0c0.2,0,0.4,0.1,0.5,0.1
			c0.1,0,0.2,0.1,0.3,0.2c0,0.1,0.1,0.2,0.1,0.3v15.3c0,1.2,0.1,2.2,0.4,3.1c0.3,0.9,0.7,1.6,1.2,2.2c0.5,0.6,1.2,1,2,1.3
			c0.8,0.3,1.6,0.4,2.6,0.4c1,0,1.8-0.1,2.6-0.4c0.8-0.3,1.4-0.7,1.9-1.3c0.5-0.6,0.9-1.3,1.2-2.1c0.3-0.9,0.4-1.8,0.4-3V47.1
			c0-0.1,0-0.2,0.1-0.3c0.1-0.1,0.1-0.1,0.3-0.2c0.1,0,0.3-0.1,0.5-0.1c0.2,0,0.5,0,0.8,0c0.3,0,0.6,0,0.8,0c0.2,0,0.4,0.1,0.5,0.1
			c0.1,0,0.2,0.1,0.3,0.2c0.1,0.1,0.1,0.2,0.1,0.3V62.6z M198.8,39.6c0.1-0.2,0.3-0.3,0.4-0.4c0.1-0.1,0.3-0.2,0.5-0.2
			c0.2,0,0.4-0.1,0.6-0.1c0.2,0,0.5,0,0.8,0c0.4,0,0.7,0,0.9,0.1c0.2,0.1,0.4,0.1,0.5,0.2c0.1,0.1,0.1,0.2,0.1,0.3
			c0,0.1-0.1,0.2-0.2,0.4l-4.4,4.2c-0.1,0.1-0.3,0.2-0.4,0.3c-0.1,0.1-0.2,0.1-0.4,0.2c-0.1,0-0.3,0.1-0.5,0.1c-0.2,0-0.4,0-0.7,0
			c-0.3,0-0.5,0-0.7-0.1c-0.2,0-0.3-0.1-0.3-0.2c-0.1-0.1-0.1-0.2-0.1-0.3c0-0.1,0.1-0.2,0.2-0.4L198.8,39.6z"/>
	</g>
</g>
<g id="escudo">
	<g>
		<defs>
			<rect id="SVGID_1_" x="5.4" y="5.4" width="107.7" height="107.7"/>
		</defs>
		<clipPath id="SVGID_2_">
			<use xlink:href="#SVGID_1_"  style="overflow:visible;"/>
		</clipPath>
		<rect x="5.4" y="5.4" class="st5" width="107.7" height="107.7"/>
		<path class="st6" d="M59.1,95.7L39.7,51.2l-16-13l0.6,44.4C24.4,92.4,35,107.1,59.1,95.7"/>
		<path class="st7" d="M60.4,95L40.6,51.2L24.3,38.4l0.6,43.7C25,91.7,35.8,106.2,60.4,95"/>
		<path class="st6" d="M31.6,44.4l-7.9-6l0.1-0.3c0-0.1,4.5,3.5,8.1,6C32,44.2,31.7,44.1,31.6,44.4"/>
		<path class="st8" d="M31.6,44.4l-7.9-6l0.1-0.3c0-0.1,4.5,3.5,8.1,6C32,44.2,31.7,44.1,31.6,44.4z"/>
		<path class="st6" d="M23.7,37.1l-1.6-0.8V38c0,0,0,0,0,0v0.1l1.7,0.5L23.7,37.1z"/>
		<path class="st8" d="M23.7,37.1l-1.6-0.8V38c0,0,0,0,0,0v0.1l1.7,0.5L23.7,37.1z"/>
		<path class="st9" d="M23.7,38.6l-0.2-1.5l-1.4-0.7l0,1.6C22.2,38.1,23.7,38.4,23.7,38.6"/>
		<path class="st8" d="M23.7,38.6l-0.2-1.5l-1.4-0.7l0,1.6C22.2,38.1,23.7,38.4,23.7,38.6z"/>
		<path class="st9" d="M23.7,38.6l-1.6-2.1l0,1.5C22.2,38.2,23.6,38.4,23.7,38.6"/>
		<path class="st8" d="M23.7,38.6l-1.6-2.1l0,1.5C22.2,38.2,23.6,38.4,23.7,38.6z"/>
		<path class="st6" d="M23.7,38c0.3,0,0.5,0.2,0.5,0.5c0,0.3-0.2,0.5-0.5,0.5c-0.2,0-0.5-0.2-0.5-0.5C23.3,38.2,23.5,38,23.7,38"/>
		<path class="st8" d="M23.7,38c0.3,0,0.5,0.2,0.5,0.5c0,0.3-0.2,0.5-0.5,0.5c-0.2,0-0.5-0.2-0.5-0.5C23.3,38.2,23.5,38,23.7,38z"/>
		<path class="st9" d="M23.7,38.1c0.2,0,0.3,0.1,0.3,0.3c0,0.2-0.1,0.3-0.3,0.3c-0.2,0-0.3-0.2-0.3-0.3
			C23.4,38.2,23.6,38.1,23.7,38.1"/>
		<path class="st8" d="M23.7,38.1c0.2,0,0.3,0.1,0.3,0.3c0,0.2-0.1,0.3-0.3,0.3c-0.2,0-0.3-0.2-0.3-0.3
			C23.4,38.2,23.6,38.1,23.7,38.1z"/>
		<path class="st10" d="M24.6,65.2c1.1,0.9,3.1,0.4,3.3,2.1c0.1,0.9,1.5,0.9,1.8,1.7c1,2,2.7,1.2,3.2,1.8c0.8,1,2.3,2,3.5,1.7
			c1.3-0.3,2.7,1.1,4,1.9c2.3,1.4,4.4,0.8,4.4,6c0,2,0.1,4.5-0.5,5.4c-1.3,1.8-3.8,1.6-6.3,2.1c-0.5,0.1-2.7-2-4.7-1.4
			c-0.9,0.2-1.9-0.4-3-0.2c-1.3,0.2-2.7,0.1-3.3-1.1c-0.7-1.5-2.2-1.6-2.2-2.1C24.9,79,24.6,68.9,24.6,65.2"/>
		<path class="st8" d="M24.6,65.2c1.1,0.9,3.1,0.4,3.3,2.1c0.1,0.9,1.5,0.9,1.8,1.7c1,2,2.7,1.2,3.2,1.8c0.8,1,2.3,2,3.5,1.7
			c1.3-0.3,2.7,1.1,4,1.9c2.3,1.4,4.4,0.8,4.4,6c0,2,0.1,4.5-0.5,5.4c-1.3,1.8-3.8,1.6-6.3,2.1c-0.5,0.1-2.7-2-4.7-1.4
			c-0.9,0.2-1.9-0.4-3-0.2c-1.3,0.2-2.7,0.1-3.3-1.1c-0.7-1.5-2.2-1.6-2.2-2.1C24.9,79,24.6,68.9,24.6,65.2z"/>
		<path class="st6" d="M39.3,68.3c-2.2-1.7-11.2-5.2-12.4-7.8c-1.3-2.5,0.9-6,0.3-4.1c-0.8,2.3,7.4,5.7,9.6,6.6
			c0.9,0.4,3.7,1.4,3.7,2.5c0,0.2-0.3,1-0.3,1.3C40.2,67.7,39.3,68.2,39.3,68.3"/>
		<path class="st8" d="M39.3,68.3c-2.2-1.7-11.2-5.2-12.4-7.8c-1.3-2.5,0.9-6,0.3-4.1c-0.8,2.3,7.4,5.7,9.6,6.6
			c0.9,0.4,3.7,1.4,3.7,2.5c0,0.2-0.3,1-0.3,1.3C40.2,67.7,39.3,68.2,39.3,68.3z"/>
		<path class="st9" d="M39.9,68c-2.3-1.8-11.4-5.6-12.7-8.4c-1.3-2.7,1-6.5,0.3-4.4c-0.7,2.5,7.6,6.1,9.9,7.2
			c0.9,0.4,3.8,1.5,3.8,2.7c0,0.2-0.3,1.2-0.3,1.4C40.8,67.3,39.9,67.8,39.9,68"/>
		<path class="st8" d="M39.9,68c-2.3-1.8-11.4-5.6-12.7-8.4c-1.3-2.7,1-6.5,0.3-4.4c-0.7,2.5,7.6,6.1,9.9,7.2
			c0.9,0.4,3.8,1.5,3.8,2.7c0,0.2-0.3,1.2-0.3,1.4C40.8,67.3,39.9,67.8,39.9,68z"/>
		<path class="st7" d="M43.5,68.2c0.1-9.3,1.9-19.3,0.7-23.2c-5-3.3-8.2-5.6-11.4-8.5c-0.4-0.4-4.5,15.7-5.8,19.2
			C28.7,60.2,36.1,61.7,43.5,68.2"/>
		<path class="st8" d="M43.5,68.2c0.1-9.3,1.9-19.3,0.7-23.2c-5-3.3-8.2-5.6-11.4-8.5c-0.4-0.4-4.5,15.7-5.8,19.2
			C28.7,60.2,36.1,61.7,43.5,68.2z"/>
		<path class="st10" d="M39.7,49.5c-0.7-0.3-2.2-1.8-2.9-2.1c-1.6-0.7-5-3.7-5.7-3c-1.4,1.3-1.7,3.4-2,5.1c-0.1,0.8,0.6,0.8,1.3,1.1
			c1.1,0.5,1.6,1.2,2.9,1.3c3.1,0.4,4.8,2.8,6.4,2.1c0.7-0.3,0.3-2.5,1.1-2.9C41.8,50.5,40.2,50.2,39.7,49.5"/>
		<path class="st8" d="M39.7,49.5c-0.7-0.3-2.2-1.8-2.9-2.1c-1.6-0.7-5-3.7-5.7-3c-1.4,1.3-1.7,3.4-2,5.1c-0.1,0.8,0.6,0.8,1.3,1.1
			c1.1,0.5,1.6,1.2,2.9,1.3c3.1,0.4,4.8,2.8,6.4,2.1c0.7-0.3,0.3-2.5,1.1-2.9C41.8,50.5,40.2,50.2,39.7,49.5z"/>
		<path class="st11" d="M44,56.7c0.1,0.1-0.1,0.5-0.3,0.9c0.2,0,0.3-0.1,0.5-0.3c-0.1,0.3-0.3,0.5-0.4,0.7c0.1,0,0.2,0,0.4-0.3v0.2
			c0,0.1-0.1,0.4-0.2,0.5c-0.2,0.1-0.2,0.4-0.3,0.6c-0.2-0.3-0.4-0.7-0.1-1.5c-0.2-0.1,0-0.5,0.2-0.7c0,0-0.2,0.1-0.2,0.2
			c0.1-0.3,0.1-0.7,0.4-1c0.2-0.2,0.5-0.2,0.6,0.2c0,0.2,0,0.2-0.3,0.4C43.8,56.7,43.8,56.7,44,56.7"/>
		<path class="st6" d="M32.8,36.5c1.8,5.1,1.9,14.1,3.3,19.7c0.1,0.3,0.3,1.6,0.4,1.7c0,0-0.8-1-1.1-1.1c-1.2-0.7-4.3-2.9-7.1-1.5
			c-0.2,0.1-0.4,0.3-0.6,0.4c-0.2,0.2-0.4,0.4-0.4,0.4c-0.2-0.4-0.2-0.6,0.2-0.9c0.4-1.6,0.8-3.3,1.2-5.1c0.2-0.8,0.4-1.7,0.6-2.5
			C30.5,42.5,31.8,37.8,32.8,36.5"/>
		<path class="st8" d="M32.8,36.5c1.8,5.1,1.9,14.1,3.3,19.7c0.1,0.3,0.3,1.6,0.4,1.7c0,0-0.8-1-1.1-1.1c-1.2-0.7-4.3-2.9-7.1-1.5
			c-0.2,0.1-0.4,0.3-0.6,0.4c-0.2,0.2-0.4,0.4-0.4,0.4c-0.2-0.4-0.2-0.6,0.2-0.9c0.4-1.6,0.8-3.3,1.2-5.1c0.2-0.8,0.4-1.7,0.6-2.5
			C30.5,42.5,31.8,37.8,32.8,36.5z"/>
		<path class="st6" d="M43.7,44.9l-11.3-8.4l0.1-0.5c0-0.1,6.4,5,11.6,8.5C44.4,44.6,43.9,44.5,43.7,44.9"/>
		<path class="st8" d="M43.7,44.9l-11.3-8.5l0.1-0.5c0-0.1,6.4,5,11.6,8.5C44.4,44.6,43.9,44.5,43.7,44.9z M36.9,64.3v0.6
			c0,0.1-0.1,0.2-0.1,0.3c0,0-0.1,0.1-0.1,0.2c0,0.1,0,0.2,0,0.4v0.2c0,0.1,0,0.3,0.1,0 M37.9,64.8v0.6c0,0.1-0.1,0.2-0.1,0.3
			c0,0-0.1,0.1-0.1,0.2c0,0.1,0,0.3,0,0.4v0.2c0,0.1-0.1,0.3,0.1,0 M38.9,65.5c0,0.2,0,0.5,0,0.6c0,0.1-0.1,0.2-0.1,0.3
			c0,0-0.1,0.1-0.1,0.2c0,0.1,0,0.2,0,0.4v0.2c0,0.1,0,0.3,0.1,0 M35.6,63.5c0,0-0.2,0.2-0.2,0.2v0.1v0l0,0.1v0v0.1v0v0l0,0.1v0v0.1
			v0.1v0.2v0.1v0.1v0.1v0.1v0v0.1v0.2 M34.7,62.9c-0.2,0.3-0.2,0.7-0.2,1.1c0,0.1,0,0.4-0.1,0.4c0,0.1-0.2,0.3-0.2,0.4l-0.1,0
			c-0.1,0.1,0.1,0-0.6,0.1 M33,62c0,0.1,0,0.2,0,0.3v0.1v0.1l0,0.1v0v0.1v0v0.1v0v0.1v0.1V63v0.1v0v0.2v0.1v0.2v0.1v0v0v0
			c0,0.2,0,0.3,0.1-0.1 M32.2,61.4c0,0.1,0,0.2,0,0.3v0.1v0L32.1,62V62l0,0v0v0.1v0v0.1v0.1v0.1v0.1v0c0,0,0,0.1,0,0.2V63v0.2v0.1
			v0.1v0.1v0c0,0.1,0,0.2,0.1-0.1 M27.5,57.8c0,0-0.1,0.1-0.2,0.2l0,0v0.1l0,0v0.1l-0.1,0v0l0,0.1v0.1v0l-0.1,0v0.1
			c0,0.1,0,0.2,0,0.3c0,0.1,0,0.1,0,0.1v0.2v0.1v0v0.1v0.1c0,0.1-0.1,0.1,0.1,0.1 M28.6,59c0,0-0.2,0.1-0.2,0.1l-0.1,0v0.1l-0.1,0.1
			l0,0v0.1h-0.1v0.1v0.1v0v0l0,0.1v0.1c0,0,0,0.1,0,0.2c0,0.1-0.1,0-0.1,0.1v0.1v0.1v0v0v0.1c0,0,0,0.1,0,0.1 M33.9,62.6
			c-0.2,0.4-0.2,0.7-0.1,1.1c0,0.1,0,0.4-0.1,0.4c0,0.1-0.2,0.3-0.2,0.4l-0.1,0.1c-0.1,0.1,0.1-0.1-0.6,0.1 M29.6,59.5
			c0,0.4-0.2,0.8-0.2,1.2v0.6v0.3c0,0.1-0.1,0.3,0.1,0 M30.6,60.3c-0.1,0.4-0.2,0.8-0.2,1.3v0.5c0,0.2,0.1,0.4-0.1,0.4 M38.5,65
			c0,0.1,0.1,0.2,0.1,0.2v0.1v0.2v0.1v0v0.1v0.1v0v0.1v0.1v0l0,0.1v0.1l0,0v0.1c-0.1,0.1-0.1,0.1-0.1,0.2c0,0-0.1,0.1-0.1,0.2
			c0,0,0,0.1,0,0.1l-0.1,0.1v0V67v0v0.1 M36.5,63.8c0,0-0.1,0.2-0.1,0.3v0.1l-0.1,0.1v0l0,0.1v0l0,0.1v0v0.1l-0.1,0v0v0v0.1v0.1v0.1
			c0,0.1,0,0.1,0,0.2l0,0.1v0.1v0.1v0.1v0v0.1c0,0,0,0.1,0,0.1 M27.8,58.2c0,0.1-0.1,0.2-0.2,0.2l-0.1,0v0.1l0,0v0l0,0.1v0l0,0.1v0
			v0l0,0.1V59c0,0.1,0,0.2,0,0.3c0,0,0,0.1,0,0.1v0.2v0.1v0.1v0.1V60c0,0.1,0,0.1,0.1,0 M29,59.6v0.2v0V60v0v0.1v0v0l0,0.1v0v0.1
			l0,0.1v0c0,0,0,0.1,0,0.2V61c0,0,0,0.1,0,0.1v0.2v0v0v0.1c0,0.1,0,0.1,0.1,0.1 M30,60.1c0,0.1,0,0.2,0,0.3v0.1v0l-0.1,0.1l0,0v0v0
			v0.1v0v0V61v0.1v0.1v0.1v0.2v0.2v0.2v0.1V62v0v0c0,0.1,0,0.2,0.1-0.1 M31.8,61.6l0,0.2v0.1l0,0v0V62v0h0v0.1v0l-0.1,0v0.1v0.1
			c0,0.1,0,0.2,0,0.3v0.1V63V63v0.1v0v0c0,0,0,0.1,0.1,0.1 M31.1,60.9c0,0-0.1,0.2-0.1,0.2v0.1v0v0.1v0.1l0,0.1v0.1l0,0v0v0.1v0v0.2
			c0,0.1,0,0.3,0,0.4v0.2v0.2v0.1v0v0v0.1v0.2 M39.7,65.5c0,0-0.1,0.2-0.1,0.2c0,0.1,0,0.1,0,0.2l0,0l-0.1,0.1v0.1h0v0l-0.1,0v0l0,0
			v0l0,0v0v0.1l-0.1,0.1v0.1v0.2l0,0.1v0.1v0.1v0v0v0.1v0.2 M35.1,63.1c0,0.1-0.1,0.3-0.1,0.3v0.1v0.1v0v0v0v0v0v0.1v0v0.1v0.1v0
			c0,0,0,0.1,0,0.2v0.1c0,0.1-0.1,0-0.1,0.1l0,0.1l-0.1,0.1v0.1h0c-0.1,0-0.1,0.2,0,0 M33.4,62.4l0,0.2v0v0l0,0.1v0l-0.1,0.1v0.1V63
			c0,0.1,0,0.1,0,0.2v0.1v0.1v0.1v0.1v0.1v0V64 M32.7,61.8c-0.2,0.1-0.2,0.1-0.2,0.3c0,0.6,0,1.4,0,2.1 M34.3,63l-0.1,0.3v0.1v0v0.1
			l-0.1,0l0,0.1v0v0v0.1v0v0.1v0.2v0.1v0.1v0.1v0.1v0v0.1v0.2 M35.9,63.9c-0.1,0.1-0.2,0.2-0.2,0.3v0.1v0l-0.1,0.1l0,0v0.1v0v0.1v0
			v0v0.1v0.1V65l0,0.1v0.1v0.2v0v0v0c0,0.1,0,0.2,0,0.2 M37.5,64.5c0,0.2,0,0.5,0,0.6c0,0.1-0.1,0.2-0.1,0.3c0,0-0.1,0.1-0.1,0.2
			c0,0.1,0,0.2,0,0.4v0.2c0,0.1,0,0.3,0.1,0 M28.2,58.5c0,0-0.2,0.1-0.2,0.2l0,0v0.1l-0.1,0V59l0,0v0l0,0.1v0v0l0,0v0.1
			c0,0.1,0,0.2,0,0.3c0,0,0,0.1,0,0.2V60v0.1v0l0,0.1v0.1c0,0.1,0,0.1,0.1,0"/>
		<path class="st6" d="M26.5,58.1c0,0.2,0.4-1.6,0.6-2.3c0.1-0.4,1.7-2.2,2.4-2.2c0.4,0,1-0.1,1.5-0.1c2.2,0,3.1,1.1,4,2.1
			c0.2,0.2,0.7,0.6,0.7,0.8c0,0.2,0.5,0.6,0.8,1.7C33.4,55.8,27.3,55.4,26.5,58.1"/>
		<path class="st8" d="M26.5,58.1c0,0.2,0.4-1.6,0.6-2.3c0.1-0.4,1.7-2.2,2.4-2.2c0.4,0,1-0.1,1.5-0.1c2.2,0,3.1,1.1,4,2.1
			c0.2,0.2,0.7,0.6,0.7,0.8c0,0.2,0.5,0.6,0.8,1.7C33.4,55.8,27.3,55.4,26.5,58.1z"/>
		<path class="st9" d="M26.5,57.8c0,0.2,0.4-1.5,0.6-2.1c0.1-0.4,1.7-2.1,2.4-2.1c0.4,0,1-0.1,1.5-0.1c2.2,0,3.1,1,4,1.9
			c0.2,0.2,0.7,0.5,0.7,0.8c0.1,0.3,0.3,0.7,0.5,1.5C33.1,55.5,27.3,55.3,26.5,57.8"/>
		<path class="st8" d="M26.5,57.8c0,0.2,0.4-1.5,0.6-2.1c0.1-0.4,1.7-2.1,2.4-2.1c0.4,0,1-0.1,1.5-0.1c2.2,0,3.1,1,4,1.9
			c0.2,0.2,0.7,0.5,0.7,0.8c0.1,0.3,0.3,0.7,0.5,1.5C33.1,55.5,27.3,55.3,26.5,57.8z"/>
		<path class="st7" d="M32.5,36.3c1.8,5.3,1.8,14.6,3.4,19.9c0,0.2-2.7-3-7.7-1.4c-0.4,0.1-1.1,0.9-1.1,0.9
			C30.1,45.2,30.9,39.9,32.5,36.3"/>
		<path class="st8" d="M32.5,36.3c1.8,5.3,1.8,14.6,3.4,19.9c0,0.2-2.7-3-7.7-1.4c-0.4,0.1-1.1,0.9-1.1,0.9
			C30.1,45.2,30.9,39.9,32.5,36.3z"/>
		<path class="st10" d="M34.3,44.8c0.1,1,0.2,2.7,0.3,3.8c0,0.2-4.3-0.9-6,1.6c0.6-2.2,0.8-3.4,1.2-4.6c0-0.1,0.1-0.2,0.2-0.3
			C30.9,44.5,34.2,44.4,34.3,44.8"/>
		<path class="st8" d="M34.3,44.8c0.1,1,0.2,2.7,0.3,3.8c0,0.2-4.3-0.9-6,1.6c0.6-2.2,0.8-3.4,1.2-4.6c0-0.1,0.1-0.2,0.2-0.3
			C30.9,44.5,34.2,44.4,34.3,44.8z"/>
		<polygon class="st6" points="32.5,34.5 30.2,33.4 30.2,35.8 30.2,35.9 30.2,35.9 32.6,36.7 		"/>
		<polygon class="st8" points="32.5,34.5 30.2,33.4 30.2,35.8 30.2,35.9 30.2,35.9 32.6,36.7 		"/>
		<path class="st9" d="M32.6,36.6l-0.2-2.1l-2-1.1l0,2.3C30.3,36,32.5,36.3,32.6,36.6"/>
		<path class="st8" d="M32.6,36.6l-0.2-2.1l-2-1.1l0,2.3C30.3,36,32.5,36.3,32.6,36.6z"/>
		<path class="st9" d="M32.6,36.6l-2.2-3l0,2.2C30.4,36.1,32.4,36.4,32.6,36.6"/>
		<path class="st8" d="M32.6,36.6l-2.2-3l0,2.2C30.4,36.1,32.4,36.4,32.6,36.6z"/>
		<path class="st6" d="M32.6,35.8c0.4,0,0.7,0.3,0.7,0.7c0,0.3-0.3,0.7-0.7,0.7c-0.4,0-0.7-0.3-0.7-0.7
			C31.9,36.1,32.2,35.8,32.6,35.8"/>
		<path class="st8" d="M32.6,35.8c0.4,0,0.7,0.3,0.7,0.7c0,0.3-0.3,0.7-0.7,0.7c-0.4,0-0.7-0.3-0.7-0.7
			C31.9,36.1,32.2,35.8,32.6,35.8z"/>
		<path class="st9" d="M32.6,36c0.3,0,0.5,0.2,0.5,0.5c0,0.2-0.2,0.5-0.5,0.5c-0.3,0-0.5-0.2-0.5-0.5C32.1,36.2,32.3,36,32.6,36"/>
		<path class="st8" d="M32.6,36c0.3,0,0.5,0.2,0.5,0.5c0,0.2-0.2,0.5-0.5,0.5c-0.3,0-0.5-0.2-0.5-0.5C32.1,36.2,32.3,36,32.6,36z"/>
		<path class="st12" d="M35.8,69.3c-0.1,0.9,0.1,1.9,0.3,2.8c0.1,0.2,0,0.9,0,1l0.1,0.3c0,0.1-0.1,1-0.1,1l0,0.2
			c0,0.4,0.2,1-0.3,1.2 M33.8,68c0.1,1,0.2,2.1,0.4,3.1c0.1,0.9-0.1,1.8,0.1,2.7c0,0.4,0.3,1.8-0.4,1.6 M30.4,65.9
			c-0.2,1.3-0.1,2.9-0.1,4.2c0,0.5-0.4,1.4-0.4,1.9v1.2 M31.7,66c0.4,1.5,1,4.2,0.3,5.6c-0.1,0.2-0.2,1.1-0.2,1.5v1.5 M28.7,65.6
			c-1.4,1.6-0.9,6.8-0.9,9.2 M26.4,63.7C25.7,65,26,67.4,26,69.1c0,1.8-0.1,3.6-0.1,5.4 M35.7,56.2c-0.1,0.1-0.1,0.1-0.1,0.2v0.2
			v0.2c0,0,0,0.1,0,0.1v0.2c0,0.1,0,0.1-0.1,0.2 M35.1,55.9c0,0.2,0.1,0.5,0.1,0.8v0.2V57h0 M34.6,55.6v1.2 M34,55.4v1.4 M33.5,55.2
			c0,0.4,0,0.9,0,1.2 M32.9,55c0,0.3,0,0.6,0,0.9v0.2v0.1c0,0,0,0.2,0,0 M32.4,54.9v0.7c0,0.2-0.1,0.3-0.1,0.5 M31.9,54.9v0.4
			c0,0.1-0.1,0.3-0.1,0.4v0.3v0.2 M31.5,54.8v0.7v0.3V56v0.1l0,0 M31.1,54.7c0,0.2,0,0.5,0,0.7v0.4v0.1V56c0,0.1,0,0.1,0,0
			 M30.6,54.6v0.8v0.3v0.1c0,0-0.1,0.1-0.1,0.1 M30.1,54.8C30.1,54.6,30.1,54.8,30.1,54.8l0,0.7c0,0-0.1,0.2-0.1,0.3
			c0,0,0,0.1,0,0.1V56v0 M28.7,55.1v0.2c0,0-0.1,0.4-0.1,0.5c0,0.1,0,0.2,0,0.3c0,0,0,0.4,0,0.1 M29.7,54.9
			C29.6,54.6,29.6,54.9,29.7,54.9c-0.1,0.4-0.1,0.8-0.1,1.2 M29.1,55C29,55.1,29,55.4,29,55.6v0.3c0,0.1-0.1,0.2-0.1,0.2 M28.5,55.2
			c0,0.2-0.2,0.4-0.2,0.6c0,0.1-0.1,0.2-0.1,0.3c0,0.1,0,0.1,0,0.3 M28,55.5C28,55.3,28,55.4,28,55.5c0,0.1-0.1,0.1-0.1,0.1
			c0,0-0.1,0.2-0.1,0.3c0,0.2,0,0.2,0,0.3c0,0.1,0,0.1,0,0.2c0,0,0,0.1,0,0.1c0,0,0,0.1-0.1,0 M27.5,55.7c-0.1,0.1-0.1,0.4-0.1,0.6
			c0,0.2-0.1,0.4-0.1,0.5"/>
		<path class="st8" d="M26.5,80.8c0.1,1.5-0.1,3.9,0.4,5.2c0.3,0.7,0.7,1.7,0.7,2.4c0,0.1,0.3,0.8,0.4,0.9c0.1,0.1,0.2,0.2,0.3,0.2
			c0.1,0,0.4,0.2,0.4-0.1 M28.5,81.5c0.5,2,0.8,4.2,1.1,6.2c0.1,0.8,0.5,1.5,0.9,2.1c0.1,0.2,0.9,1.2,1.1,1.2 M32.2,81.6
			c0.2,1.2,0.4,3.4,0.9,4.5c0.2,0.5,0.3,1.3,0.5,1.8c0.2,0.5,0.5,1.1,0.6,1.6c0,0.4,0.2,1.1,0.3,1.4c0,0.1,0.5,0.7,0.6,0.9
			c0,0.1,0.3,0.4,0.2,0.1 M34.2,83.7c0.2,0.6,0.4,1.4,0.6,1.9c0.2,0.7,0.9,1.4,1.2,2.1c0.3,0.8,0.9,1.4,1.2,2.1
			c0.2,0.5,0.7,1.6,0.9,2.3 M30.2,82.8c0.5,1.5,0.8,3.2,1.1,4.7c0.1,0.6,0.5,1.1,0.9,1.6c0.1,0.2,0.9,0.9,1.1,0.9"/>
		<path class="st6" d="M59.7,95.9l19.4-44.5l16-13l-0.6,44.4C94.4,92.6,83.8,107.3,59.7,95.9"/>
		<path class="st7" d="M58.4,95.1l19.8-43.8l16.3-12.8L94,82.3C93.9,91.9,83,106.3,58.4,95.1"/>
		<path class="st6" d="M87.3,44.6l8-6l-0.1-0.4c0,0-4.5,3.5-8.1,6C86.8,44.3,87.2,44.2,87.3,44.6"/>
		<path class="st8" d="M87.3,44.6l8-6l-0.1-0.4c0,0-4.5,3.5-8.1,6C86.8,44.3,87.2,44.2,87.3,44.6z"/>
		<path class="st6" d="M95.2,37.2l1.6-0.7l0,1.7c0,0,0,0,0,0v0l-1.7,0.5L95.2,37.2z"/>
		<path class="st8" d="M95.2,37.2l1.6-0.7l0,1.7c0,0,0,0,0,0v0l-1.7,0.5L95.2,37.2z"/>
		<path class="st9" d="M95.1,38.7l0.2-1.5l1.4-0.7l0,1.6C96.7,38.2,95.2,38.5,95.1,38.7"/>
		<path class="st8" d="M95.1,38.7l0.2-1.5l1.4-0.7l0,1.6C96.7,38.2,95.2,38.5,95.1,38.7z"/>
		<path class="st9" d="M95.1,38.7l1.6-2.1l0,1.6C96.7,38.3,95.2,38.6,95.1,38.7"/>
		<path class="st8" d="M95.1,38.7l1.6-2.1l0,1.6C96.7,38.3,95.2,38.6,95.1,38.7z"/>
		<path class="st6" d="M95.1,38.1c-0.3,0-0.5,0.2-0.5,0.5c0,0.3,0.2,0.5,0.5,0.5c0.3,0,0.5-0.2,0.5-0.5
			C95.6,38.3,95.4,38.1,95.1,38.1"/>
		<path class="st8" d="M95.1,38.1c-0.3,0-0.5,0.2-0.5,0.5c0,0.3,0.2,0.5,0.5,0.5c0.3,0,0.5-0.2,0.5-0.5
			C95.6,38.3,95.4,38.1,95.1,38.1z"/>
		<path class="st9" d="M95.1,38.3c-0.2,0-0.3,0.1-0.3,0.3c0,0.2,0.1,0.3,0.3,0.3c0.2,0,0.3-0.1,0.3-0.3
			C95.4,38.4,95.3,38.3,95.1,38.3"/>
		<path class="st8" d="M95.1,38.3c-0.2,0-0.3,0.1-0.3,0.3c0,0.2,0.1,0.3,0.3,0.3c0.2,0,0.3-0.1,0.3-0.3
			C95.4,38.4,95.3,38.3,95.1,38.3z"/>
		<path class="st10" d="M94.3,65.3c-1.1,0.9-3.1,0.4-3.3,2.1c-0.1,1-1.5,0.9-1.8,1.7c-1,2-2.7,1.2-3.2,1.8c-0.8,1-2.3,2-3.5,1.7
			c-1.3-0.3-2.7,1.1-4,1.9C76.1,76,74,75.4,74,80.5c0,2-0.1,4.6,0.5,5.5c1.3,1.8,3.8,1.6,6.3,2.1c0.5,0.1,2.7-2,4.7-1.4
			c0.9,0.2,1.9-0.4,3-0.2c1.3,0.2,2.7,0.1,3.3-1.1c0.7-1.5,2.2-1.6,2.2-2.2C94,79.2,94.2,69.1,94.3,65.3"/>
		<path class="st8" d="M94.3,65.3c-1.1,0.9-3.1,0.4-3.3,2.1c-0.1,1-1.5,0.9-1.8,1.7c-1,2-2.7,1.2-3.2,1.8c-0.8,1-2.3,2-3.5,1.7
			c-1.3-0.3-2.7,1.1-4,1.9C76.1,76,74,75.4,74,80.5c0,2-0.1,4.6,0.5,5.5c1.3,1.8,3.8,1.6,6.3,2.1c0.5,0.1,2.7-2,4.7-1.4
			c0.9,0.2,1.9-0.4,3-0.2c1.3,0.2,2.7,0.1,3.3-1.1c0.7-1.5,2.2-1.6,2.2-2.2C94,79.2,94.2,69.1,94.3,65.3z"/>
		<path class="st6" d="M79.5,68.5c2.2-1.7,11.2-5.2,12.5-7.7c1.2-2.5-0.9-6-0.4-4.1c0.8,2.3-7.4,5.7-9.6,6.6
			c-0.9,0.4-3.7,1.3-3.7,2.5c0,0.2,0.3,1.1,0.3,1.3C78.6,67.9,79.5,68.3,79.5,68.5"/>
		<path class="st8" d="M79.5,68.5c2.2-1.7,11.2-5.2,12.5-7.7c1.2-2.5-0.9-6-0.4-4.1c0.8,2.3-7.4,5.7-9.6,6.6
			c-0.9,0.4-3.7,1.3-3.7,2.5c0,0.2,0.3,1.1,0.3,1.3C78.6,67.9,79.5,68.3,79.5,68.5z"/>
		<path class="st9" d="M79,68.1c2.3-1.8,11.4-5.6,12.7-8.4c1.3-2.7-0.9-6.5-0.3-4.4c0.8,2.5-7.6,6.1-9.9,7.2
			c-0.9,0.4-3.8,1.4-3.8,2.7c0,0.2,0.3,1.2,0.3,1.5C78,67.5,79,68,79,68.1"/>
		<path class="st8" d="M79,68.1c2.3-1.8,11.4-5.6,12.7-8.4c1.3-2.7-0.9-6.5-0.3-4.4c0.8,2.5-7.6,6.1-9.9,7.2
			c-0.9,0.4-3.8,1.4-3.8,2.7c0,0.2,0.3,1.2,0.3,1.5C78,67.5,79,68,79,68.1z"/>
		<path class="st7" d="M75.3,68.3c-0.1-9.3-2-19.3-0.8-23.2c5-3.3,8.2-5.7,11.4-8.5c0.4-0.3,4.4,15.7,5.7,19.2
			C90.2,60.3,82.8,61.9,75.3,68.3"/>
		<path class="st8" d="M75.3,68.3c-0.1-9.3-2-19.3-0.8-23.2c5-3.3,8.2-5.7,11.4-8.5c0.4-0.3,4.4,15.7,5.7,19.2
			C90.2,60.3,82.8,61.9,75.3,68.3z"/>
		<path class="st10" d="M79.1,49.7c0.7-0.3,2.2-1.8,2.9-2.1c1.6-0.7,5-3.7,5.7-3c1.4,1.3,1.7,3.4,2,5c0.1,0.8-0.6,0.8-1.3,1.1
			c-1.1,0.5-1.6,1.1-2.8,1.3c-3.1,0.4-4.8,2.7-6.4,2c-0.6-0.3-0.3-2.5-1.1-2.9C77.1,50.7,78.7,50.3,79.1,49.7"/>
		<path class="st8" d="M79.1,49.7c0.7-0.3,2.2-1.8,2.9-2.1c1.6-0.7,5-3.7,5.7-3c1.4,1.3,1.7,3.4,2,5c0.1,0.8-0.6,0.8-1.3,1.1
			c-1.1,0.5-1.6,1.1-2.8,1.3c-3.1,0.4-4.8,2.7-6.4,2c-0.6-0.3-0.3-2.5-1.1-2.9C77.1,50.7,78.7,50.3,79.1,49.7z"/>
		<path class="st11" d="M74.9,56.8c-0.1,0.2,0.1,0.5,0.4,0.9c-0.2,0-0.3-0.1-0.5-0.2c0.1,0.3,0.3,0.5,0.4,0.7
			c-0.1,0.1-0.3,0-0.4-0.2v0.2c0.1,0.1,0.1,0.4,0.2,0.5c0.1,0,0.2,0.3,0.3,0.6c0.2-0.3,0.3-0.7,0.1-1.5c0.2-0.2,0-0.5-0.2-0.7
			c0,0,0.2,0.1,0.2,0.1c0-0.4-0.1-0.7-0.4-1.1c-0.2-0.1-0.4-0.1-0.6,0.1c-0.1,0.2-0.1,0.3,0.3,0.4C75,56.8,75,56.8,74.9,56.8"/>
		<path class="st6" d="M86.1,36.7c-1.8,5.1-2,14.1-3.3,19.7c-0.1,0.3-0.3,1.6-0.4,1.7c0,0,0.8-1,1.1-1.1c1.2-0.7,4.3-2.9,7.1-1.5
			c0.2,0.1,0.4,0.3,0.6,0.5c0.2,0.2,0.4,0.4,0.4,0.4c0.2-0.4,0.2-0.6-0.2-0.9c-0.4-1.6-0.8-3.3-1.1-5.1c-0.2-0.8-0.4-1.7-0.6-2.5
			C88.4,42.7,87.1,38,86.1,36.7"/>
		<path class="st8" d="M86.1,36.7c-1.8,5.1-2,14.1-3.3,19.7c-0.1,0.3-0.3,1.6-0.4,1.7c0,0,0.8-1,1.1-1.1c1.2-0.7,4.3-2.9,7.1-1.5
			c0.2,0.1,0.4,0.3,0.6,0.5c0.2,0.2,0.4,0.4,0.4,0.4c0.2-0.4,0.2-0.6-0.2-0.9c-0.4-1.6-0.8-3.3-1.1-5.1c-0.2-0.8-0.4-1.7-0.6-2.5
			C88.4,42.7,87.1,38,86.1,36.7z"/>
		<path class="st6" d="M75.1,45.1l11.3-8.5l-0.2-0.5c0-0.1-6.4,4.9-11.6,8.5C74.5,44.8,75,44.6,75.1,45.1"/>
		<path class="st8" d="M75.1,45.1l11.3-8.5l-0.2-0.5c0-0.1-6.4,4.9-11.6,8.5C74.5,44.8,75,44.6,75.1,45.1z M81.9,64.4V65
			c0,0.1,0.1,0.3,0.1,0.3c0,0.1,0.1,0.1,0.1,0.2c0,0.1,0,0.2,0,0.3v0.2c0,0.1,0,0.3-0.1,0 M81,65c0,0.2,0,0.5,0,0.6
			c0,0.1,0.1,0.2,0.1,0.3c0,0.1,0.1,0.2,0.1,0.2c0,0.1,0,0.3,0,0.4c0,0.1,0,0.2,0,0.2c0,0.1,0.1,0.3-0.1,0 M79.9,65.7
			c0,0.2,0,0.5,0,0.6c0,0.1,0.1,0.3,0.1,0.3c0,0.1,0.1,0.1,0.1,0.2c0,0.1,0,0.2,0,0.4v0.2c0,0.1,0.1,0.3-0.1,0 M83.2,63.7
			c0.1,0.1,0.2,0.1,0.2,0.2V64v0l0,0v0.1v0.1v0v0.1v0.1v0v0.1v0.1v0.2v0.1l0,0.1v0.2v0v0.1v0v0.2 M84.1,63c0.2,0.4,0.2,0.7,0.2,1.1
			c0,0.1,0,0.4,0,0.4c0.1,0.1,0.2,0.3,0.2,0.4l0,0c0.1,0.1-0.1,0,0.6,0.1 M85.9,62.1c0,0.1,0,0.2,0,0.3v0.1v0l0,0.1v0v0v0.1v0.1v0.1
			V63v0.1v0.1v0.1v0.1c0,0.1,0,0.2,0,0.2v0.2v0.2v0.1v0v0.1v0c0,0.1,0,0.3-0.1-0.1 M86.7,61.6c0,0.1,0,0.2,0,0.3V62v0l0,0.1v0.1v0v0
			v0.1v0v0.1v0.1l0,0.1v0.1v0v0.2v0.1v0.2v0.1v0.1v0l0,0.1c0,0.1,0,0.2-0.1-0.1 M91.3,57.9c0.1,0.1,0.1,0.2,0.2,0.2l0,0v0l0.1,0.1
			v0.1l0,0v0.1l0.1,0.1v0v0l0,0.1v0.1c0,0.1,0,0.2,0,0.3c0,0.1,0.1,0.1,0.1,0.2v0.2v0.1v0.1v0.1v0.1c0,0.2,0,0.2-0.1,0 M90.2,59.2
			c0.1,0,0.2,0.1,0.2,0.1l0,0.1v0.1l0.1,0v0.1v0.1h0.1v0v0.1l0,0.1v0.1l0.1,0.1v0.1c0,0.1,0,0.1,0,0.2c0,0.1,0.1,0,0.1,0.1l0,0.1
			v0.1v0v0.1v0.1c0,0,0,0.1,0,0.1 M85,62.7c0.2,0.4,0.2,0.7,0.2,1.1c0,0.1,0,0.4,0,0.4c0,0,0.2,0.3,0.2,0.4l0,0
			c0.1,0.1-0.1,0,0.6,0.1 M89.3,59.6c0.1,0.4,0.2,0.8,0.2,1.2c0,0.1,0,0.4,0,0.6v0.3c0,0.1,0.1,0.3,0,0 M88.2,60.4
			c0.1,0.4,0.2,0.9,0.2,1.3v0.5c0,0.1-0.1,0.4,0.1,0.4 M80.4,65.2c0,0.1-0.1,0.2-0.1,0.3v0.1v0.1v0.1v0v0v0.1v0V66v0.1v0l0,0.1v0.1
			l0.1,0v0.1c0,0,0.1,0,0.1,0.1c0,0.1,0.1,0.2,0.1,0.2c0,0,0.1,0.1,0.1,0.1l0,0l0,0v0.1v0.1v0.1 M82.3,64c0,0.1,0.1,0.2,0.1,0.3v0.1
			l0,0v0.1l0,0v0.1l0.1,0v0v0l0,0.1v0.1v0v0.1v0V65c0,0,0,0.1,0,0.2v0.1v0.1v0.1v0.1v0.1v0.1c0,0,0,0.2,0,0.1 M91,58.4
			c0,0.1,0.1,0.2,0.2,0.2l0.1,0v0.1l0,0v0l0.1,0v0.1l0.1,0.1v0v0.1l0,0.1v0.1c0,0.1,0,0.2,0,0.3c0,0.1,0,0.1,0,0.2l0,0.2v0.1v0v0.1
			v0.1c0,0.2,0.1,0.2-0.1,0 M89.9,59.8V60v0v0.1v0v0.1v0.1v0l0,0.1v0v0l0.1,0.1v0c0,0.1,0,0.1,0,0.2v0.2c0,0,0,0.1,0,0.2v0.1v0v0.1
			v0c0,0.1,0,0.1-0.1,0 M88.8,60.3c0,0.1,0,0.2,0,0.3v0.1v0.1l0,0.1v0.1v0V61v0v0v0.1v0.1v0.1v0.1v0.1v0.2l0,0.1c0,0,0,0.1,0,0.2
			v0.1v0v0v0.1c0,0.1,0,0.2-0.1-0.1 M87.1,61.7l0,0.2V62l0,0v0.1v0v0h0v0.1v0.1l0,0v0.1v0c0,0.1,0,0.2,0,0.3v0.1v0.2v0.1v0.1v0v0
			c0,0.1,0,0.1-0.1,0.1 M87.8,61c0,0,0.1,0.2,0.1,0.3v0v0v0v0.1v0v0.1l0,0.1v0.1v0.1v0V62c0,0.1,0,0.3,0,0.4v0.2v0.1v0.1v0v0v0v0.2
			 M79.1,65.7c0,0.1,0.1,0.2,0.1,0.3c0,0,0.1,0.1,0,0.1l0.1,0.1l0,0.1l0,0.1h0.1v0l0,0.1v0.1h0v0.1l0,0v0v0.1l0,0v0.1V67v0.1v0.1
			v0.1v0.1l0,0.1v0c0,0,0,0.2,0,0.2 M83.8,63.3c0,0.1,0.1,0.2,0.1,0.3v0.1v0v0v0v0V64v0v0.1v0v0.2v0v0.1c0,0,0,0.2,0,0.2v0.1
			c0,0.1,0,0,0,0.1v0.1l0.1,0.1l0,0h0c0,0,0.1,0.3,0,0 M85.5,62.5l0,0.2v0v0.1l0.1,0.1v0l0,0V63v0.1c0,0.1,0.1,0.2,0.1,0.2v0.1v0.1
			c0,0,0,0.1,0,0.1v0v0.1v0v0.1 M86.2,61.9c0.2,0,0.2,0.1,0.2,0.3c0,0.7,0,1.4,0,2.1 M84.6,63.2l0.1,0.2v0.1v0v0l0,0.1v0.1v0v0.1
			v0.1v0v0.2c0,0.1,0,0.1,0,0.2v0.1v0.1v0.1v0v0v0V65 M83,64.1c0,0,0.2,0.2,0.2,0.2v0.1v0.1l0,0v0v0.1l0,0v0v0.1v0.1v0.1V65v0.2v0.1
			v0.2v0.1l0,0v0.1v0.1V66 M81.4,64.6v0.6c0,0.1,0.1,0.2,0.1,0.3c0,0,0.1,0.1,0.1,0.2c0,0.1,0,0.2,0,0.4c0,0,0,0.1,0,0.2
			c0,0.1,0,0.3-0.1,0 M90.6,58.7c0,0.1,0.1,0.1,0.2,0.2l0,0.1v0l0.1,0.1v0l0,0v0l0,0.1v0.1v0l0,0.1v0.1c0,0.1,0.1,0.2,0.1,0.3
			c0,0.1,0,0.1,0,0.1v0.2v0.1v0v0.1v0c0,0.1,0,0.2-0.1,0"/>
		<path class="st6" d="M92.3,58.3c0.1,0.2-0.4-1.7-0.6-2.3c-0.1-0.4-1.7-2.2-2.4-2.2c-0.4,0-1-0.1-1.5-0.1c-2.2,0-3.1,1.1-4,2.1
			c-0.2,0.2-0.7,0.5-0.8,0.8c0,0.2-0.5,0.6-0.8,1.7C85.4,56,91.6,55.6,92.3,58.3"/>
		<path class="st8" d="M92.3,58.3c0.1,0.2-0.4-1.7-0.6-2.3c-0.1-0.4-1.7-2.2-2.4-2.2c-0.4,0-1-0.1-1.5-0.1c-2.2,0-3.1,1.1-4,2.1
			c-0.2,0.2-0.7,0.5-0.8,0.8c0,0.2-0.5,0.6-0.8,1.7C85.4,56,91.6,55.6,92.3,58.3z"/>
		<path class="st9" d="M92.3,57.9c0.1,0.2-0.4-1.5-0.6-2.1c-0.1-0.4-1.7-2.1-2.4-2.1c-0.4,0-1-0.1-1.5-0.1c-2.2,0-3.1,1-4,1.9
			c-0.2,0.2-0.7,0.5-0.8,0.8c-0.1,0.3-0.3,0.7-0.5,1.5C85.8,55.7,91.6,55.4,92.3,57.9"/>
		<path class="st8" d="M92.3,57.9c0.1,0.2-0.4-1.5-0.6-2.1c-0.1-0.4-1.7-2.1-2.4-2.1c-0.4,0-1-0.1-1.5-0.1c-2.2,0-3.1,1-4,1.9
			c-0.2,0.2-0.7,0.5-0.8,0.8c-0.1,0.3-0.3,0.7-0.5,1.5C85.8,55.7,91.6,55.4,92.3,57.9z"/>
		<path class="st7" d="M86.3,36.4C84.5,41.7,84.5,51,83,56.3c-0.1,0.2,2.7-3,7.7-1.4c0.4,0.1,1.1,0.9,1.1,0.9
			C88.8,45.3,87.9,40.1,86.3,36.4"/>
		<path class="st8" d="M86.3,36.4C84.5,41.7,84.5,51,83,56.3c-0.1,0.2,2.7-3,7.7-1.4c0.4,0.1,1.1,0.9,1.1,0.9
			C88.8,45.3,87.9,40.1,86.3,36.4z"/>
		<path class="st10" d="M84.6,45c-0.1,1-0.2,2.6-0.3,3.8c0,0.2,4.3-0.9,6,1.6c-0.6-2.2-0.8-3.4-1.2-4.6c0-0.1-0.1-0.3-0.2-0.4
			C88,44.6,84.7,44.5,84.6,45"/>
		<path class="st8" d="M84.6,45c-0.1,1-0.2,2.6-0.3,3.8c0,0.2,4.3-0.9,6,1.6c-0.6-2.2-0.8-3.4-1.2-4.6c0-0.1-0.1-0.3-0.2-0.4
			C88,44.6,84.7,44.5,84.6,45z"/>
		<polygon class="st6" points="86.4,34.7 88.7,33.6 88.7,36 88.7,36 88.7,36.1 86.2,36.9 		"/>
		<polygon class="st8" points="86.4,34.7 88.7,33.6 88.7,36 88.7,36 88.7,36.1 86.2,36.9 		"/>
		<path class="st9" d="M86.3,36.8l0.2-2.1l2-1.1l-0.1,2.2C88.5,36.1,86.3,36.5,86.3,36.8"/>
		<path class="st8" d="M86.3,36.8l0.2-2.1l2-1.1l-0.1,2.2C88.5,36.1,86.3,36.5,86.3,36.8z"/>
		<path class="st9" d="M86.3,36.8l2.2-3l0,2.2C88.5,36.2,86.5,36.6,86.3,36.8"/>
		<path class="st8" d="M86.3,36.8l2.2-3l0,2.2C88.5,36.2,86.5,36.6,86.3,36.8z"/>
		<path class="st6" d="M86.3,35.9c-0.4,0-0.7,0.3-0.7,0.6c0,0.4,0.3,0.7,0.7,0.7c0.4,0,0.7-0.3,0.7-0.7
			C86.9,36.2,86.7,35.9,86.3,35.9"/>
		<path class="st8" d="M86.3,35.9c-0.4,0-0.7,0.3-0.7,0.6c0,0.4,0.3,0.7,0.7,0.7c0.4,0,0.7-0.3,0.7-0.7
			C86.9,36.2,86.7,35.9,86.3,35.9z"/>
		<path class="st9" d="M86.3,36.1c-0.3,0-0.5,0.2-0.5,0.5c0,0.3,0.2,0.5,0.5,0.5c0.3,0,0.5-0.2,0.5-0.5
			C86.8,36.3,86.5,36.1,86.3,36.1"/>
		<path class="st8" d="M86.3,36.1c-0.3,0-0.5,0.2-0.5,0.5c0,0.3,0.2,0.5,0.5,0.5c0.3,0,0.5-0.2,0.5-0.5
			C86.8,36.3,86.5,36.1,86.3,36.1z M83.2,56.3c0.1,0.1,0.1,0.1,0.1,0.2v0.2v0.2c0,0,0,0.1,0,0.2v0.2c0,0.1,0,0.1,0.1,0.2 M83.8,56.1
			c0,0.3,0,0.5,0,0.8v0.2v0.1h0 M84.2,55.8V57 M84.9,55.5v1.4 M85.4,55.3c0,0.4,0,0.9,0,1.2 M86,55.2c0,0.3,0,0.6,0,0.9v0.3v0.1
			c0,0,0,0.2,0,0 M86.5,55.1v0.7c0,0.2,0.1,0.3,0.1,0.5 M87,55v0.4c0,0.1,0,0.3,0,0.4v0.3v0.2 M87.4,54.9v0.7V56v0.1v0.1
			c0,0,0,0,0,0 M87.8,54.8c0,0.2,0,0.5,0,0.7v0.4v0.1v0.1c0,0,0,0.1,0,0 M88.3,54.8v0.8V56V56c0,0,0.1,0.1,0.1,0.1 M88.7,55
			C88.8,54.8,88.8,55,88.7,55l0,0.7c0,0,0.1,0.2,0.1,0.3c0,0,0,0.1,0,0.1c0,0.1,0,0,0,0.1v0 M90.1,55.3v0.2c0,0,0.1,0.4,0.1,0.5
			c0,0.1,0,0.2,0,0.3c0,0,0,0.4,0.1,0.1 M89.2,55C89.2,54.8,89.3,55,89.2,55c0.1,0.4,0.1,0.8,0.1,1.2 M89.7,55.1
			c0.1,0.2,0.1,0.4,0.1,0.6v0.3c0,0.1,0.1,0.2,0.1,0.2 M90.4,55.3c0,0.2,0.2,0.4,0.2,0.6c0,0.1,0.1,0.1,0.1,0.2c0,0.1,0,0.2,0,0.3
			 M90.9,55.6C90.8,55.4,90.9,55.6,90.9,55.6c0,0.1,0.1,0.1,0.1,0.1c0,0,0.1,0.2,0.1,0.3c0,0.1,0.1,0.2,0.1,0.3c0,0.1,0,0.1,0,0.2
			c0,0,0,0.1,0,0.1c0,0,0,0.1,0.1,0 M91.4,55.8c0.1,0.1,0.1,0.4,0.1,0.5c0,0.2,0.1,0.4,0.1,0.6 M92.5,63.9c0.6,1.3,0.4,3.7,0.4,5.4
			c0,1.8,0.1,3.6,0.1,5.4 M83.1,69.4c0,0.9-0.1,1.9-0.3,2.8c-0.1,0.1,0,0.9,0,1l-0.1,0.3c0,0.1,0.1,1,0.1,1l-0.1,0.2
			c0,0.4-0.2,1,0.3,1.1 M85.1,68.1c-0.1,1-0.3,2.1-0.4,3.1c-0.1,0.9,0.1,1.9,0,2.7c-0.1,0.4-0.3,1.8,0.4,1.6 M88.4,66.1
			c0.2,1.3,0.1,2.9,0.1,4.2c0,0.5,0.4,1.4,0.4,1.9v1.2 M87.1,66.2c-0.4,1.5-1,4.2-0.3,5.7c0.1,0.2,0.2,1.1,0.2,1.4v1.5 M90.1,65.8
			c1.4,1.6,1,6.8,1,9.2 M92.3,80.9c-0.1,1.5,0.1,4-0.4,5.2c-0.3,0.7-0.7,1.7-0.7,2.4c0,0.1-0.3,0.8-0.4,0.9
			c-0.1,0.1-0.2,0.2-0.3,0.2c-0.1,0-0.4,0.2-0.4-0.1 M90.3,81.6c-0.5,2-0.8,4.2-1.2,6.2c-0.1,0.8-0.5,1.5-0.9,2.1
			c-0.1,0.2-0.9,1.2-1.1,1.2 M86.7,81.7c-0.2,1.2-0.4,3.4-0.9,4.5c-0.2,0.5-0.3,1.3-0.5,1.8c-0.2,0.5-0.5,1-0.6,1.6
			c-0.1,0.4-0.2,1.1-0.3,1.4c0,0.1-0.5,0.7-0.6,0.9c0,0.1-0.3,0.5-0.2,0.1 M84.6,83.9c-0.2,0.6-0.4,1.4-0.6,1.9
			c-0.2,0.7-0.9,1.4-1.2,2.1c-0.3,0.8-0.9,1.4-1.1,2.1c-0.2,0.5-0.6,1.6-0.9,2.3 M88.7,82.9c-0.5,1.5-0.8,3.2-1.2,4.7
			c-0.1,0.6-0.5,1.1-0.9,1.6c-0.1,0.2-0.9,0.9-1.1,0.9"/>
		<path class="st6" d="M59.5,98.4c0.5-0.6,1.3-1.6-0.3-1.9C58.2,97,59.1,97.9,59.5,98.4 M61.5,91.9c0,0.7,1.5,3.1,2.5,5.5
			c0.1,0.3,0.3,0.6,0.1,0.8c-1,1.4,0.9,2.1,0.7,2.4c-0.1,0.3,0.3,0.3,0.4,0.6c0.2,0.7-0.6,0.6-1.2,0.6c-0.7,0,1.1,2.5,0.8,2.5
			c-2.1-0.5-5.1-0.1-5.1-2c0-0.8,1.1-1.3,1-2c0-0.1-0.6,0.1-1,0c-0.1,0-0.2-0.1-0.3-0.1c0,0-0.1,0-0.1,0c-0.5,0.1-1-0.1-1,0
			c-0.1,0.7,1,1.1,1,2c-0.1,1.9-3,1.5-5.1,2c-0.2,0.1,1.6-2.5,0.8-2.4c-0.6,0-1.4,0.1-1.2-0.5c0.1-0.3,0.5-0.3,0.4-0.6
			c-0.2-0.3,1.8-1,0.7-2.4c-0.2-0.2,0-0.6,0.1-0.8c1-2.5,2.5-4.8,2.5-5.5c0.4,0.1,0.9-0.7,1-0.8c0.5-0.7,0.4-0.6,0.4-0.1
			c0,0.6,0.3,1.4,0.7,2.2c0.4-0.8,0.6-1.5,0.6-2.1c0-0.6-0.2-0.6,0.4,0.1C60.6,91.2,61,92,61.5,91.9"/>
		<path class="st8" d="M59.5,98.4c0.5-0.6,1.3-1.6-0.3-1.9C58.2,97,59.1,97.9,59.5,98.4z M61.5,91.9c0,0.7,1.5,3.1,2.5,5.5
			c0.1,0.3,0.3,0.6,0.1,0.8c-1,1.4,0.9,2.1,0.7,2.4c-0.1,0.3,0.3,0.3,0.4,0.6c0.2,0.7-0.6,0.6-1.2,0.6c-0.7,0,1.1,2.5,0.8,2.5
			c-2.1-0.5-5.1-0.1-5.1-2c0-0.8,1.1-1.3,1-2c0-0.1-0.6,0.1-1,0c-0.1,0-0.2-0.1-0.3-0.1c0,0-0.1,0-0.1,0c-0.5,0.1-1-0.1-1,0
			c-0.1,0.7,1,1.1,1,2c-0.1,1.9-3,1.5-5.1,2c-0.2,0.1,1.6-2.5,0.8-2.4c-0.6,0-1.4,0.1-1.2-0.5c0.1-0.3,0.5-0.3,0.4-0.6
			c-0.2-0.3,1.8-1,0.7-2.4c-0.2-0.2,0-0.6,0.1-0.8c1-2.5,2.5-4.8,2.5-5.5c0.4,0.1,0.9-0.7,1-0.8c0.5-0.7,0.4-0.6,0.4-0.1
			c0,0.6,0.3,1.4,0.7,2.2c0.4-0.8,0.6-1.5,0.6-2.1c0-0.6-0.2-0.6,0.4,0.1C60.6,91.2,61,92,61.5,91.9z"/>
		<path class="st7" d="M57.6,92.2c0,0.7-1.4,3-2.4,5.4c-0.1,0.3-0.3,0.5-0.1,0.8c1,1.3-0.8,2.1-0.7,2.3c0.2,0.3-0.3,0.3-0.3,0.6
			c-0.2,0.7,0.6,0.5,1.2,0.5c0.6,0-1,2.4-0.8,2.3c2-0.5,4.8-0.1,4.8-2c0-0.8-1.1-1.2-0.9-1.9c0-0.1,0.5,0.1,1-0.1
			c0.4-0.1,0.5-0.5,0.5-0.7c0-0.2,0-0.4,0-0.5c-0.1-0.5-2.2-2.1,0.2-2.4c0.2,0,0.9,0.3,0.9,0.1c-0.1-1.5-2-3.9-1.9-5.4
			c0-0.5,0.2-0.6-0.3,0.1C58.4,91.5,58,92.3,57.6,92.2"/>
		<path class="st8" d="M57.6,92.2c0,0.7-1.4,3-2.4,5.4c-0.1,0.3-0.3,0.5-0.1,0.8c1,1.3-0.8,2.1-0.7,2.3c0.2,0.3-0.3,0.3-0.3,0.6
			c-0.2,0.7,0.6,0.5,1.2,0.5c0.6,0-1,2.4-0.8,2.3c2-0.5,4.8-0.1,4.8-2c0-0.8-1.1-1.2-0.9-1.9c0-0.1,0.5,0.1,1-0.1
			c0.4-0.1,0.5-0.5,0.5-0.7c0-0.2,0-0.4,0-0.5c-0.1-0.5-2.2-2.1,0.2-2.4c0.2,0,0.9,0.3,0.9,0.1c-0.1-1.5-2-3.9-1.9-5.4
			c0-0.5,0.2-0.6-0.3,0.1C58.4,91.5,58,92.3,57.6,92.2z M54.5,104.1c2.4-0.3,4.4-0.6,4.7-1.3c0.9-1.9-5.1-0.7-5.1-1.2
			c-0.1-2.7,5.6-0.6,5.8-1.8c0.3-2.2-4.7-0.8-4.7-1.6c0.2-2.7,6-1.6,5.4-1.5"/>
		<path class="st7" d="M61.3,92.3c0,0.7,1.4,3,2.4,5.4c0.1,0.3,0.3,0.6,0.1,0.8c-1,1.4,0.8,2.1,0.7,2.3c-0.2,0.3,0.3,0.3,0.3,0.6
			c0.2,0.7-0.6,0.5-1.2,0.5c-0.6,0,1,2.4,0.8,2.4c-2-0.5-4.8-0.1-4.8-2c0-0.8,1.1-1.3,0.9-1.9c0-0.1-0.5,0.1-0.9,0
			c-0.5-0.1-0.5-0.5-0.5-0.7c0-0.2,0-0.4,0-0.5c0.1-0.5,2.2-2.1-0.2-2.4c-0.2,0-0.9,0.3-0.9,0.1c0.1-1.5,2-3.9,2-5.4
			c0-0.6-0.2-0.6,0.3,0.1C60.5,91.7,60.9,92.4,61.3,92.3"/>
		<path class="st8" d="M61.3,92.3c0,0.7,1.4,3,2.4,5.4c0.1,0.3,0.3,0.6,0.1,0.8c-1,1.4,0.8,2.1,0.7,2.3c-0.2,0.3,0.3,0.3,0.3,0.6
			c0.2,0.7-0.6,0.5-1.2,0.5c-0.6,0,1,2.4,0.8,2.4c-2-0.5-4.8-0.1-4.8-2c0-0.8,1.1-1.3,0.9-1.9c0-0.1-0.5,0.1-0.9,0
			c-0.5-0.1-0.5-0.5-0.5-0.7c0-0.2,0-0.4,0-0.5c0.1-0.5,2.2-2.1-0.2-2.4c-0.2,0-0.9,0.3-0.9,0.1c0.1-1.5,2-3.9,2-5.4
			c0-0.6-0.2-0.6,0.3,0.1C60.5,91.7,60.9,92.4,61.3,92.3z M64.5,104.3c-2.4-0.3-4.4-0.6-4.7-1.3c-0.9-1.9,5.1-0.8,5.1-1.2
			c0.1-2.7-5.6-0.7-5.7-1.8c-0.3-2.2,4.7-0.9,4.7-1.6c-0.2-2.7-6-1.6-5.4-1.5"/>
		<path class="st6" d="M59.5,95.8c-0.9-0.9-1.9-2.1-3.8-2.2c-4-0.6-8,0.1-11.7-1.6c-2.4-1-8.4-4.7-7.7-11.4c0.8-7.9,4-10.3,4.4-19
			c-0.4-2.9-1.4-6.5-3.8-8.7c2.3-2.5,5.1-5.9,7.4-8.4c4.7,3.7,10.8,2.6,15.3,0c4.5,2.6,10.6,3.7,15.3,0c2.3,2.5,5.1,5.9,7.4,8.4
			c-2.5,2.1-3.5,5.7-3.9,8.6c0.4,8.7,3.7,11.1,4.4,19c0.6,6.7-5.3,10.4-7.7,11.4c-3.8,1.6-7.7,1-11.7,1.5
			C61.5,93.7,60.4,94.9,59.5,95.8"/>
		<path class="st8" d="M59.5,95.8c-0.9-0.9-1.9-2.1-3.8-2.2c-4-0.6-8,0.1-11.7-1.6c-2.4-1-8.4-4.7-7.7-11.4c0.8-7.9,4-10.3,4.4-19
			c-0.4-2.9-1.4-6.5-3.8-8.7c2.3-2.5,5.1-5.9,7.4-8.4c4.7,3.7,10.8,2.6,15.3,0c4.5,2.6,10.6,3.7,15.3,0c2.3,2.5,5.1,5.9,7.4,8.4
			c-2.5,2.1-3.5,5.7-3.9,8.6c0.4,8.7,3.7,11.1,4.4,19c0.6,6.7-5.3,10.4-7.7,11.4c-3.8,1.6-7.7,1-11.7,1.5
			C61.5,93.7,60.4,94.9,59.5,95.8z"/>
		<path class="st10" d="M60.5,69.3v-22c4.4,1.9,8.8,2.6,13.6,0c2.2,2.3,3.5,3.6,5.7,6c-2.1,2-3,6-3.1,9.1c0.1,3,0.7,5,1.3,6.9H60.5z
			"/>
		<path class="st13" d="M41.3,69.3c0.7-1.9,1.2-4.1,1.2-7c0-2.7-1-7.4-3.3-9.4c2.1-2.4,3.2-3.6,5.4-6c4,3.2,9.8,2.1,14,0.1v22.3
			H41.3z"/>
		<path class="st9" d="M78.8,70.5H40.5c-1.1,2.8-2.5,5.3-2.9,9.5c-0.6,6.4,5,9.8,7.3,10.8c3.5,1.5,7.3,0.9,11,1.5
			c1.8,0.1,2.7,1.2,3.6,2c0.9-0.8,1.8-1.9,3.6-2c3.8-0.5,7.5,0.1,11-1.5c2.3-1,7.9-4.4,7.3-10.8C81,75.8,79.8,73.3,78.8,70.5
			 M60.1,69.6h18.5c-0.7-2-1.4-4.3-1.3-7.5c0.1-2.7,0.9-7,3.2-9c-2.2-2.4-4-4.3-6.2-6.7c-4.4,3-10,2.1-14.1-0.1V69.6z M40.8,69.6H59
			V46.4c-4.2,2.2-10.2,3.3-14.4,0c-2.2,2.4-3.8,4.2-6,6.5c2.3,2,3.5,6.5,3.5,9.2C42.1,65.3,41.5,67.6,40.8,69.6 M59.5,95.3
			c-0.9-0.9-1.9-1.9-3.8-2c-4-0.6-7.9,0.1-11.6-1.5c-2.4-1-8.3-4.7-7.6-11.3c0.7-7.8,4-10.2,4.3-18.7c-0.4-2.9-1.2-6.7-3.6-8.8
			c2.3-2.5,4.7-5.4,7-7.9c4.6,3.7,10.8,2.4,15.2-0.1c4.5,2.5,10.7,3.9,15.3,0.2c2.3,2.5,4.8,5.4,7.1,7.9c-2.4,2.1-3.4,5.9-3.7,8.8
			c0.3,8.6,3.6,10.9,4.4,18.8c0.6,6.6-5.2,10.2-7.6,11.3c-3.7,1.6-7.6,1-11.6,1.5C61.4,93.4,60.4,94.5,59.5,95.3"/>
		<path class="st7" d="M59.5,93.8c-0.8-0.8-1.8-1.8-3.5-1.9c-3.7-0.5-7.4,0.1-10.9-1.4c-2.3-1-7.6-4.4-7-10.6c0.4-4,1.6-6.4,2.7-9.2
			c12.7,0,25.1,0,37.8,0c0.9,2.7,2,5.2,2.4,9.1c0.6,6.3-4.7,9.7-7,10.6c-3.5,1.5-7.2,0.9-10.9,1.4C61.3,92,60.3,93,59.5,93.8"/>
		<path class="st6" d="M62.4,73.5c0.9,0.3,1.9,0.7,2,1.5c1,0.1,1.6,0.7,1.8,1.7c0.7,0.4,1.2,0.5,1.2,1c0.5,0,0.8,0.3,1.1,0.8
			c0.6,0,1.1,0.2,1.6,0.9c0.3-0.1,0.7-0.1,1.2,0.2c0.4-0.1,0.9-0.3,1.4,0c0.2,0,0.4-0.1,0.6-0.1c0.3-0.4,0.6-0.5,1.1-0.6
			c-0.1-0.2,0-0.5,0.3-0.7c-0.2-0.4-0.4-0.7,0-1.1c-0.2-0.2-0.2-0.5,0-0.9c-0.2-0.2-0.3-0.4-0.2-0.7c-0.3-0.1-0.5-0.3-0.6-0.6
			c-0.5-0.1-0.8-0.3-0.9-0.5c-0.2,0.1-0.4,0.1-0.6,0.1c-0.2,0.3-0.4,0.2-0.7,0.3c-0.2,0.3-0.4,0.5-0.7,0.7c0,0.2,0,0.3,0.1,0.5
			c0.5-0.2,1,0.5,0.6,1c-0.3,0.5-1.1,0.7-1.3,0c-0.3,0-0.6-0.3-0.8-0.7c-0.2-0.4-0.3-0.6,0-0.9c-0.3-0.5,0-1,0.4-1.3
			c0.3-0.5,0.6-0.8,1-0.7c0.3-0.4,0.4-0.7,1.1-0.6c0.5-0.3,1.1-0.3,1.6,0c0.5,0,0.9,0,1.2,0.5c0.4,0.2,0.8,0.3,0.9,0.9
			c0.5,0.3,1,0.4,0.8,1.2c0.5,0.4,0.7,0.9,0.7,1.5c0.2,0.5,0.2,0.9,0.1,1.4c0.3,0.5,0.1,1,0,1.5c0.2,0.8-0.2,1.3-0.7,1.7
			c-0.2,1.1-0.8,1.3-1.4,1.6c-0.6,1.1-1.3,1.3-2.1,1.1c-0.6,0.6-1.3,0.8-1.9,0.6c-0.8,0.4-1.7,0.8-2.2,0.4c-1.1,0.4-2.1,0.5-2.7-0.1
			c-1.2,0.2-2,0-2.5-0.8c-1.1,0.2-1.5-0.2-1.9-0.7c-1.2,0.5-2.2,0.6-2.8-0.1c-0.2,0.2-0.4,0.2-0.6,0.2c0.7,0.9,0.4,1.6,0.2,2.2
			c0.6-0.1,1.3,0,1.7,0.5c0.9-0.5,1.7-0.7,2.6,0.5c1.8-0.7,2.5-0.1,2.8,1.2c0.2-0.3,0.8-0.4,1.2-0.2c0.7-1.2,1.8-0.8,2.4,0.2
			c0.5,1-0.6,2.3-2,2c-0.6,0.4-1,0.5-1.7,0.3c-1,0.3-1.6,0-2.2-0.2c-0.7,0.7-1.4,0.7-2.1,0.5c-1.1,1.9-2.1,1.2-3.2,0.6
			c-0.8,0.4-1.5,0-2.1-0.4c-0.3,0.5-0.8,0.8-1.4,0.7c-0.6,0-0.9-0.2-1.1-0.4c-1,0.7-1.8,0.4-2.6-0.2c-1.1,0.2-1.5-0.3-1.9-1
			c-0.3,0.1-0.6,0.2-0.9,0.1c-1.2,1.1-2.9,0.6-2.9-1.2c-0.7,0-1.3,0-1.8-1.3c-0.1-0.3,0-0.6,0.1-0.9c-0.8-0.5-1-0.9-0.6-2
			c-0.8-0.4-1.1-1.1-0.5-2.3c-0.6-1.3-0.8-2.2,0.5-3.4c0.7-0.7,1.4-1.2,2.3-1.4c0-0.9,0.4-1.6,2-1.9c0.3-1.2,0.9-2,2.4-2
			c0.5-0.8,1.3-1.2,2.8-1c0.4-0.7,1.3-0.9,3.2-0.3c0.9-0.6,2-0.5,3.2,0.3C59.8,72,61.8,72.7,62.4,73.5"/>
		<path class="st14" d="M43.3,82c0.2,0,0.3,0,0.5,0c-0.4-0.9,0.2-1.7,1.4-1.7c1.2,0,2.8,0.7,4,1.8c1,0.7,2.2,1.6,3.9,2.1
			c1.3,0.4,3,0.4,4.5,1c0.7,0.3,0.6,0.8,0.4,1.6c0.6-0.2,0.9-0.6,0.9-1.2c-0.1-1.2-0.9-2.2-2.9-2.9c-1.8,0.1-3.5-0.3-5.1-1.7
			c-0.7-1.1-1.6-2.1-3.3-2.8c-0.9-0.3-1.8-0.3-2.9,0.3c-1.4,0.7-1.5,1.5-1.5,2.2C43.1,81.1,43.2,81.6,43.3,82 M52.6,81.6
			c-1.3-1.3-0.7-2-2-3.9c-1.1-1.6-4.1-2.6-4.5-0.1c3.8,0.3,3.6,1.9,5.5,3.4C51.9,81,52.6,81.4,52.6,81.6 M54.7,82.1
			c-1.5-1.3-1.5-4.4-2.6-6.3c-1-1.7-3.1-2.5-4.1-0.1c4.2,0.9,2.9,4.1,5.3,6C53.9,82,54.8,82,54.7,82.1 M55.7,82.1
			c-0.9-1.6-0.5-4.9-1.1-7c-0.4-1.4-2.8-3.2-4.4-1.1c4.1,1,2.3,5,5,8.1C55.6,82.2,55.8,81.9,55.7,82.1 M56.8,82.4
			c-0.9-1.8,0.2-5.1,0.3-7.3c0.1-1.4-1.9-4-3.9-2.3c3.7,1.9,1.3,5.6,3.1,9.4C56.7,82.5,56.9,82.3,56.8,82.4 M57.6,82.8
			c-0.6-1.8,1.5-4.9,2-7.3c0.3-1.5-0.8-3.6-3-2.8c2.4,2.5-0.6,7.3,0.5,9.8C57.4,82.7,57.8,82.7,57.6,82.8 M58.3,83
			c0.3-1.7,3-4.9,3.7-7.3c0.5-1.5,0.1-2.9-2.3-2.6c1.8,2.9-2.3,7-1.8,9.7C57.8,83,58.5,82.8,58.3,83 M58.7,83
			c1.5,1.9,8.1-7.9,3.9-9.1c0.3,1.1-0.4,3-1.5,4.8C60.1,80.5,58.7,81.7,58.7,83 M60,83.3c2.8,1.6,8.2-6.7,4.4-7.9
			C65,77.8,61.2,83.2,60,83.3 M62.5,83.4c2.1,1.6,4.2-0.6,4.5-3.3c0.2-1.4,0-2.1-0.7-2.8C66.4,79.3,63.6,83,62.5,83.4 M64.9,84.2
			c2,1.6,3.6-0.8,3.7-3c0.1-1.5-0.2-2.8-1.1-2.9C67.8,80.6,66.4,83.8,64.9,84.2 M67,84.9c2.1,1.3,3.2-1.3,3.2-3.1
			c0-1.4-1.2-2.5-1.5-2.3C69.5,81.4,68.3,84.7,67,84.9 M69.7,84.7c2,0.8,3-2.2,2-3.8c-0.6-0.8-1-0.9-1.3-0.8
			C70.9,81.7,70.7,84,69.7,84.7 M71.9,84.6c1.6,0.2,2-2.1,1.3-3.3c-0.6-0.9-1-0.9-1.3-0.8C72.3,81.4,72.9,83.1,71.9,84.6 M73.7,83.8
			c1.6,0.2,1.6-1.7,0.9-3c-0.6-0.9-1-0.9-1.4-0.7C73.7,81,74.1,82.3,73.7,83.8 M75.4,82.8c1.3-0.6,1.1-2.3,0.2-3
			c-0.9-0.7-1.4-0.6-1.8-0.1C74.9,80.4,75.5,81.3,75.4,82.8 M76.7,81.2c0.5-0.2,0.9-1.5,0-2.2c-0.9-0.7-1.6-0.4-1.9,0
			C75.6,79,77,80.5,76.7,81.2 M77.3,79.2c0.2-0.3,0.1-1.2-0.8-1.3c-0.9-0.1-1.1,0.1-1.2,0.5C75.7,78.2,77.1,78.6,77.3,79.2 M72,73.1
			c-0.3,0.1-0.9,0.2-0.7,1c0.2,0.7,0.9,0.4,1,0.3C72.1,74.3,71.9,73.6,72,73.1 M73.4,73c-0.3-0.1-0.9-0.2-1.1,0.5
			c-0.2,0.8,0.6,0.9,0.8,0.8C72.9,74.1,73,73.3,73.4,73 M74.8,73.4c-0.2-0.1-0.9-0.6-1.4,0.2c-0.5,0.8,0.3,1.1,0.5,1.1
			C73.8,74.4,74.2,73.7,74.8,73.4 M75.7,74.2c-0.2-0.2-0.7-0.6-1.3,0.1c-0.4,0.5,0.1,0.9,0.2,1C74.6,74.8,75.1,74.3,75.7,74.2
			 M76.5,75.5c0-0.4-0.4-1.1-1.2-0.6c-0.8,0.4-0.5,1.1-0.3,1.1C75.1,75.5,75.9,75.3,76.5,75.5 M77.1,76.6c0-0.4-0.4-1-1.2-0.6
			c-0.8,0.3-0.9,1-0.7,1C75.2,76.6,76.4,76.4,77.1,76.6 M77.3,77.8c0-0.4-0.6-1.2-1.5-0.9c-0.8,0.3-0.9,0.7-0.7,1
			C75.3,77.5,76.7,77.2,77.3,77.8 M70.7,76c-0.3,0.1-0.6,0.1-0.9-0.1c-0.1,0.4,0.3,0.9,0.7,0.8C71,76.5,70.9,76.2,70.7,76
			 M70.8,75.3c-0.4,0.1-0.6-0.2-0.8-0.6c-0.1,0.3-0.4,0.7,0,0.9C70.4,75.7,70.7,75.8,70.8,75.3 M70.9,73.8c-0.2,0.1-0.6,0.3-0.5,0.8
			c0.2,0.5,0.6,0.5,1,0.2C71,74.6,70.9,74,70.9,73.8 M71.1,76.3c0,0.2-0.3,0.5-0.5,0.5c0,0.2,0.5,0.6,0.8,0.2
			C71.8,76.6,71.6,76.3,71.1,76.3"/>
		<path class="st14" d="M59.7,88.5c-0.1,0.4-0.6,0.8-1.2,0.8c-0.7,0-1.3-0.3-1.3-0.8v0c0.4-0.2,0.6-0.5,0.7-0.9h0
			C58.2,88.3,58.9,88.7,59.7,88.5L59.7,88.5z M58.8,90.8C58.7,90.8,58.7,90.8,58.8,90.8c-0.6,0.4-1.4,0.4-1.8,0
			c-0.4-0.4-0.3-0.9,0.1-1.3c0.4,0.3,1.1,0.4,1.6,0.2c-0.1,0.2-0.2,0.5-0.1,0.8C58.6,90.6,58.7,90.7,58.8,90.8 M54,89.7
			c0.1,0.6-0.3,1.2-0.9,1.3c-0.6,0.1-1.2-0.2-1.3-0.8c0-0.1,0-0.3,0-0.4c0.4-0.1,0.6-0.3,0.8-0.5c0.3,0.2,0.7,0.2,1.1,0.2
			c0.1,0,0.2,0,0.2,0C53.9,89.6,54,89.6,54,89.7 M56.4,90.4C56,91,55.2,91.2,54.7,91c-0.4-0.2-0.5-0.6-0.3-1.1
			c0.4,0.3,0.8,0.4,1.3,0.3c0.4-0.1,0.7-0.2,0.9-0.5C56.6,90,56.6,90.2,56.4,90.4 M54.4,88c0.1,0.3,0.1,0.7-0.1,0.9
			c-0.3,0.5-1,0.5-1.5,0c-0.4-0.3-0.6-0.8-0.5-1.2c0.2-0.2,0.3-0.4,0.3-0.6c0,0,0,0,0.1,0c0.2,0.7,0.8,1.1,1.5,1
			C54.2,88.1,54.4,88.1,54.4,88 M56.5,89.3c-0.4,0.5-1.1,0.8-1.6,0.5c-0.5-0.2-0.6-0.8-0.2-1.4c0.1-0.1,0.3-0.3,0.4-0.4
			c0.3,0.4,0.9,0.6,1.5,0.6c0,0,0.1,0,0.1,0C56.8,88.8,56.7,89.1,56.5,89.3 M69.4,88.5c0.2,0.6-0.2,1.1-0.8,1.1c-0.2,0-0.3,0-0.5,0
			c0-0.2,0-0.4,0-0.6c-0.1-0.4-0.4-0.6-0.7-0.8c0.1-0.3,0.4-0.4,0.7-0.5C68.7,87.6,69.3,87.9,69.4,88.5 M67.8,89
			c0.1,0.5-0.2,1.1-0.8,1.2c-0.3,0-0.5,0-0.7-0.1c0.3-0.3,0.4-0.7,0.3-1.1c-0.1-0.2-0.2-0.4-0.4-0.6c0.1,0,0.2-0.1,0.3-0.1
			C67.1,88.1,67.7,88.5,67.8,89 M66.3,89c0.2,0.6-0.2,1.1-0.8,1.2c-0.6,0.1-1.2-0.3-1.3-0.8c0,0,0-0.1,0-0.1c0.2,0,0.4,0.1,0.7,0
			c0.5-0.1,0.9-0.4,1.1-0.8C66.1,88.5,66.2,88.7,66.3,89 M63.8,89.2c0.1,0.5-0.2,1-0.7,1c-0.3,0.1-0.7-0.1-0.9-0.3
			c0.3-0.3,0.4-0.7,0.3-1.1c0-0.1-0.1-0.2-0.1-0.3c0.1,0,0.2-0.1,0.3-0.1c0.2,0,0.4,0,0.5,0.1c0.2,0.2,0.3,0.4,0.6,0.5
			C63.8,89,63.8,89.1,63.8,89.2 M61.3,90.3c0.1,0.5-0.3,0.9-0.9,1c-0.7,0.1-1.3-0.3-1.5-0.8c-0.1-0.5,0.2-1,0.8-1.1
			C59.9,90,60.6,90.3,61.3,90.3 M62.1,88.9c0.1,0.5-0.2,1.1-0.8,1.2c-0.6,0.1-1.2-0.3-1.3-0.8c-0.1-0.5,0.1-0.9,0.6-1.1
			C60.8,88.7,61.5,89,62.1,88.9 M60.3,88c-0.2,0.2-0.4,0.4-0.7,0.4c-0.6,0.1-1.3-0.3-1.4-0.9c-0.2-0.6,0.2-1.2,0.8-1.3
			c0.5-0.1,1,0.1,1.2,0.5c-0.2,0.2-0.3,0.5-0.2,0.8C60.2,87.8,60.2,87.9,60.3,88 M52.1,86.6c0.2,0.5-0.2,1-0.8,1.1
			c-0.6,0.1-1.3-0.3-1.4-0.8c-0.1-0.1-0.1-0.3,0-0.4c0.1,0.1,0.2,0.1,0.2,0.2c0.6,0.4,1.4,0.4,1.8,0c0-0.1,0.1-0.1,0.1-0.2
			C52.1,86.5,52.1,86.6,52.1,86.6 M52.4,89c-0.1,0.2-0.3,0.4-0.6,0.5c-0.5,0.1-1.1-0.1-1.3-0.6c-0.1-0.3-0.1-0.5,0-0.7
			c0.2,0.1,0.5,0.1,0.7,0c0.2-0.1,0.4-0.2,0.5-0.4c-0.1,0.2-0.1,0.4,0,0.6C51.8,88.7,52.1,88.9,52.4,89 M51.5,89.7
			c0,0.2,0,0.3-0.1,0.5c-0.3,0.3-0.8,0.3-1.2,0c-0.5-0.3-0.6-0.9-0.3-1.2c0.1-0.1,0.3-0.2,0.4-0.2c-0.1,0.1-0.1,0.3,0,0.4
			c0.1,0.4,0.6,0.7,1,0.6C51.3,89.8,51.4,89.8,51.5,89.7 M65.5,87.7c0.1,0.5-0.2,1-0.8,1.1c-0.6,0.1-1.1-0.3-1.3-0.8
			c-0.1-0.5,0.2-1,0.8-1.1C64.8,86.8,65.4,87.2,65.5,87.7 M62.8,87.3c0.1,0.5-0.2,1-0.8,1.1c-0.5,0.1-1.1-0.3-1.3-0.8
			c-0.1-0.5,0.2-1,0.8-1.1C62,86.4,62.6,86.7,62.8,87.3 M47.4,85.6c0.1,0.3,0.1,0.6-0.1,0.8c-0.3,0.4-1,0.4-1.5,0
			c-0.5-0.4-0.7-1-0.4-1.4c0.2-0.2,0.4-0.3,0.7-0.3C46.4,85.3,46.9,85.7,47.4,85.6L47.4,85.6z M45.7,82.1c0.5,0,0.9,0.4,1,0.9
			c-0.3,0.1-0.5,0.4-0.5,0.7c0,0.1,0,0.2,0,0.3c-0.2,0.1-0.4,0.2-0.5,0.2c-0.6,0-1.1-0.6-1.1-1.1C44.6,82.5,45.2,82.1,45.7,82.1
			 M44.1,82.2c0.2,0,0.4,0.1,0.6,0.2c-0.3,0.2-0.4,0.4-0.4,0.7c0,0.3,0.2,0.8,0.6,1c-0.2,0.2-0.4,0.3-0.7,0.3
			c-0.6,0-1.1-0.6-1.1-1.2C43,82.6,43.6,82.2,44.1,82.2 M47.4,86.7c0.2,0.2,0.4,0.4,0.4,0.6c0.2,0.6-0.2,1.1-0.7,1.3
			c-0.6,0.2-1.3-0.3-1.5-0.9c-0.1-0.2,0-0.5,0.1-0.7c0,0,0,0,0,0C46.4,87.3,47.1,87.2,47.4,86.7 M48.9,84.8c0.2,0,0.4,0.1,0.5,0.2
			c-0.3,0.4-0.1,1,0.4,1.4c-0.2,0.3-0.5,0.5-0.9,0.5c-0.6,0-1.1-0.6-1.1-1.2h0.1C48.3,85.8,48.8,85.4,48.9,84.8L48.9,84.8z
			 M48.3,89.6c-0.2,0.3-0.6,0.5-1,0.5c-0.6,0-1.3-0.7-1.3-1.3c0-0.1,0-0.1,0-0.2c0.2,0.2,0.6,0.4,0.9,0.4c0.2,0,0.4-0.1,0.6-0.2
			C47.7,89.2,48,89.5,48.3,89.6 M48.1,88.1C48.1,88.1,48.1,88.1,48.1,88.1c0,0.3-0.1,0.5-0.4,0.7C47.9,88.6,48,88.4,48.1,88.1
			 M45.4,84.6c-0.3,0.2-0.5,0.5-0.5,0.8c0,0.3,0.2,0.7,0.4,1c-0.1,0-0.2,0-0.3,0c-0.7,0-1.3-0.7-1.3-1.4c0-0.2,0-0.3,0.1-0.5
			c0.1,0,0.2,0,0.3,0c0.3,0,0.6-0.1,0.8-0.3C45.1,84.5,45.3,84.6,45.4,84.6 M45.7,86.9c-0.3,0.2-0.5,0.5-0.5,0.8
			c0,0.2,0.1,0.4,0.2,0.6h-0.1c-0.6,0-1.1-0.6-1.2-1.2c0-0.3,0.1-0.5,0.3-0.6c0.2,0.1,0.4,0.2,0.6,0.2c0.1,0,0.2,0,0.3,0
			C45.5,86.8,45.6,86.9,45.7,86.9 M48.8,87.3c0.6,0,1.1,0.5,1.1,1.1c0,0.5-0.5,0.9-1.1,0.9c-0.4,0-0.8-0.3-1-0.7
			c0.3-0.1,0.6-0.5,0.6-0.8c0-0.1,0-0.3-0.1-0.4C48.4,87.4,48.6,87.3,48.8,87.3 M47.7,83.1c0.7,0,1.2,0.6,1.2,1.3
			c0,0.6-0.5,1.1-1.2,1.1c-0.7,0-1.3-0.7-1.3-1.4C46.3,83.5,47,83.1,47.7,83.1 M56.9,86.6c0.6,0.4,0.7,1.1,0.4,1.5
			c-0.3,0.4-1,0.4-1.6,0c-0.5-0.4-0.7-1.1-0.4-1.5C55.7,86.2,56.4,86.2,56.9,86.6 M54.2,85.9c0.5,0.4,0.6,1.1,0.4,1.4
			c-0.3,0.4-0.9,0.4-1.4,0c-0.5-0.4-0.6-1-0.4-1.5C53.1,85.5,53.7,85.5,54.2,85.9 M51.4,84.5c0.6,0.5,0.8,1.2,0.5,1.7
			c-0.4,0.5-1.2,0.5-1.8,0c-0.6-0.5-0.9-1.2-0.5-1.7C50,84.1,50.8,84.1,51.4,84.5"/>
		<path class="st8" d="M59.7,88.5c-0.1,0.4-0.6,0.8-1.2,0.8c-0.7,0-1.3-0.3-1.3-0.8v0c0.4-0.2,0.6-0.5,0.7-0.9h0
			C58.2,88.3,58.9,88.7,59.7,88.5L59.7,88.5z M58.8,90.8C58.7,90.8,58.7,90.8,58.8,90.8c-0.6,0.4-1.4,0.4-1.8,0
			c-0.4-0.4-0.3-0.9,0.1-1.3c0.4,0.3,1.1,0.4,1.6,0.2c-0.1,0.2-0.2,0.5-0.1,0.8C58.6,90.6,58.7,90.7,58.8,90.8z M54,89.7
			c0.1,0.6-0.3,1.2-0.9,1.3c-0.6,0.1-1.2-0.2-1.3-0.8c0-0.1,0-0.3,0-0.4c0.4-0.1,0.6-0.3,0.8-0.5c0.3,0.2,0.7,0.2,1.1,0.2
			c0.1,0,0.2,0,0.2,0C53.9,89.6,54,89.6,54,89.7z M56.4,90.4C56,91,55.2,91.2,54.7,91c-0.4-0.2-0.5-0.6-0.3-1.1
			c0.4,0.3,0.8,0.4,1.3,0.3c0.4-0.1,0.7-0.2,0.9-0.5C56.6,90,56.6,90.2,56.4,90.4z M54.4,88c0.1,0.3,0.1,0.7-0.1,0.9
			c-0.3,0.5-1,0.5-1.5,0c-0.4-0.3-0.6-0.8-0.5-1.2c0.2-0.2,0.3-0.4,0.3-0.6c0,0,0,0,0.1,0c0.2,0.7,0.8,1.1,1.5,1
			C54.2,88.1,54.4,88.1,54.4,88z M56.5,89.3c-0.4,0.5-1.1,0.8-1.6,0.5c-0.5-0.2-0.6-0.8-0.2-1.4c0.1-0.1,0.3-0.3,0.4-0.4
			c0.3,0.4,0.9,0.6,1.5,0.6c0,0,0.1,0,0.1,0C56.8,88.8,56.7,89.1,56.5,89.3z M69.4,88.5c0.2,0.6-0.2,1.1-0.8,1.1c-0.2,0-0.3,0-0.5,0
			c0-0.2,0-0.4,0-0.6c-0.1-0.4-0.4-0.6-0.7-0.8c0.1-0.3,0.4-0.4,0.7-0.5C68.7,87.6,69.3,87.9,69.4,88.5z M67.8,89
			c0.1,0.5-0.2,1.1-0.8,1.2c-0.3,0-0.5,0-0.7-0.1c0.3-0.3,0.4-0.7,0.3-1.1c-0.1-0.2-0.2-0.4-0.4-0.6c0.1,0,0.2-0.1,0.3-0.1
			C67.1,88.1,67.7,88.5,67.8,89z M66.3,89c0.2,0.6-0.2,1.1-0.8,1.2c-0.6,0.1-1.2-0.3-1.3-0.8c0,0,0-0.1,0-0.1c0.2,0,0.4,0.1,0.7,0
			c0.5-0.1,0.9-0.4,1.1-0.8C66.1,88.5,66.2,88.7,66.3,89z M63.8,89.2c0.1,0.5-0.2,1-0.7,1c-0.3,0.1-0.7-0.1-0.9-0.3
			c0.3-0.3,0.4-0.7,0.3-1.1c0-0.1-0.1-0.2-0.1-0.3c0.1,0,0.2-0.1,0.3-0.1c0.2,0,0.4,0,0.5,0.1c0.2,0.2,0.3,0.4,0.6,0.5
			C63.8,89,63.8,89.1,63.8,89.2z M61.3,90.3c0.1,0.5-0.3,0.9-0.9,1c-0.7,0.1-1.3-0.3-1.5-0.8c-0.1-0.5,0.2-1,0.8-1.1
			C59.9,90,60.6,90.3,61.3,90.3z M62.1,88.9c0.1,0.5-0.2,1.1-0.8,1.2c-0.6,0.1-1.2-0.3-1.3-0.8c-0.1-0.5,0.1-0.9,0.6-1.1
			C60.8,88.7,61.5,89,62.1,88.9z M60.3,88c-0.2,0.2-0.4,0.4-0.7,0.4c-0.6,0.1-1.3-0.3-1.4-0.9c-0.2-0.6,0.2-1.2,0.8-1.3
			c0.5-0.1,1,0.1,1.2,0.5c-0.2,0.2-0.3,0.5-0.2,0.8C60.2,87.8,60.2,87.9,60.3,88z M52.1,86.6c0.2,0.5-0.2,1-0.8,1.1
			c-0.6,0.1-1.3-0.3-1.4-0.8c-0.1-0.1-0.1-0.3,0-0.4c0.1,0.1,0.2,0.1,0.2,0.2c0.6,0.4,1.4,0.4,1.8,0c0-0.1,0.1-0.1,0.1-0.2
			C52.1,86.5,52.1,86.6,52.1,86.6z M52.4,89c-0.1,0.2-0.3,0.4-0.6,0.5c-0.5,0.1-1.1-0.1-1.3-0.6c-0.1-0.3-0.1-0.5,0-0.7
			c0.2,0.1,0.5,0.1,0.7,0c0.2-0.1,0.4-0.2,0.5-0.4c-0.1,0.2-0.1,0.4,0,0.6C51.8,88.7,52.1,88.9,52.4,89z M51.5,89.7
			c0,0.2,0,0.3-0.1,0.5c-0.3,0.3-0.8,0.3-1.2,0c-0.5-0.3-0.6-0.9-0.3-1.2c0.1-0.1,0.3-0.2,0.4-0.2c-0.1,0.1-0.1,0.3,0,0.4
			c0.1,0.4,0.6,0.7,1,0.6C51.3,89.8,51.4,89.8,51.5,89.7z M65.5,87.7c0.1,0.5-0.2,1-0.8,1.1c-0.6,0.1-1.1-0.3-1.3-0.8
			c-0.1-0.5,0.2-1,0.8-1.1C64.8,86.8,65.4,87.2,65.5,87.7z M62.8,87.3c0.1,0.5-0.2,1-0.8,1.1c-0.5,0.1-1.1-0.3-1.3-0.8
			c-0.1-0.5,0.2-1,0.8-1.1C62,86.4,62.6,86.7,62.8,87.3z M47.4,85.6c0.1,0.3,0.1,0.6-0.1,0.8c-0.3,0.4-1,0.4-1.5,0
			c-0.5-0.4-0.7-1-0.4-1.4c0.2-0.2,0.4-0.3,0.7-0.3C46.4,85.3,46.9,85.7,47.4,85.6L47.4,85.6z M45.7,82.1c0.5,0,0.9,0.4,1,0.9
			c-0.3,0.1-0.5,0.4-0.5,0.7c0,0.1,0,0.2,0,0.3c-0.2,0.1-0.4,0.2-0.5,0.2c-0.6,0-1.1-0.6-1.1-1.1C44.6,82.5,45.2,82.1,45.7,82.1z
			 M44.1,82.2c0.2,0,0.4,0.1,0.6,0.2c-0.3,0.2-0.4,0.4-0.4,0.7c0,0.3,0.2,0.8,0.6,1c-0.2,0.2-0.4,0.3-0.7,0.3
			c-0.6,0-1.1-0.6-1.1-1.2C43,82.6,43.6,82.2,44.1,82.2z M47.4,86.7c0.2,0.2,0.4,0.4,0.4,0.6c0.2,0.6-0.2,1.1-0.7,1.3
			c-0.6,0.2-1.3-0.3-1.5-0.9c-0.1-0.2,0-0.5,0.1-0.7c0,0,0,0,0,0C46.4,87.3,47.1,87.2,47.4,86.7z M48.9,84.8c0.2,0,0.4,0.1,0.5,0.2
			c-0.3,0.4-0.1,1,0.4,1.4c-0.2,0.3-0.5,0.5-0.9,0.5c-0.6,0-1.1-0.6-1.1-1.2h0.1C48.3,85.8,48.8,85.4,48.9,84.8L48.9,84.8z
			 M48.3,89.6c-0.2,0.3-0.6,0.5-1,0.5c-0.6,0-1.3-0.7-1.3-1.3c0-0.1,0-0.1,0-0.2c0.2,0.2,0.6,0.4,0.9,0.4c0.2,0,0.4-0.1,0.6-0.2
			C47.7,89.2,48,89.5,48.3,89.6z M48.1,88.1C48.1,88.1,48.1,88.1,48.1,88.1c0,0.3-0.1,0.5-0.4,0.7C47.9,88.6,48,88.4,48.1,88.1z
			 M45.4,84.6c-0.3,0.2-0.5,0.5-0.5,0.8c0,0.3,0.2,0.7,0.4,1c-0.1,0-0.2,0-0.3,0c-0.7,0-1.3-0.7-1.3-1.4c0-0.2,0-0.3,0.1-0.5
			c0.1,0,0.2,0,0.3,0c0.3,0,0.6-0.1,0.8-0.3C45.1,84.5,45.3,84.6,45.4,84.6z M45.7,86.9c-0.3,0.2-0.5,0.5-0.5,0.8
			c0,0.2,0.1,0.4,0.2,0.6h-0.1c-0.6,0-1.1-0.6-1.2-1.2c0-0.3,0.1-0.5,0.3-0.6c0.2,0.1,0.4,0.2,0.6,0.2c0.1,0,0.2,0,0.3,0
			C45.5,86.8,45.6,86.9,45.7,86.9z M48.8,87.3c0.6,0,1.1,0.5,1.1,1.1c0,0.5-0.5,0.9-1.1,0.9c-0.4,0-0.8-0.3-1-0.7
			c0.3-0.1,0.6-0.5,0.6-0.8c0-0.1,0-0.3-0.1-0.4C48.4,87.4,48.6,87.3,48.8,87.3z M47.7,83.1c0.7,0,1.2,0.6,1.2,1.3
			c0,0.6-0.5,1.1-1.2,1.1c-0.7,0-1.3-0.7-1.3-1.4C46.3,83.5,47,83.1,47.7,83.1z M56.9,86.6c0.6,0.4,0.7,1.1,0.4,1.5
			c-0.3,0.4-1,0.4-1.6,0c-0.5-0.4-0.7-1.1-0.4-1.5C55.7,86.2,56.4,86.2,56.9,86.6z M54.2,85.9c0.5,0.4,0.6,1.1,0.4,1.4
			c-0.3,0.4-0.9,0.4-1.4,0c-0.5-0.4-0.6-1-0.4-1.5C53.1,85.5,53.7,85.5,54.2,85.9z M51.4,84.5c0.6,0.5,0.8,1.2,0.5,1.7
			c-0.4,0.5-1.2,0.5-1.8,0c-0.6-0.5-0.9-1.2-0.5-1.7C50,84.1,50.8,84.1,51.4,84.5z"/>
		<path class="st15" d="M68.7,58.5c-0.4-2.1-1.1-3.6-1.9-4.9c-0.6-0.6-1.2-1.1-1.8-1.7c0.7,0.5,1.4,1.1,2.2,1.6
			c0.7,1.2,1.4,2.6,1.7,4.1c0.3-0.2,0.4-0.1,0.6-0.3c1.2-0.6,2.6-2.4,3.8-3.7c-0.2,0.4-0.9,1.6-1.1,2c-2.3,2.3-3.2,2.4-3.2,3.3
			c-0.1,0.3-0.1,0.5-0.2,0.8c0.4-0.4,1.8-1.7,2.2-2.2c-0.4,0.6-1.8,2.1-1.8,2.7c-0.5,0.5-0.2,1-0.1,1.5c1.7-0.5,3.6-1.9,5.5-3.3
			c-1.9,2.3-3.6,2.3-5.5,4.5c-0.1,0.9-0.2,1.7-0.3,2.5c0.1,0.7,0.2,1.4,0.2,2.2c0.4,0.1,0.8,0.3,1,0.7c1.2,0.2,4.7,0.3,5.9,1
			l-14.9,0c0.7-0.5,4.2-0.7,5.3-0.7c0.2-0.5,0.7-0.9,1.4-1.1c0.1-1.2,0.2-2.4,0.2-3.6c0.1-0.5-0.2-1.1-0.8-1.6
			c-1.5-1-2.7-2.6-3.7-3.9c1.6,1.6,3.2,3.1,4.6,4c0.1-0.2,0.1-0.4,0.2-0.6V60c-1.1-0.9-2.2-1.7-3.2-3.1c0,0-1.2-1.4-1.2-1.5
			c1,1.1,3.4,3.3,4.4,3.9c0-0.1,0-0.3,0-0.4c-0.1-0.2-0.2-0.3-0.4-0.5C68.4,58.5,68.5,58.5,68.7,58.5"/>
		<path class="st16" d="M68.7,58.5c-0.4-2.1-1.1-3.6-1.9-4.9c-0.6-0.6-1.2-1.1-1.8-1.7c0.7,0.5,1.4,1.1,2.2,1.6
			c0.7,1.2,1.4,2.6,1.7,4.1c0.3-0.2,0.4-0.1,0.6-0.3c1.2-0.6,2.6-2.4,3.8-3.7c-0.2,0.4-0.9,1.6-1.1,2c-2.3,2.3-3.2,2.4-3.2,3.3
			c-0.1,0.3-0.1,0.5-0.2,0.8c0.4-0.4,1.8-1.7,2.2-2.2c-0.4,0.6-1.8,2.1-1.8,2.7c-0.5,0.5-0.2,1-0.1,1.5c1.7-0.5,3.6-1.9,5.5-3.3
			c-1.9,2.3-3.6,2.3-5.5,4.5c-0.1,0.9-0.2,1.7-0.3,2.5c0.1,0.7,0.2,1.4,0.2,2.2c0.4,0.1,0.8,0.3,1,0.7c1.2,0.2,4.7,0.3,5.9,1
			l-14.9,0c0.7-0.5,4.2-0.7,5.3-0.7c0.2-0.5,0.7-0.9,1.4-1.1c0.1-1.2,0.2-2.4,0.2-3.6c0.1-0.5-0.2-1.1-0.8-1.6
			c-1.5-1-2.7-2.6-3.7-3.9c1.6,1.6,3.2,3.1,4.6,4c0.1-0.2,0.1-0.4,0.2-0.6V60c-1.1-0.9-2.2-1.7-3.2-3.1c0,0-1.2-1.4-1.2-1.5
			c1,1.1,3.4,3.3,4.4,3.9c0-0.1,0-0.3,0-0.4c-0.1-0.2-0.2-0.3-0.4-0.5C68.4,58.5,68.5,58.5,68.7,58.5z"/>
		<path class="st17" d="M74.6,58.3c0.6-1.8,1.2-1.8,2.3-2.3C76.1,57.7,75.5,58.3,74.6,58.3"/>
		<path class="st18" d="M74.6,58.3c0.6-1.8,1.2-1.8,2.3-2.3C76.1,57.7,75.5,58.3,74.6,58.3z"/>
		<path class="st17" d="M69.6,62.8c2-1.1,2.5,0.4,3.4,0.4C71.8,64.1,70.3,62.8,69.6,62.8"/>
		<path class="st18" d="M69.6,62.8c2-1.1,2.5,0.4,3.4,0.4C71.8,64.1,70.3,62.8,69.6,62.8z"/>
		<path class="st17" d="M71.1,52.7c-1.1-2.5,0.9-2.6,1-3.6C73,50.7,71.2,51.9,71.1,52.7"/>
		<path class="st18" d="M71.1,52.7c-1.1-2.5,0.9-2.6,1-3.6C73,50.7,71.2,51.9,71.1,52.7z"/>
		<path class="st17" d="M67.6,61.7c-0.9-1.3-0.5-1.5-0.1-2.4C68.2,60.6,68.1,61.2,67.6,61.7"/>
		<path class="st18" d="M67.6,61.7c-0.9-1.3-0.5-1.5-0.1-2.4C68.2,60.6,68.1,61.2,67.6,61.7z"/>
		<path class="st17" d="M65.2,59.7c-1.8-1.4-0.2-2.2-0.5-3C66,57.4,64.9,59.1,65.2,59.7"/>
		<path class="st18" d="M65.2,59.7c-1.8-1.4-0.2-2.2-0.5-3C66,57.4,64.9,59.1,65.2,59.7z"/>
		<path class="st17" d="M66.7,60.9c-1.8-1.4-0.5-2.4-0.9-3.2C67.1,58.4,66.4,60.3,66.7,60.9"/>
		<path class="st18" d="M66.7,60.9c-1.8-1.4-0.5-2.4-0.9-3.2C67.1,58.4,66.4,60.3,66.7,60.9z"/>
		<path class="st17" d="M73.5,53.5c-0.2-2.5,1.2-2.9,2.2-3.9C75.7,52,74.5,53.3,73.5,53.5"/>
		<path class="st18" d="M73.5,53.5c-0.2-2.5,1.2-2.9,2.2-3.9C75.7,52,74.5,53.3,73.5,53.5z"/>
		<path class="st17" d="M70.7,61.8c2-1.2,2.5,0.3,3.4,0.3C73,63,71.4,61.8,70.7,61.8"/>
		<path class="st18" d="M70.7,61.8c2-1.2,2.5,0.3,3.4,0.3C73,63,71.4,61.8,70.7,61.8z"/>
		<path class="st17" d="M72.2,60.9c2.1-0.9,2.4,0.7,3.4,0.7C74.3,62.4,72.9,61,72.2,60.9"/>
		<path class="st18" d="M72.2,60.9c2.1-0.9,2.4,0.7,3.4,0.7C74.3,62.4,72.9,61,72.2,60.9z"/>
		<path class="st17" d="M73.4,60.3c1.3-1.5,2.2-0.2,2.9-0.5C75.6,60.9,74,60.1,73.4,60.3"/>
		<path class="st18" d="M73.4,60.3c1.3-1.5,2.2-0.2,2.9-0.5C75.6,60.9,74,60.1,73.4,60.3z"/>
		<path class="st17" d="M74.4,59.3c0.7-1.6,1.6-0.4,2.1-0.7C76.2,59.8,74.8,59,74.4,59.3"/>
		<path class="st18" d="M74.4,59.3c0.7-1.6,1.6-0.4,2.1-0.7C76.2,59.8,74.8,59,74.4,59.3z"/>
		<path class="st17" d="M68.3,62.8c-2-1.1-2.5,0.4-3.4,0.4C66.1,64.1,67.6,62.8,68.3,62.8"/>
		<path class="st18" d="M68.3,62.8c-2-1.1-2.5,0.4-3.4,0.4C66.1,64.1,67.6,62.8,68.3,62.8z"/>
		<path class="st17" d="M67.2,61.8c-2-1.2-2.5,0.3-3.4,0.3C64.9,63,66.5,61.8,67.2,61.8"/>
		<path class="st18" d="M67.2,61.8c-2-1.2-2.5,0.3-3.4,0.3C64.9,63,66.5,61.8,67.2,61.8z"/>
		<path class="st17" d="M65.7,60.9c-2.1-0.9-2.5,0.7-3.4,0.7C63.6,62.4,65,61,65.7,60.9"/>
		<path class="st18" d="M65.7,60.9c-2.1-0.9-2.5,0.7-3.4,0.7C63.6,62.4,65,61,65.7,60.9z"/>
		<path class="st17" d="M64.6,60.3c-1.3-1.5-2.2-0.2-3-0.5C62.3,60.9,64,60.1,64.6,60.3"/>
		<path class="st18" d="M64.6,60.3c-1.3-1.5-2.2-0.2-3-0.5C62.3,60.9,64,60.1,64.6,60.3z"/>
		<path class="st17" d="M63.6,59.3c-0.7-1.6-1.6-0.4-2.2-0.7C61.7,59.8,63.1,59,63.6,59.3"/>
		<path class="st18" d="M63.6,59.3c-0.7-1.6-1.6-0.4-2.2-0.7C61.7,59.8,63.1,59,63.6,59.3z"/>
		<path class="st17" d="M63.6,58.2c-0.6-1.9-1.2-1.8-2.3-2.3C62.1,57.5,62.8,58.2,63.6,58.2"/>
		<path class="st18" d="M63.6,58.2c-0.6-1.9-1.2-1.8-2.3-2.3C62.1,57.5,62.8,58.2,63.6,58.2z"/>
		<path class="st17" d="M70.2,61.3c0.8-1,0.8-1.6,0.7-2.5C69.8,59.8,70,60.7,70.2,61.3"/>
		<path class="st18" d="M70.2,61.3c0.8-1,0.8-1.6,0.7-2.5C69.8,59.8,70,60.7,70.2,61.3z"/>
		<path class="st17" d="M73.2,59.2c2.1-0.9,0.8-2.2,1.2-3.6C73.3,56.9,73.3,58.6,73.2,59.2"/>
		<path class="st18" d="M73.2,59.2c2.1-0.9,0.8-2.2,1.2-3.6C73.3,56.9,73.3,58.6,73.2,59.2z"/>
		<path class="st17" d="M71.4,60.4c2.1-0.9,1-2.5,1.6-3.3C71.8,57.9,71.9,59.9,71.4,60.4"/>
		<path class="st18" d="M71.4,60.4c2.1-0.9,1-2.5,1.6-3.3C71.8,57.9,71.9,59.9,71.4,60.4z"/>
		<path class="st17" d="M65,56.5c-1.2-1.6-1.7-1.4-2.9-1.6C63.3,56.3,64.2,56.7,65,56.5"/>
		<path class="st18" d="M65,56.5c-1.2-1.6-1.7-1.4-2.9-1.6C63.3,56.3,64.2,56.7,65,56.5z"/>
		<path class="st17" d="M64.6,55.8c0.1-2.3-0.5-2.4-1.4-3.4C63.3,54.5,63.7,55.4,64.6,55.8"/>
		<path class="st18" d="M64.6,55.8c0.1-2.3-0.5-2.4-1.4-3.4C63.3,54.5,63.7,55.4,64.6,55.8z"/>
		<path class="st17" d="M65.6,52.2c1.2-1.7,0.6-1.9,0.1-2.9C64.8,50.9,64.8,51.7,65.6,52.2"/>
		<path class="st18" d="M65.6,52.2c1.2-1.7,0.6-1.9,0.1-2.9C64.8,50.9,64.8,51.7,65.6,52.2z"/>
		<path class="st17" d="M65.9,57.4c-1.8-1.4-0.2-2.2-0.5-3C66.8,55.2,65.7,56.8,65.9,57.4"/>
		<path class="st18" d="M65.9,57.4c-1.8-1.4-0.2-2.2-0.5-3C66.8,55.2,65.7,56.8,65.9,57.4z"/>
		<path class="st17" d="M67.6,58.6c-0.9-1.3-0.5-1.5-0.1-2.4C68.2,57.4,68.1,58.1,67.6,58.6"/>
		<path class="st18" d="M67.6,58.6c-0.9-1.3-0.5-1.5-0.1-2.4C68.2,57.4,68.1,58.1,67.6,58.6z"/>
		<path class="st17" d="M66.7,57.9c0.5-1.1,0.3-1.7,0-2.6C65.9,56.5,66.3,57.4,66.7,57.9"/>
		<path class="st18" d="M66.7,57.9c0.5-1.1,0.3-1.7,0-2.6C65.9,56.5,66.3,57.4,66.7,57.9z"/>
		<path class="st17" d="M67.1,53.2c-1.8-1.4-0.2-2.2-0.5-3C68,50.9,66.9,52.6,67.1,53.2"/>
		<path class="st18" d="M67.1,53.2c-1.8-1.4-0.2-2.2-0.5-3C68,50.9,66.9,52.6,67.1,53.2z"/>
		<path class="st17" d="M70.9,52.3c-2.2-0.7-1-2-1.6-2.7C70.9,49.9,70.5,51.8,70.9,52.3"/>
		<path class="st18" d="M70.9,52.3c-2.2-0.7-1-2-1.6-2.7C70.9,49.9,70.5,51.8,70.9,52.3z"/>
		<path class="st17" d="M69.6,57.4c0.6-1.4,0.5-2.1,0.1-3.2C68.7,55.6,69.1,56.7,69.6,57.4"/>
		<path class="st18" d="M69.6,57.4c0.6-1.4,0.5-2.1,0.1-3.2C68.7,55.6,69.1,56.7,69.6,57.4z"/>
		<path class="st17" d="M72.6,54.2c1.8-1.4,0.1-2.3,0.1-3.7C72.2,52,72.6,53.7,72.6,54.2"/>
		<path class="st18" d="M72.6,54.2c1.8-1.4,0.1-2.3,0.1-3.7C72.2,52,72.6,53.7,72.6,54.2z"/>
		<path class="st17" d="M70.7,56.6c1.7-1.9-0.4-2.7-0.2-3.6C69.6,54.2,70.9,55.9,70.7,56.6"/>
		<path class="st18" d="M70.7,56.6c1.7-1.9-0.4-2.7-0.2-3.6C69.6,54.2,70.9,55.9,70.7,56.6z"/>
		<path class="st17" d="M77,53.3c-1.7,1.5-2.3,1.1-3.9,1C74.8,53,75.9,52.8,77,53.3"/>
		<path class="st18" d="M77,53.3c-1.7,1.5-2.3,1.1-3.9,1C74.8,53,75.9,52.8,77,53.3z"/>
		<path class="st17" d="M72,55.8c1.9-1.3,2.4-0.8,4-0.5C74.1,56.3,73,56.4,72,55.8"/>
		<path class="st18" d="M72,55.8c1.9-1.3,2.4-0.8,4-0.5C74.1,56.3,73,56.4,72,55.8z"/>
		<path class="st17" d="M72.1,55.2c0.3-1.5,0-2.1-0.7-3.1C70.9,53.8,71.5,54.7,72.1,55.2"/>
		<path class="st18" d="M72.1,55.2c0.3-1.5,0-2.1-0.7-3.1C70.9,53.8,71.5,54.7,72.1,55.2z"/>
		<path class="st17" d="M68.4,55.6c-0.6-1.4-0.1-1.6,0.4-2.4C69.3,54.6,69.1,55.2,68.4,55.6"/>
		<path class="st18" d="M68.4,55.6c-0.6-1.4-0.1-1.6,0.4-2.4C69.3,54.6,69.1,55.2,68.4,55.6z"/>
		<path class="st17" d="M67.5,54.1c0.8-0.9,0.9-1.5,0.9-2.5C67.3,52.5,67.3,53.4,67.5,54.1"/>
		<path class="st18" d="M67.5,54.1c0.8-0.9,0.9-1.5,0.9-2.5C67.3,52.5,67.3,53.4,67.5,54.1z"/>
		<path class="st17" d="M66.6,53.4c-1-0.7-1.7-0.7-2.6-0.6C65,53.8,66,53.6,66.6,53.4"/>
		<path class="st18" d="M66.6,53.4c-1-0.7-1.7-0.7-2.6-0.6C65,53.8,66,53.6,66.6,53.4z"/>
		<path class="st17" d="M67.7,55.6c-1-0.7-1.6-0.7-2.6-0.6C66.2,56,67.1,55.9,67.7,55.6"/>
		<path class="st18" d="M67.7,55.6c-1-0.7-1.6-0.7-2.6-0.6C66.2,56,67.1,55.9,67.7,55.6z"/>
		<path class="st17" d="M67.6,54.7c-1-0.7-1.7-0.7-2.6-0.6C66,55.1,66.9,54.9,67.6,54.7"/>
		<path class="st18" d="M67.6,54.7c-1-0.7-1.7-0.7-2.6-0.6C66,55.1,66.9,54.9,67.6,54.7z"/>
		<path class="st17" d="M69.6,57.9c2,1.1,2.5-0.3,3.5-0.3C71.9,56.6,70.4,57.9,69.6,57.9"/>
		<path class="st18" d="M69.6,57.9c2,1.1,2.5-0.3,3.5-0.3C71.9,56.6,70.4,57.9,69.6,57.9z"/>
		<path class="st17" d="M71.1,56.7c1.8-1,2.1-0.6,3.3-0.3C72.7,57.2,71.8,57.2,71.1,56.7"/>
		<path class="st18" d="M71.1,56.7c1.8-1,2.1-0.6,3.3-0.3C72.7,57.2,71.8,57.2,71.1,56.7z"/>
		<path class="st17" d="M65.3,52.4c-1.7,0.1-1.9-0.7-2.6-1.3C64.3,51.1,65.2,51.8,65.3,52.4"/>
		<path class="st18" d="M65.3,52.4c-1.7,0.1-1.9-0.7-2.6-1.3C64.3,51.1,65.2,51.8,65.3,52.4z"/>
		<path class="st19" d="M58.6,68.2c-0.3-0.1-0.6-0.1-0.7-0.1c-0.5,0-2.1-0.5-2.4-0.4c-0.9,0.3-2.5-0.7-3-0.3
			c-0.4,0.2-2.4,0.1-3.1,0.1c-1.5,0-2.5-0.3-3.8,0.2c-0.6,0.3-1.5-0.6-1.8-0.3c-0.6,0.6-1.4,0.8-2.3,0.8c-0.1,0.3-0.2,0.7-0.4,1
			h17.3V68.2z"/>
		<path class="st8" d="M58.6,68.2c-0.3-0.1-0.6-0.1-0.7-0.1c-0.5,0-2.1-0.5-2.4-0.4c-0.9,0.3-2.5-0.7-3-0.3
			c-0.4,0.2-2.4,0.1-3.1,0.1c-1.5,0-2.5-0.3-3.8,0.2c-0.6,0.3-1.5-0.6-1.8-0.3c-0.6,0.6-1.4,0.8-2.3,0.8c-0.1,0.3-0.2,0.7-0.4,1
			h17.3V68.2z"/>
		<path class="st6" d="M55.4,61.2c-0.9,0.3-1.5,2.7-1.8,3.4c-0.2,0.4-0.6,1.3-0.2,1.8c0.2,0.2,0.5,0.3,0.5,0.6
			c0.6,0.1,0.9,0.4,0.9,0.8c-0.2,0.4-1.1,0.3-1.6,0.1c0-0.1,0-0.2-0.2-0.3c0-0.1-0.1-0.2-0.1-0.3c-1.3-0.6-0.4-1.4-0.5-3.2
			c-0.1,0.3-0.2,0.6-0.3,0.9c-0.1,0.8-0.2,1.5-0.1,2.2c0.2,0.3,0.4,0.5,0.7,0.7c0.3,0.1,0.3,0.2,0.6,0.6c0,0.1,0.2,0.4,0,0.4
			c-0.1,0.2-0.2,0.4-1.2,0.1c0-0.1,0-0.3,0-0.4c-0.1,0.1-0.2,0-0.3-0.2c0-0.2-0.2-0.4-0.4-0.6c0-0.3-0.4-0.3-0.5-0.7
			c-0.1-0.4,0.1-1.1,0.2-1.7c0.2-0.9,0.3-1.7,0.3-2.5c-0.4-0.4-0.5-1-0.4-1.8c-0.8,0.3-2-0.3-2.4-0.6c-0.4-0.3-0.2,1.7-1.6,2.5
			c-0.3,0.3-0.4,0.5-0.6,0.9c-0.5,0.5,0.3,2.1,0.8,2.6c0.2,0.3,0.6,0.8,0.9,1c0.4,0.2,0.9,0.5,0.9,0.9c-0.5,0.2-1.3,0.2-1.7,0
			c0-0.2-0.3-0.5-0.1-0.7c-0.3,0-0.7-0.2-0.8-0.3c-0.1-0.4-1.2-2.6-1.5-3c-0.2,0-0.3-0.5-0.3-0.7c0.1-0.3,0.1,0,0.5-1.1
			c-0.3,0.5-1.1,1-1,1.7c0.1,0.5,0.6,1.7,0.7,2.2c0.3,0.3,0.2,0.5,0.9,0.8c0.3,0.3,0.9,0.7,0.9,1.1c-0.3,0.2-1.3,0.3-1.7,0.1
			c-0.1-0.2-0.1-0.6-0.2-0.8c-0.1,0-0.1-0.2-0.2-0.2c-0.2-0.1-0.6-0.1-0.8-0.2c-0.2-1.1-0.5-3-0.8-4.1c-0.1-0.2,0.1-0.9,0.3-1
			c0.5-0.3,0.9-1,1.2-1.4c0.6-0.4,0.3-1.6-0.3-2.2c-0.2,0.3-0.1,0.4-0.2,0.5c-0.3,0.1-0.7-0.6-0.5-1c0.1-0.5,0-0.9,0.1-1.5
			c0.2-1.1,0.8-1.3,1.4-0.7c0.8-0.7,1.8-1.2,2.8-1c1.8-0.5,3,0.1,3.8,0.3c1,0.2,1.5,0.6,2.2,1.2c0.3,0.2,0.6,0,0.9-0.2
			c0-1.6-0.1-3.3-0.9-5.1c-0.7,0.4-1.3,0-2.1-0.5c-0.2-0.1-0.2-0.2,0-0.3c0.3,0,0.5-0.2,0.7-0.2c-0.4-0.3-0.3-0.4-0.1-0.5
			c0.6,0.1,1.2-0.3,1.7,0c0.4-0.5,1-0.5,1.6-0.6c0.5,0,0.9,0.2,1.4,0.6c0.2,0.3,0.9,0.4,1.1,0.5c0.1,0.2,0,0.6-0.1,0.8
			c-0.1,0.2-0.4,0.3-0.6,0.4c-0.1,0.1-0.3,0-0.5,0.1c0,0.1-0.3,0.3-0.5,0.4c0.5,1.2,0.8,3.2,0.7,5.1c0,1-0.1,2.2-1.1,3.1
			C55.4,60.3,55.6,60.8,55.4,61.2"/>
		<path class="st15" d="M53.9,50.4c-0.1,0.2-0.6,0.6-1,0.5c-0.4-0.1-0.4-0.4-0.9-0.4c-0.2-0.1-0.2-0.2,0-0.2c0.5-0.2,1.3-0.5,1.8,0
			c-0.4,0-0.5,0.1-1,0.1C53.4,50.5,53.5,50.6,53.9,50.4"/>
		<path class="st20" d="M52.4,49.9c-0.2-0.1-0.3-0.1-0.1-0.2c0.7,0.1,1.2-0.3,1.6,0.1c-0.1,0.1-0.1,0.1-0.3,0.1
			C53.5,49.7,52.7,49.9,52.4,49.9"/>
		<path class="st15" d="M54.2,49.7c0.5-0.5,1.2-0.7,2.1-0.1c0.4,0.5,0.8,0.5,1.3,0.6c0,0.2,0.2,0.3,0.3,0.3c0,0.1-0.1,0.2-0.1,0.3
			c-0.1,0.2-0.6,0.1-1,0.1c0.3,0.1,0.7,0.1,0.9,0.1c-0.1,0.2-0.3,0.4-1,0.3c-0.2,0.3-0.5,0.6-1.2,0.4c-0.2,0-0.5-0.1-0.7-0.2
			c0.3,0.3,0.7,0.6,1.1,0.6c0.1,0.4,0.9,2.9,0.8,4.5c0.1,0.6-0.2,1.8-0.6,2.6c-0.2,0.4-0.4,0.5-0.6,0.7c-0.4,0.5-0.3,1-0.4,1.3
			c-1.1,0.1-1.2,3.3-1.9,3.2c-0.5-0.1-0.7-1.7-0.1-2.1c2-1.1,1.2-3.8,1.3-3.6c-0.4,1.5-0.1,2.9-1.1,2.8c-0.8-0.3-1.2,1.9-1.2,2.3
			c0,0.5-0.1,0.6-0.2,1c-0.1,0.3-0.1,0.8-0.2,1.9c0,0.2,0,0.4,0.1,0.6c0.2,0.3,0.4,0.6,0.8,0.8c0.4,0.2,0.6,0.7,0.5,0.8
			c-0.1,0.1-0.5,0.3-0.9,0c0-0.1-0.1-0.2-0.1-0.4c-0.3,0-0.3-0.4-0.6-0.7c0.1-0.3-0.5-0.3-0.5-0.8c0-0.5,0.3-1.6,0.5-2.5
			c0.2-0.5,0.2-1,0.3-1.3c-0.2-0.4,0.3-0.4,0-0.7c-0.6-0.6-0.6-1.5,0.3-2.5c-0.2-0.1-0.3-0.4-0.4-0.6V60L51,60.9
			c-0.7,0.1-2.1-0.3-2.6-0.9c-0.3-0.3-0.6-0.6-0.6-1.2c0-0.1-0.4,0-0.3,0.1c0.1,0.2-0.1,0.4,0,0.6c0,0.2,0.6,0.4,0.5,0.6l-0.1,1.1
			c-0.1,0.7-0.6,1.4-1.4,2.1l-0.5,1.2c0,0.7,0.9,2,1.4,2.6c0.2,0.2,0.3,0.5,0.5,0.7c0.2,0.1,0.6,0.3,0.8,0.7c-0.3,0.1-0.8,0.2-1.4,0
			c-0.1-0.1-0.1-0.5,0-0.6c-0.3-0.1-0.6-0.1-0.9-0.4c-0.5-1-1-2-1.6-3.1c-0.2-0.3-0.1-0.6,0.2-0.9c0.6-1.3,0.7-2.3,0.4-3
			c-0.5-0.2-1-1.1-1.1-2c-0.1-1,0-2.1,0.6-2.6c0.5-0.5,1.6-0.9,2.5-0.7c1.4-0.6,4.2,0.3,4.7,0.6c0.8,0.1,1,1,1.7,0.9
			c0.4,0,0.7-0.3,0.8-0.8c0-3.8-1-4.2-0.8-4.9c0.1-0.2,0.2-0.4,0.4-0.5c-0.2-0.1-0.3-0.3-0.3-0.4C54.1,49.9,54.1,49.8,54.2,49.7"/>
		<path class="st6" d="M56.6,50.3c-0.5-0.1-0.5-0.3-1-0.2c-0.3,0.2-0.3,0.2-0.4,0.4c0.2-0.1,0.2-0.1,0.4-0.1
			c0.2,0.1,0.6,0.1,0.6-0.1C56.4,50.3,56.4,50.3,56.6,50.3"/>
		<path class="st15" d="M53.4,61.7c0.1,0.4,0.1,0.6-0.1,1c0.3,0.4,0.3,0.9-0.2,1.4c0.4,0.7-0.1,1-0.1,1.9c0.2,0.6,0.6,0.6,0.6,0.9
			c0.5,0.1,0.9,0.2,0.9,0.6c0,0.1-0.1-0.1-0.3-0.1c0.2,0.1,0.2,0.2,0.2,0.2c-0.1,0.1-0.4,0.1-0.8,0.1c-0.1-0.1-0.3-0.1-0.4-0.3
			c0-0.1,0.1-0.3,0.1-0.4c-0.5-0.1-0.7-0.4-0.7-0.9c-0.1,0.2-0.2,0.3-0.2,0.4c-0.1-0.2-0.3-0.4-0.2-0.7c0.3-0.9,0.3-1.5,0.2-2.2
			C52.5,62.3,52.9,62,53.4,61.7"/>
		<path class="st11" d="M44,56.8c0.1,0.1-0.1,0.5-0.3,0.9c0.2,0,0.3-0.1,0.5-0.3c-0.1,0.3-0.2,0.5-0.4,0.7c0.1,0,0.2,0,0.4-0.3V58
			c-0.1,0.1-0.1,0.4-0.2,0.5c-0.1,0.1-0.2,0.4-0.3,0.6c-0.2-0.3-0.4-0.7-0.1-1.5c-0.2-0.2,0-0.5,0.2-0.7c-0.1,0-0.2,0.1-0.2,0.1
			c0-0.4,0.1-0.7,0.4-1.1c0.3-0.1,0.4-0.1,0.6,0.2c0,0.2,0,0.2-0.3,0.4C43.8,56.7,43.9,56.8,44,56.8"/>
		<path class="st21" d="M45.8,59.5c0,0.9,0.2,1.4,0.2,2.1c0,0.7-0.4,1.4-0.7,2.2c0.1-0.1,0.3-0.4,0.4-0.3c0.1-0.5,0.3-0.8,0.5-1.2
			c0.2-0.5,0.3-1,0.1-1.3C46.1,60.7,45.9,60.1,45.8,59.5"/>
		<path class="st15" d="M43.8,64c0,0.2-0.1,0.3-0.1,0.5c0.2,0.9,0.4,1.7,0.7,2.3c0.2,0.1,0.3,0.3,0.4,0.4c0.1,0.1,0.2,0.2,0.4,0.3
			c0.4,0.2,0.7,0.5,0.9,0.8c-0.4,0.2-0.9,0.1-1.3,0c-0.1-0.3-0.2-0.5-0.3-0.8c-0.1-0.1-0.2-0.1-0.2-0.2c-0.2-0.1-0.8-0.3-0.8-0.5
			c-0.1-1.2-0.3-2.2-0.6-3.4c-0.1-0.5-0.1-0.8,0.2-1.1c0.4-0.3,0.9-0.7,1.1-1.1c0.4-0.3,0.6-0.8,0.6-1.3c0.3,0.3,0.4,0.7,0.4,1
			c0.2,0.5,0,1.1-0.2,1.6C44.6,63.1,44.2,63.6,43.8,64"/>
		<path class="st21" d="M44.7,60.9c-0.1,1.1-1.4,1.7-1.4,2.8c0-0.4-0.1-0.7,0.2-1.3C43.9,62.1,44.3,61.5,44.7,60.9"/>
		<path class="st21" d="M43.5,61.8c-0.2,0.3-0.4,0.6-0.5,0.9c0-0.2-0.1-0.4,0.1-0.6C43.2,61.9,43.3,61.8,43.5,61.8"/>
		<path class="st6" d="M59.9,43.4c0.8-1.2,2-1.4,3.2-1.3c0.9-1.2,1.9-1.9,3.3-1.5c0-0.7,0.3-1.3,0.8-2c-1.3-1-1.8-2-2.1-3
			c-1-0.1-1.9-0.5-2.9-1.3c-0.7,0.1-1.3,0.4-2.1-0.2c-0.5,0.7-0.9,0.5-1.8,0c-0.7,0.1-1.6,0.4-2.4,0.5c-0.4,0.8-1.5,1.1-2.5,0.9
			c0.1,1.1-0.1,2.3-0.9,3c0.6,0.8,0.3,0.6,0.6,1.4c0.3,0.7,1.8,1.2,2.1,2.1c0.7,0.4,1.1,0.5,2,0.4C58.1,42.1,59.2,42.9,59.9,43.4
			 M62.2,45.7c2.2,0.3,3.5,0,3.8-1c0.2,0.6,4.6-0.7,3.9-1.8c1.5-0.4,2-1.5,2.2-2.4c0.1-0.2-0.8,0.3-1,0.1c0.7-0.7,1.6-2.8,0.4-4
			c-0.1-2.2-0.7-3.6-1.9-3.8c0,0.1,0.2,2.5,0,1.4c-0.2-1.1-2-2.7-3-3.1c-0.8-1.3-2.7-1.7-4.3-1.5c-0.5-0.1-1-0.1-1.8,0.2
			c-0.8-0.3-2.4-0.5-2.9,0c-0.9-0.5-1.1-0.3-2,0c-1.6-0.1-1.7,0.3-2.9,1.3c-0.8,0.1-2,1-2.5,2.2c-0.8,0.8-1.9,1.4-1.9,2.9
			c-1.2,1.1-0.4,3.2-0.1,3.8c-0.3,3.2,0.7,2.7,1.8,3.1c0,1.8,2.4,1.1,3.7,1.9c1.4,1.4,2.2,1.2,6.6,0.1
			C60.9,45.6,61.6,45.7,62.2,45.7"/>
		<path class="st8" d="M59.9,43.4c0.8-1.2,2-1.4,3.2-1.3c0.9-1.2,1.9-1.9,3.3-1.5c0-0.7,0.3-1.3,0.8-2c-1.3-1-1.8-2-2.1-3
			c-1-0.1-1.9-0.5-2.9-1.3c-0.7,0.1-1.3,0.4-2.1-0.2c-0.5,0.7-0.9,0.5-1.8,0c-0.7,0.1-1.6,0.4-2.4,0.5c-0.4,0.8-1.5,1.1-2.5,0.9
			c0.1,1.1-0.1,2.3-0.9,3c0.6,0.8,0.3,0.6,0.6,1.4c0.3,0.7,1.8,1.2,2.1,2.1c0.7,0.4,1.1,0.5,2,0.4C58.1,42.1,59.2,42.9,59.9,43.4z
			 M62.2,45.7c2.2,0.3,3.5,0,3.8-1c0.2,0.6,4.6-0.7,3.9-1.8c1.5-0.4,2-1.5,2.2-2.4c0.1-0.2-0.8,0.3-1,0.1c0.7-0.7,1.6-2.8,0.4-4
			c-0.1-2.2-0.7-3.6-1.9-3.8c0,0.1,0.2,2.5,0,1.4c-0.2-1.1-2-2.7-3-3.1c-0.8-1.3-2.7-1.7-4.3-1.5c-0.5-0.1-1-0.1-1.8,0.2
			c-0.8-0.3-2.4-0.5-2.9,0c-0.9-0.5-1.1-0.3-2,0c-1.6-0.1-1.7,0.3-2.9,1.3c-0.8,0.1-2,1-2.5,2.2c-0.8,0.8-1.9,1.4-1.9,2.9
			c-1.2,1.1-0.4,3.2-0.1,3.8c-0.3,3.2,0.7,2.7,1.8,3.1c0,1.8,2.4,1.1,3.7,1.9c1.4,1.4,2.2,1.2,6.6,0.1
			C60.9,45.6,61.6,45.7,62.2,45.7z"/>
		<path class="st22" d="M66.6,34.1c-0.1,2,1.5,2.2,3.3,3.3C69.5,35.9,68.6,35,66.6,34.1"/>
		<path class="st8" d="M66.6,34.1c-0.1,2,1.5,2.2,3.3,3.3C69.5,35.9,68.6,35,66.6,34.1z"/>
		<path class="st22" d="M70.1,33.4c1.7,3.2-0.5,3.7-0.4,5.1C68.3,36.6,70.2,34.6,70.1,33.4"/>
		<path class="st8" d="M70.1,33.4c1.7,3.2-0.5,3.7-0.4,5.1C68.3,36.6,70.2,34.6,70.1,33.4z"/>
		<path class="st22" d="M66,36c0.9,2.7,1.4,1.8,3.1,2.6C68.1,36.8,67.8,36.5,66,36"/>
		<path class="st8" d="M66,36c0.9,2.7,1.4,1.8,3.1,2.6C68.1,36.8,67.8,36.5,66,36z"/>
		<path class="st22" d="M70,42.1c-1.4-3.4,1.3-3.6,1.4-5C72.7,39.2,70.1,40.9,70,42.1"/>
		<path class="st8" d="M70,42.1c-1.4-3.4,1.3-3.6,1.4-5C72.7,39.2,70.1,40.9,70,42.1z"/>
		<path class="st22" d="M67.3,42.7c2.7-2.2,0.3-3.1,0.7-4.3C66,39.6,67.6,41.8,67.3,42.7"/>
		<path class="st8" d="M67.3,42.7c2.7-2.2,0.3-3.1,0.7-4.3C66,39.6,67.6,41.8,67.3,42.7z"/>
		<path class="st22" d="M69.6,37.8c-1.9,2.2-0.8,2.1-0.6,4C70,39.9,70.1,39.4,69.6,37.8"/>
		<path class="st8" d="M69.6,37.8c-1.9,2.2-0.8,2.1-0.6,4C70,39.9,70.1,39.4,69.6,37.8z"/>
		<path class="st22" d="M67.4,43.3c1.3-3,3.3-1.7,4.3-2.6C71.2,42.9,68.3,42.6,67.4,43.3"/>
		<path class="st8" d="M67.4,43.3c1.3-3,3.3-1.7,4.3-2.6C71.2,42.9,68.3,42.6,67.4,43.3z"/>
		<path class="st22" d="M65.4,43.3c1.2-1.9,1.8-1.5,3.3-1.6C67.4,43.4,66.4,43.8,65.4,43.3"/>
		<path class="st8" d="M65.4,43.3c1.2-1.9,1.8-1.5,3.3-1.6C67.4,43.4,66.4,43.8,65.4,43.3z"/>
		<path class="st22" d="M64.4,43.8c2.5-2.2,3.7-0.2,5.1-0.6C68.1,44.9,65.5,43.6,64.4,43.8"/>
		<path class="st8" d="M64.4,43.8c2.5-2.2,3.7-0.2,5.1-0.6C68.1,44.9,65.5,43.6,64.4,43.8z"/>
		<path class="st22" d="M63.3,43.1c1-3.5,3.3-1.7,4.4-2.6C67.4,43,64.2,42.4,63.3,43.1"/>
		<path class="st8" d="M63.3,43.1c1-3.5,3.3-1.7,4.4-2.6C67.4,43,64.2,42.4,63.3,43.1z"/>
		<path class="st22" d="M62.5,44.2c1.7-1.6,2.2-1,3.6-0.8C64.4,44.7,63.3,44.9,62.5,44.2"/>
		<path class="st8" d="M62.5,44.2c1.7-1.6,2.2-1,3.6-0.8C64.4,44.7,63.3,44.9,62.5,44.2z"/>
		<path class="st22" d="M59.9,44.6c1-3.5,3.3-1.6,4.3-2.6C64,44.4,60.7,43.9,59.9,44.6"/>
		<path class="st8" d="M59.9,44.6c1-3.5,3.3-1.6,4.3-2.6C64,44.4,60.7,43.9,59.9,44.6z"/>
		<path class="st22" d="M60.4,44.8c2.8-1.9,3.7,0.3,5.1,0.1C63.9,46.4,61.6,44.7,60.4,44.8"/>
		<path class="st8" d="M60.4,44.8c2.8-1.9,3.7,0.3,5.1,0.1C63.9,46.4,61.6,44.7,60.4,44.8z"/>
		<path class="st22" d="M52.9,34.4c0.1,2-1.5,2.2-3.3,3.3C50.1,36.2,50.9,35.2,52.9,34.4"/>
		<path class="st8" d="M52.9,34.4c0.1,2-1.5,2.2-3.3,3.3C50.1,36.2,50.9,35.2,52.9,34.4z"/>
		<path class="st22" d="M49.9,34c-2.6,2.7-0.6,3.7-1.1,5C50.7,37.5,49.5,35.1,49.9,34"/>
		<path class="st8" d="M49.9,34c-2.6,2.7-0.6,3.7-1.1,5C50.7,37.5,49.5,35.1,49.9,34z"/>
		<path class="st22" d="M53.3,36c-0.5,2.8-1.1,2-2.7,3.1C51.4,37.1,51.6,36.7,53.3,36"/>
		<path class="st8" d="M53.3,36c-0.5,2.8-1.1,2-2.7,3.1C51.4,37.1,51.6,36.7,53.3,36z"/>
		<path class="st22" d="M49.5,41.7c1.4-3.4-1.2-3.5-1.4-5C46.8,38.9,49.4,40.6,49.5,41.7"/>
		<path class="st8" d="M49.5,41.7c1.4-3.4-1.2-3.5-1.4-5C46.8,38.9,49.4,40.6,49.5,41.7z"/>
		<path class="st22" d="M51.8,42.9c-2.1-2.7,0.5-3.1,0.3-4.3C53.8,40.2,51.7,41.9,51.8,42.9"/>
		<path class="st8" d="M51.8,42.9c-2.1-2.7,0.5-3.1,0.3-4.3C53.8,40.2,51.7,41.9,51.8,42.9z"/>
		<path class="st22" d="M50,38c1.8,2.2,0.8,2.1,0.6,4C49.6,40.2,49.4,39.7,50,38"/>
		<path class="st8" d="M50,38c1.8,2.2,0.8,2.1,0.6,4C49.6,40.2,49.4,39.7,50,38z"/>
		<path class="st22" d="M52.1,43.8c-1-3.1-3.1-2-4.1-3C48.3,43,51.3,43,52.1,43.8"/>
		<path class="st8" d="M52.1,43.8c-1-3.1-3.1-2-4.1-3C48.3,43,51.3,43,52.1,43.8z"/>
		<path class="st22" d="M54.2,43.6c-1.2-1.9-1.8-1.5-3.3-1.6C52.2,43.7,53.1,44.1,54.2,43.6"/>
		<path class="st8" d="M54.2,43.6c-1.2-1.9-1.8-1.5-3.3-1.6C52.2,43.7,53.1,44.1,54.2,43.6z"/>
		<path class="st22" d="M55.2,44.1c-2.5-2.2-3.7-0.2-5.1-0.6C51.5,45.2,54.1,43.8,55.2,44.1"/>
		<path class="st8" d="M55.2,44.1c-2.5-2.2-3.7-0.2-5.1-0.6C51.5,45.2,54.1,43.8,55.2,44.1z"/>
		<path class="st22" d="M54.7,44.2c1.3-2.9-1.4-2.9-1.6-4.1C51.9,41.9,54.5,43.3,54.7,44.2"/>
		<path class="st8" d="M54.7,44.2c1.3-2.9-1.4-2.9-1.6-4.1C51.9,41.9,54.5,43.3,54.7,44.2z"/>
		<path class="st22" d="M57.1,44.4c-1.7-1.6-2.2-1.1-3.6-0.8C55.2,45,56.2,45.2,57.1,44.4"/>
		<path class="st8" d="M57.1,44.4c-1.7-1.6-2.2-1.1-3.6-0.8C55.2,45,56.2,45.2,57.1,44.4z"/>
		<path class="st22" d="M59.6,44.9c-1-3.5-3.3-1.7-4.4-2.6C55.5,44.7,58.8,44.1,59.6,44.9"/>
		<path class="st8" d="M59.6,44.9c-1-3.5-3.3-1.7-4.4-2.6C55.5,44.7,58.8,44.1,59.6,44.9z"/>
		<path class="st22" d="M59.1,45.1c-2.8-1.9-3.7,0.3-5.1,0.1C55.6,46.7,58,45,59.1,45.1"/>
		<path class="st8" d="M59.1,45.1c-2.8-1.9-3.7,0.3-5.1,0.1C55.6,46.7,58,45,59.1,45.1z"/>
	</g>
	<g>
		<defs>
			<rect id="SVGID_3_" x="5.4" y="5.4" width="107.7" height="107.7"/>
		</defs>
		<clipPath id="SVGID_4_">
			<use xlink:href="#SVGID_3_"  style="overflow:visible;"/>
		</clipPath>
		<path class="st23" d="M60.7,30.4c2.5-0.9,2.8,0.7,3.9,0.8C63.1,32,61.5,30.5,60.7,30.4"/>
		<path class="st24" d="M60.7,30.4c2.5-0.9,2.8,0.7,3.9,0.8C63.1,32,61.5,30.5,60.7,30.4z"/>
		<path class="st23" d="M63,29.9c2.8-0.3,2.7,1.5,3.9,1.9C65.1,32.2,63.9,30.2,63,29.9"/>
		<path class="st24" d="M63,29.9c2.8-0.3,2.7,1.5,3.9,1.9C65.1,32.2,63.9,30.2,63,29.9z"/>
		<path class="st23" d="M59.7,33.2c2.6,1.5,3.3-0.3,4.5-0.2C62.7,31.9,60.7,33.3,59.7,33.2"/>
		<path class="st24" d="M59.7,33.2c2.6,1.5,3.3-0.3,4.5-0.2C62.7,31.9,60.7,33.3,59.7,33.2z"/>
		<path class="st23" d="M63,33.7c2.2,1.9,3.3,0.4,4.5,0.7C66.2,33,63.9,34,63,33.7"/>
		<path class="st24" d="M63,33.7c2.2,1.9,3.3,0.4,4.5,0.7C66.2,33,63.9,34,63,33.7z"/>
		<path class="st23" d="M59.5,31.6c2.4,1.6,3.1,0.7,5,0.3C62.5,31.1,61.1,30.9,59.5,31.6"/>
		<path class="st24" d="M59.5,31.6c2.4,1.6,3.1,0.7,5,0.3C62.5,31.1,61.1,30.9,59.5,31.6z"/>
		<path class="st23" d="M63.4,31.6c1.7,2.4,1.9,1.4,3.8,1.7C65.7,31.9,65.2,31.6,63.4,31.6"/>
		<path class="st24" d="M63.4,31.6c1.7,2.4,1.9,1.4,3.8,1.7C65.7,31.9,65.2,31.6,63.4,31.6z"/>
		<path class="st23" d="M66.4,31.3c3.5,1.2,2.2,3,3.3,4C67.3,34.8,67.3,32.2,66.4,31.3"/>
		<path class="st24" d="M66.4,31.3c3.5,1.2,2.2,3,3.3,4C67.3,34.8,67.3,32.2,66.4,31.3z"/>
		<path class="st23" d="M58.4,30.7c-2.5-0.9-2.8,0.7-3.9,0.8C56,32.3,57.5,30.8,58.4,30.7"/>
		<path class="st24" d="M58.4,30.7c-2.5-0.9-2.8,0.7-3.9,0.8C56,32.3,57.5,30.8,58.4,30.7z"/>
		<path class="st23" d="M56.5,30.2c-2.8-0.3-2.7,1.5-3.9,1.8C54.4,32.5,55.7,30.5,56.5,30.2"/>
		<path class="st24" d="M56.5,30.2c-2.8-0.3-2.7,1.5-3.9,1.8C54.4,32.5,55.7,30.5,56.5,30.2z"/>
		<path class="st23" d="M59.8,33.5c-2.5,1.5-3.3-0.3-4.5-0.1C56.8,32.1,58.9,33.5,59.8,33.5"/>
		<path class="st24" d="M59.8,33.5c-2.5,1.5-3.3-0.3-4.5-0.1C56.8,32.1,58.9,33.5,59.8,33.5z"/>
		<path class="st23" d="M56.5,34c-2.2,1.9-3.3,0.4-4.5,0.8C53.3,33.3,55.6,34.3,56.5,34"/>
		<path class="st24" d="M56.5,34c-2.2,1.9-3.3,0.4-4.5,0.8C53.3,33.3,55.6,34.3,56.5,34z"/>
		<path class="st23" d="M60.1,31.9c-2.4,1.6-3.1,0.7-5,0.4C57,31.4,58.4,31.2,60.1,31.9"/>
		<path class="st24" d="M60.1,31.9c-2.4,1.6-3.1,0.7-5,0.4C57,31.4,58.4,31.2,60.1,31.9z"/>
		<path class="st23" d="M56.1,31.9c-1.7,2.4-1.9,1.4-3.8,1.7C53.9,32.2,54.3,31.9,56.1,31.9"/>
		<path class="st24" d="M56.1,31.9c-1.7,2.4-1.9,1.4-3.8,1.7C53.9,32.2,54.3,31.9,56.1,31.9z"/>
		<path class="st23" d="M53.1,31.6c-3.5,1.2-2.2,3-3.3,4C52.2,35.1,52.3,32.4,53.1,31.6"/>
		<path class="st24" d="M53.1,31.6c-3.5,1.2-2.2,3-3.3,4C52.2,35.1,52.3,32.4,53.1,31.6z"/>
		<path class="st23" d="M60.6,30.5c-2.4,1.7-2.2,0.7-4.2,0.4C58.4,30,58.9,29.9,60.6,30.5"/>
		<path class="st24" d="M60.6,30.5c-2.4,1.7-2.2,0.7-4.2,0.4C58.4,30,58.9,29.9,60.6,30.5z"/>
		<path class="st25" d="M95.7,28.3l0.7,0.7l-2,1.8c-0.3,0.3-0.5,0.5-0.6,0.6c-0.1,0.2-0.2,0.4-0.2,0.5c0,0.2,0.1,0.4,0.3,0.6
			c0.2,0.2,0.4,0.3,0.6,0.4c0.2,0,0.4,0,0.5-0.1c0.2-0.1,0.4-0.3,0.7-0.5l2.1-1.8l0.7,0.7l-2,1.8c-0.5,0.4-0.8,0.7-1,0.8
			c-0.2,0.1-0.4,0.2-0.7,0.2c-0.2,0-0.5,0-0.7-0.1c-0.2-0.1-0.5-0.3-0.8-0.6c-0.3-0.4-0.5-0.7-0.6-0.9c-0.1-0.3-0.1-0.5-0.1-0.7
			c0-0.3,0.1-0.4,0.2-0.6c0.1-0.2,0.5-0.6,0.9-0.9L95.7,28.3z M90.9,26.8l0.6,0.5c0.4,0.3,0.6,0.5,0.7,0.6c0.1,0.1,0.2,0.1,0.4,0
			c0.1,0,0.2-0.1,0.3-0.2c0.1-0.1,0.2-0.3,0.2-0.4c0-0.2-0.1-0.3-0.2-0.4c-0.1-0.1-0.2-0.3-0.5-0.5l-0.6-0.6L90.9,26.8z M88.1,28.2
			l3.5-3.6l1.6,1.4c0.4,0.4,0.7,0.7,0.8,0.9c0.1,0.2,0.1,0.5,0.1,0.7c-0.1,0.3-0.2,0.5-0.4,0.7c-0.3,0.3-0.6,0.4-0.9,0.4
			c-0.3,0.1-0.7-0.1-1.1-0.3c0.1,0.2,0.1,0.5,0.1,0.7c0,0.2-0.1,0.5-0.1,1l-0.2,1.1l-0.9-0.8l0.2-1.3c0.1-0.5,0.1-0.8,0.1-0.9
			c0-0.1,0-0.3-0.1-0.4c0-0.1-0.2-0.2-0.3-0.4l-0.1-0.1l-1.5,1.5L88.1,28.2z M84.2,25.5l3.1-4l3,2.2l-0.5,0.7l-2.2-1.6l-0.7,0.9
			l2.1,1.5l-0.5,0.7l-2-1.5l-0.9,1.1l2.3,1.7l-0.5,0.7L84.2,25.5z M83,20.1l-0.7,1.2l0.5,0.3c0.4,0.2,0.6,0.3,0.8,0.3
			c0.2,0,0.3,0,0.4-0.1c0.1-0.1,0.2-0.1,0.3-0.3c0.1-0.1,0.1-0.3,0.1-0.5c0-0.2-0.1-0.3-0.3-0.4c-0.1-0.1-0.3-0.2-0.6-0.4L83,20.1z
			 M80,23.2l2.5-4.3l1.4,0.8c0.5,0.3,0.9,0.5,1,0.7c0.2,0.2,0.4,0.5,0.4,0.8c0.1,0.3,0,0.7-0.2,1c-0.1,0.3-0.3,0.5-0.5,0.6
			c-0.2,0.1-0.4,0.2-0.6,0.2c-0.2,0-0.4,0-0.6-0.1c-0.2-0.1-0.6-0.2-1-0.4l-0.6-0.3l-0.9,1.6L80,23.2z M74.2,20.9l1.7-4.6l1,0.3
			l-1.5,3.8l2.4,0.9l-0.3,0.8L74.2,20.9z M69.5,19.6l1.2-4.8l3.7,0.9l-0.2,0.8l-2.7-0.6l-0.3,1.1l2.5,0.6l-0.2,0.8L71,17.7l-0.3,1.3
			l2.8,0.7l-0.2,0.8L69.5,19.6z M66,14.9l-0.5,3.3l0.8,0.1c0.3,0,0.5,0,0.6,0c0.2,0,0.3-0.1,0.5-0.1c0.1-0.1,0.2-0.2,0.3-0.4
			c0.1-0.2,0.2-0.5,0.2-0.9c0.1-0.4,0.1-0.7,0-0.9c0-0.2-0.1-0.4-0.2-0.5c-0.1-0.1-0.3-0.2-0.5-0.3c-0.1,0-0.4-0.1-0.8-0.2L66,14.9z
			 M65.1,13.9l1.9,0.3c0.4,0.1,0.7,0.1,0.9,0.2c0.3,0.1,0.5,0.3,0.7,0.6c0.2,0.3,0.3,0.5,0.4,0.9c0.1,0.3,0.1,0.7,0,1.2
			c0,0.4-0.2,0.7-0.3,1c-0.2,0.3-0.4,0.6-0.7,0.8c-0.2,0.1-0.5,0.2-0.8,0.3c-0.2,0-0.5,0-0.9,0l-1.9-0.3L65.1,13.9z M59.9,16.6
			l-0.7-1.8l-0.7,1.9L59.9,16.6z M61.9,18.6l-1.1,0l-0.5-1.1l-2,0.1l-0.4,1.1l-1.1,0l1.8-5l1.1,0L61.9,18.6z M55.1,17l1,0.2
			c-0.1,0.6-0.3,1-0.6,1.3c-0.3,0.3-0.7,0.5-1.3,0.6c-0.7,0.1-1.3-0.1-1.8-0.5c-0.5-0.4-0.8-1-0.9-1.8c-0.1-0.8,0-1.5,0.4-2
			c0.4-0.5,0.9-0.8,1.6-0.9c0.6-0.1,1.2,0,1.6,0.3c0.3,0.2,0.5,0.5,0.7,0.8l-1,0.4c-0.1-0.2-0.3-0.4-0.5-0.5
			c-0.2-0.1-0.5-0.2-0.7-0.1c-0.4,0.1-0.6,0.2-0.8,0.5c-0.2,0.3-0.3,0.7-0.2,1.3c0.1,0.6,0.3,1,0.5,1.3c0.3,0.2,0.6,0.3,1,0.3
			c0.3,0,0.5-0.1,0.7-0.3C54.9,17.7,55.1,17.4,55.1,17 M50.1,19.7l-1.2-4.8l1-0.2l1.2,4.8L50.1,19.7z M46,20.9l-1.5-4.7l1-0.3
			l1.2,3.9l2.5-0.7l0.3,0.8L46,20.9z M41.2,20.4l0.5,1.2l0.9-0.4c0.3-0.1,0.5-0.2,0.6-0.3c0.2-0.1,0.2-0.2,0.3-0.3
			c0-0.1,0-0.3,0-0.4c-0.1-0.1-0.2-0.2-0.3-0.3c-0.1-0.1-0.2-0.1-0.4-0.1c-0.1,0-0.4,0.1-0.9,0.3L41.2,20.4z M40.4,18.6l0.4,1
			l0.6-0.3c0.4-0.2,0.6-0.3,0.7-0.3c0.2-0.1,0.3-0.2,0.3-0.3c0-0.1,0-0.3,0-0.4c0-0.1-0.1-0.2-0.3-0.3c-0.1-0.1-0.3-0.1-0.4,0
			c-0.1,0-0.4,0.1-0.8,0.3L40.4,18.6z M39.1,18.2l1.9-0.8c0.4-0.2,0.7-0.2,0.9-0.3c0.2-0.1,0.4-0.1,0.6,0c0.2,0,0.4,0.1,0.5,0.2
			c0.2,0.1,0.3,0.3,0.4,0.5c0.1,0.2,0.1,0.4,0.1,0.6c-0.1,0.2-0.1,0.4-0.3,0.6c0.3,0,0.6,0,0.8,0.1c0.2,0.1,0.4,0.3,0.5,0.6
			c0.1,0.2,0.1,0.4,0.1,0.7c0,0.2-0.1,0.4-0.2,0.6c-0.1,0.2-0.3,0.3-0.5,0.5c-0.2,0.1-0.5,0.2-1.2,0.5l-1.6,0.7L39.1,18.2z M34,20.8
			l0.9-0.5l1.3,2.4c0.2,0.4,0.4,0.6,0.5,0.7c0.1,0.2,0.3,0.2,0.5,0.3c0.2,0,0.4,0,0.7-0.1c0.3-0.1,0.4-0.3,0.5-0.5
			c0.1-0.1,0.1-0.3,0-0.5c-0.1-0.1-0.2-0.4-0.4-0.8l-1.4-2.4l0.9-0.5l1.3,2.3c0.3,0.5,0.5,0.9,0.6,1.1c0.1,0.2,0.1,0.5,0,0.7
			c0,0.2-0.1,0.4-0.3,0.6c-0.2,0.2-0.4,0.4-0.8,0.6c-0.4,0.2-0.8,0.4-1,0.4c-0.3,0-0.5,0-0.7-0.1c-0.2-0.1-0.4-0.2-0.5-0.3
			c-0.2-0.2-0.4-0.6-0.7-1L34,20.8z M31,24l0.9,1.1l0.4-0.3c0.3-0.2,0.5-0.4,0.6-0.5C33,24.1,33,24,33,23.8c0-0.1-0.1-0.3-0.1-0.4
			c-0.1-0.2-0.3-0.2-0.4-0.3c-0.2,0-0.3,0-0.5,0.1c-0.1,0-0.3,0.2-0.6,0.4L31,24z M32.7,27.9l-3.1-4l1.4-1c0.5-0.4,0.8-0.6,1-0.7
			c0.3-0.1,0.6-0.1,0.9-0.1c0.3,0.1,0.6,0.3,0.8,0.6c0.2,0.2,0.3,0.5,0.3,0.7c0,0.2,0,0.5-0.1,0.6c-0.1,0.2-0.1,0.4-0.3,0.5
			c-0.2,0.2-0.4,0.4-0.8,0.7l-0.5,0.4l1.2,1.5L32.7,27.9z M29.1,31l-3.5-3.6l2.8-2.5l0.6,0.6l-2,1.8l0.8,0.8l1.9-1.7l0.6,0.6
			l-1.9,1.7l1,1l2.1-1.9l0.6,0.6L29.1,31z M24,31.9l0.5-0.6c0.3-0.4,0.5-0.6,0.6-0.7c0-0.1,0.1-0.2,0-0.3c0-0.1-0.1-0.2-0.2-0.3
			c-0.1-0.1-0.3-0.2-0.4-0.2c-0.1,0-0.3,0-0.4,0.2c-0.1,0.1-0.2,0.2-0.5,0.5l-0.6,0.6L24,31.9z M25.6,34.6l-3.8-3.3l1.5-1.6
			c0.4-0.4,0.7-0.7,0.9-0.8c0.2-0.1,0.5-0.2,0.8-0.1c0.3,0.1,0.5,0.2,0.8,0.4c0.3,0.2,0.4,0.5,0.5,0.9c0,0.3-0.1,0.7-0.3,1
			C26,31,26.2,31,26.5,31c0.2,0,0.6,0,1,0.1l1.2,0.2l-0.8,0.9L26.5,32c-0.5-0.1-0.8-0.1-0.9-0.1c-0.1,0-0.3,0-0.4,0.1
			c-0.1,0-0.2,0.2-0.4,0.3l-0.1,0.2l1.6,1.4L25.6,34.6z M97.2,29.4l1-0.4l0.6,0.6l-1.2,0.1L97.2,29.4z"/>
		<polygon class="st26" points="35.5,19.6 35.4,18.6 36.1,18.2 35.9,19.4 		"/>
	</g>
	<rect x="5.4" y="5.4" class="st27" width="107.7" height="107.7"/>
</g>
<g id="guias">
</g>
</svg>
